MingjianCaoshuHeiti.ufo
<glyph name="quotedbl" format="2">
  <advance width="376"/>
  <unicode hex="0022"/>
  <outline>
    <contour>
      <point x="56" y="750" type="line"/>
      <point x="67" y="484" type="line"/>
      <point x="132" y="484" type="line"/>
      <point x="143" y="750" type="line"/>
    </contour>
    <contour>
      <point x="233" y="750" type="line"/>
      <point x="244" y="484" type="line"/>
      <point x="309" y="484" type="line"/>
      <point x="320" y="750" type="line"/>
    </contour>
  </outline>
</glyph>
<glyph name="dollar" format="2">
  <advance width="675"/>
  <unicode hex="0024"/>
  <outline>
    <contour>
      <point x="313" y="721" type="line"/>
      <point x="378" y="721" type="line"/>
      <point x="385" y="845" type="line"/>
      <point x="308" y="845" type="line"/>
    </contour>
    <contour>
      <point x="373" y="27" type="line"/>
      <point x="309" y="27" type="line"/>
      <point x="302" y="-104" type="line"/>
      <point x="379" y="-104" type="line"/>
    </contour>
    <component base="S"/>
  </outline>
</glyph>
<glyph name="parenright" format="2">
  <advance width="328"/>
  <unicode hex="0029"/>
  <outline>
    <contour>
      <point x="138" y="750" type="curve"/>
      <point x="40" y="750" type="line"/>
      <point x="157" y="613"/>
      <point x="185" y="411"/>
      <point x="185" y="292" type="curve"/>
      <point x="185" y="164"/>
      <point x="157" y="-29"/>
      <point x="40" y="-166" type="curve"/>
      <point x="138" y="-166" type="line"/>
      <point x="238" y="-37"/>
      <point x="273" y="119"/>
      <point x="273" y="292" type="curve"/>
      <point x="273" y="426"/>
      <point x="238" y="621"/>
    </contour>
  </outline>
</glyph>
<glyph name="asterisk" format="2">
  <advance width="484"/>
  <unicode hex="002A"/>
  <outline>
    <contour>
      <point x="133" y="297" type="line"/>
      <point x="242" y="441" type="line"/>
      <point x="351" y="297" type="line"/>
      <point x="408" y="347" type="line"/>
      <point x="284" y="474" type="line"/>
      <point x="449" y="515" type="line"/>
      <point x="427" y="587" type="line"/>
      <point x="269" y="522" type="line"/>
      <point x="282" y="697" type="line"/>
      <point x="203" y="697" type="line"/>
      <point x="215" y="522" type="line"/>
      <point x="57" y="587" type="line"/>
      <point x="35" y="515" type="line"/>
      <point x="200" y="474" type="line"/>
      <point x="76" y="347" type="line"/>
    </contour>
  </outline>
</glyph>
<glyph name="slash" format="2">
  <advance width="352"/>
  <unicode hex="002F"/>
  <outline>
    <contour>
      <point x="72" y="-61" type="line"/>
      <point x="346" y="750" type="line"/>
      <point x="258" y="750" type="line"/>
      <point x="-16" y="-61" type="line"/>
    </contour>
  </outline>
</glyph>
<glyph name="one" format="2">
  <advance width="376"/>
  <unicode hex="0031"/>
  <note>
one
</note>
  <outline>
    <contour>
      <point x="307" y="750" type="line"/>
      <point x="270" y="750" type="line"/>
      <point x="63" y="672" type="line"/>
      <point x="63" y="602" type="line"/>
      <point x="219" y="656" type="line"/>
      <point x="219" y="0" type="line"/>
      <point x="307" y="0" type="line"/>
    </contour>
  </outline>
</glyph>
<glyph name="semicolon" format="2">
  <advance width="243"/>
  <unicode hex="003B"/>
  <outline>
    <contour>
      <point x="123" y="400" type="curve" smooth="yes"/>
      <point x="162" y="400"/>
      <point x="193" y="431"/>
      <point x="193" y="470" type="curve" smooth="yes"/>
      <point x="193" y="509"/>
      <point x="162" y="540"/>
      <point x="123" y="540" type="curve" smooth="yes"/>
      <point x="84" y="540"/>
      <point x="53" y="509"/>
      <point x="53" y="470" type="curve" smooth="yes"/>
      <point x="53" y="431"/>
      <point x="84" y="400"/>
    </contour>
    <contour>
      <point x="110" y="-133" type="line"/>
      <point x="184" y="97" type="line"/>
      <point x="88" y="97" type="line"/>
      <point x="38" y="-133" type="line"/>
    </contour>
  </outline>
</glyph>
<glyph name="D" format="2">
  <advance width="690"/>
  <unicode hex="0044"/>
  <anchor x="345" y="0" name="bottom"/>
  <anchor x="173" y="375" name="center"/>
  <anchor x="303" y="750" name="top"/>
  <outline>
    <contour>
      <point x="69" y="0" type="line"/>
      <point x="297" y="0" type="line"/>
      <point x="522" y="0"/>
      <point x="634" y="177"/>
      <point x="634" y="374" type="curve"/>
      <point x="634" y="571"/>
      <point x="522" y="750"/>
      <point x="297" y="750" type="curve"/>
      <point x="69" y="750" type="line"/>
    </contour>
    <contour>
      <point x="296" y="74" type="curve"/>
      <point x="157" y="74" type="line"/>
      <point x="157" y="673" type="line"/>
      <point x="296" y="673" type="line"/>
      <point x="503" y="673"/>
      <point x="546" y="470"/>
      <point x="546" y="373" type="curve"/>
      <point x="546" y="276"/>
      <point x="503" y="74"/>
    </contour>
  </outline>
</glyph>
<glyph name="E" format="2">
  <advance width="588"/>
  <unicode hex="0045"/>
  <anchor x="294" y="0" name="bottom"/>
  <anchor x="529" y="10" name="ogonek"/>
  <anchor x="310" y="750" name="top"/>
  <anchor x="20" y="750" name="topleft"/>
  <outline>
    <contour>
      <point x="69" y="0" type="line"/>
      <point x="555" y="0" type="line"/>
      <point x="555" y="80" type="line"/>
      <point x="157" y="80" type="line"/>
      <point x="157" y="332" type="line"/>
      <point x="483" y="332" type="line"/>
      <point x="483" y="412" type="line"/>
      <point x="157" y="412" type="line"/>
      <point x="157" y="670" type="line"/>
      <point x="555" y="670" type="line"/>
      <point x="555" y="750" type="line"/>
      <point x="69" y="750" type="line"/>
    </contour>
  </outline>
</glyph>
<glyph name="G" format="2">
  <advance width="725"/>
  <unicode hex="0047"/>
  <anchor x="389" y="0" name="bottom"/>
  <anchor x="377" y="750" name="top"/>
  <outline>
    <contour>
      <point x="384" y="362" type="line"/>
      <point x="384" y="282" type="line"/>
      <point x="598" y="282" type="line"/>
      <point x="598" y="189" type="line"/>
      <point x="569" y="108"/>
      <point x="499" y="65"/>
      <point x="389" y="65" type="curve"/>
      <point x="207" y="65"/>
      <point x="141" y="226"/>
      <point x="141" y="377" type="curve"/>
      <point x="141" y="519"/>
      <point x="206" y="689"/>
      <point x="379" y="689" type="curve"/>
      <point x="506" y="689"/>
      <point x="576" y="599"/>
      <point x="589" y="492" type="curve"/>
      <point x="681" y="493" type="line"/>
      <point x="668" y="650"/>
      <point x="548" y="767"/>
      <point x="377" y="767" type="curve"/>
      <point x="156" y="767"/>
      <point x="49" y="565"/>
      <point x="49" y="376" type="curve"/>
      <point x="49" y="176"/>
      <point x="158" y="-13"/>
      <point x="389" y="-13" type="curve"/>
      <point x="538" y="-13"/>
      <point x="654" y="67"/>
      <point x="681" y="197" type="curve"/>
      <point x="681" y="362" type="line"/>
    </contour>
  </outline>
</glyph>
<glyph name="J" format="2">
  <advance width="574"/>
  <unicode hex="004A"/>
  <anchor x="287" y="0" name="bottom"/>
  <anchor x="461" y="750" name="top"/>
  <outline>
    <contour>
      <point x="120" y="217" type="curve"/>
      <point x="32" y="217" type="line"/>
      <point x="32" y="81"/>
      <point x="119" y="-15"/>
      <point x="267" y="-15" type="curve"/>
      <point x="429" y="-15"/>
      <point x="505" y="97"/>
      <point x="505" y="241" type="curve"/>
      <point x="505" y="750" type="line"/>
      <point x="417" y="750" type="line"/>
      <point x="417" y="284" type="line"/>
      <point x="417" y="234"/>
      <point x="420" y="61"/>
      <point x="265" y="61" type="curve"/>
      <point x="140" y="61"/>
      <point x="120" y="173"/>
    </contour>
  </outline>
</glyph>
<glyph name="O" format="2">
  <advance width="770"/>
  <unicode hex="004F"/>
  <anchor x="385" y="0" name="bottom"/>
  <anchor x="385" y="375" name="center"/>
  <anchor x="693" y="10" name="ogonek"/>
  <anchor x="385" y="750" name="top"/>
  <anchor x="20" y="750" name="topleft"/>
  <anchor x="750" y="750" name="topright"/>
  <outline>
    <contour>
      <point x="385" y="-13" type="curve"/>
      <point x="610" y="-13"/>
      <point x="721" y="181"/>
      <point x="721" y="374" type="curve"/>
      <point x="721" y="569"/>
      <point x="610" y="767"/>
      <point x="385" y="767" type="curve"/>
      <point x="160" y="767"/>
      <point x="49" y="569"/>
      <point x="49" y="375" type="curve"/>
      <point x="49" y="180"/>
      <point x="160" y="-13"/>
    </contour>
    <contour>
      <point x="141" y="374" type="curve"/>
      <point x="141" y="519"/>
      <point x="211" y="689"/>
      <point x="385" y="689" type="curve"/>
      <point x="559" y="689"/>
      <point x="629" y="519"/>
      <point x="629" y="374" type="curve"/>
      <point x="629" y="231"/>
      <point x="559" y="65"/>
      <point x="385" y="65" type="curve"/>
      <point x="211" y="65"/>
      <point x="141" y="231"/>
    </contour>
  </outline>
</glyph>
<glyph name="P" format="2">
  <advance width="678"/>
  <unicode hex="0050"/>
  <anchor x="339" y="0" name="bottom"/>
  <anchor x="339" y="750" name="top"/>
  <outline>
    <contour>
      <point x="69" y="0" type="line"/>
      <point x="157" y="0" type="line"/>
      <point x="157" y="276" type="line"/>
      <point x="378" y="276" type="line"/>
      <point x="546" y="276"/>
      <point x="629" y="394"/>
      <point x="629" y="512" type="curve" smooth="yes"/>
      <point x="629" y="631"/>
      <point x="546" y="750"/>
      <point x="384" y="750" type="curve"/>
      <point x="69" y="750" type="line"/>
    </contour>
    <contour>
      <point x="385" y="670" type="line"/>
      <point x="490" y="670"/>
      <point x="541" y="591"/>
      <point x="541" y="512" type="curve" smooth="yes"/>
      <point x="541" y="434"/>
      <point x="490" y="356"/>
      <point x="378" y="356" type="curve"/>
      <point x="157" y="356" type="line"/>
      <point x="157" y="670" type="line"/>
    </contour>
  </outline>
</glyph>
<glyph name="S" format="2">
  <advance width="675"/>
  <unicode hex="0053"/>
  <anchor x="338" y="0" name="bottom"/>
  <anchor x="338" y="750" name="top"/>
  <outline>
    <contour>
      <point x="76" y="565" type="curve"/>
      <point x="76" y="325"/>
      <point x="520" y="362"/>
      <point x="520" y="186" type="curve"/>
      <point x="520" y="103"/>
      <point x="447" y="66"/>
      <point x="345" y="66" type="curve"/>
      <point x="227" y="66"/>
      <point x="152" y="119"/>
      <point x="152" y="217" type="curve"/>
      <point x="54" y="217" type="line"/>
      <point x="51" y="76"/>
      <point x="175" y="-14"/>
      <point x="341" y="-14" type="curve"/>
      <point x="498" y="-14"/>
      <point x="618" y="64"/>
      <point x="618" y="196" type="curve"/>
      <point x="619" y="432"/>
      <point x="171" y="400"/>
      <point x="171" y="567" type="curve"/>
      <point x="171" y="647"/>
      <point x="238" y="687"/>
      <point x="340" y="687" type="curve"/>
      <point x="454" y="687"/>
      <point x="517" y="634"/>
      <point x="517" y="541" type="curve"/>
      <point x="615" y="541" type="line"/>
      <point x="610" y="682"/>
      <point x="510" y="765"/>
      <point x="341" y="765" type="curve"/>
      <point x="195" y="765"/>
      <point x="76" y="687"/>
    </contour>
  </outline>
</glyph>
<glyph name="Y" format="2">
  <advance width="648"/>
  <unicode hex="0059"/>
  <anchor x="324" y="0" name="bottom"/>
  <anchor x="324" y="750" name="top"/>
  <anchor x="20" y="750" name="topleft"/>
  <outline>
    <contour>
      <point x="641" y="750" type="line"/>
      <point x="544" y="750" type="line"/>
      <point x="324" y="343" type="line"/>
      <point x="104" y="750" type="line"/>
      <point x="7" y="750" type="line"/>
      <point x="280" y="246" type="line"/>
      <point x="280" y="0" type="line"/>
      <point x="368" y="0" type="line"/>
      <point x="368" y="246" type="line"/>
    </contour>
  </outline>
</glyph>
<glyph name="asciicircum" format="2">
  <advance width="524"/>
  <unicode hex="005E"/>
  <outline>
    <contour>
      <point x="36" y="394" type="line"/>
      <point x="126" y="394" type="line"/>
      <point x="263" y="652" type="line"/>
      <point x="398" y="394" type="line"/>
      <point x="488" y="394" type="line"/>
      <point x="307" y="737" type="line"/>
      <point x="218" y="737" type="line"/>
    </contour>
  </outline>
</glyph>
<glyph name="a" format="2">
  <advance width="529"/>
  <unicode hex="0061"/>
  <anchor x="265" y="0" name="bottom"/>
  <anchor x="419" y="0" name="ogonek"/>
  <anchor x="266" y="526" name="top"/>
  <outline>
    <contour>
      <point x="53" y="381" type="curve"/>
      <point x="141" y="381" type="line"/>
      <point x="146" y="437"/>
      <point x="203" y="467"/>
      <point x="262" y="467" type="curve"/>
      <point x="335" y="467"/>
      <point x="368" y="436"/>
      <point x="376" y="374" type="curve"/>
      <point x="376" y="321" type="line"/>
      <point x="288" y="321" type="line"/>
      <point x="147" y="321"/>
      <point x="41" y="268"/>
      <point x="41" y="146" type="curve"/>
      <point x="41" y="47"/>
      <point x="131" y="-6"/>
      <point x="226" y="-6" type="curve"/>
      <point x="290" y="-6"/>
      <point x="339" y="20"/>
      <point x="377" y="69" type="curve"/>
      <point x="377" y="0" type="line"/>
      <point x="464" y="0" type="line"/>
      <point x="464" y="360" type="line"/>
      <point x="464" y="479"/>
      <point x="386" y="541"/>
      <point x="266" y="541" type="curve"/>
      <point x="164" y="541"/>
      <point x="53" y="486"/>
    </contour>
    <contour>
      <point x="377" y="143" type="line"/>
      <point x="346" y="93"/>
      <point x="288" y="63"/>
      <point x="235" y="63" type="curve"/>
      <point x="183" y="63"/>
      <point x="131" y="97"/>
      <point x="131" y="151" type="curve"/>
      <point x="131" y="223"/>
      <point x="207" y="252"/>
      <point x="305" y="252" type="curve"/>
      <point x="377" y="252" type="line"/>
    </contour>
  </outline>
</glyph>
<glyph name="c" format="2">
  <advance width="540"/>
  <unicode hex="0063"/>
  <anchor x="280" y="0" name="bottom"/>
  <anchor x="276" y="526" name="top"/>
  <outline>
    <contour>
      <point x="278" y="464" type="curve"/>
      <point x="345" y="464"/>
      <point x="399" y="420"/>
      <point x="411" y="340" type="curve"/>
      <point x="501" y="340" type="line"/>
      <point x="481" y="453"/>
      <point x="407" y="541"/>
      <point x="276" y="541" type="curve"/>
      <point x="115" y="541"/>
      <point x="41" y="395"/>
      <point x="41" y="263" type="curve"/>
      <point x="41" y="128"/>
      <point x="116" y="-7"/>
      <point x="280" y="-7" type="curve"/>
      <point x="403" y="-7"/>
      <point x="481" y="69"/>
      <point x="501" y="184" type="curve"/>
      <point x="411" y="184" type="line"/>
      <point x="403" y="115"/>
      <point x="352" y="70"/>
      <point x="281" y="70" type="curve"/>
      <point x="171" y="70"/>
      <point x="129" y="173"/>
      <point x="129" y="262" type="curve"/>
      <point x="129" y="346"/>
      <point x="169" y="464"/>
    </contour>
  </outline>
</glyph>
<glyph name="f" format="2">
  <advance width="345"/>
  <unicode hex="0066"/>
  <anchor x="173" y="0" name="bottom"/>
  <anchor x="173" y="800" name="top"/>
  <outline>
    <contour>
      <point x="372" y="718" type="curve"/>
      <point x="372" y="798" type="line"/>
      <point x="352" y="802"/>
      <point x="333" y="804"/>
      <point x="315" y="804" type="curve"/>
      <point x="207" y="804"/>
      <point x="115" y="740"/>
      <point x="115" y="583" type="curve"/>
      <point x="115" y="526" type="line"/>
      <point x="25" y="526" type="line"/>
      <point x="25" y="446" type="line"/>
      <point x="115" y="446" type="line"/>
      <point x="115" y="0" type="line"/>
      <point x="203" y="0" type="line"/>
      <point x="203" y="446" type="line"/>
      <point x="322" y="446" type="line"/>
      <point x="322" y="526" type="line"/>
      <point x="203" y="526" type="line"/>
      <point x="203" y="597" type="line"/>
      <point x="203" y="696"/>
      <point x="262" y="728"/>
      <point x="317" y="728" type="curve"/>
      <point x="337" y="728"/>
      <point x="356" y="725"/>
    </contour>
  </outline>
</glyph>
<glyph name="g" format="2">
  <advance width="569"/>
  <unicode hex="0067"/>
  <anchor x="285" y="-220" name="bottom"/>
  <anchor x="285" y="526" name="top"/>
  <outline>
    <contour>
      <point x="504" y="-31" type="curve"/>
      <point x="504" y="526" type="line"/>
      <point x="416" y="526" type="line"/>
      <point x="416" y="445" type="line"/>
      <point x="389" y="505"/>
      <point x="333" y="542"/>
      <point x="258" y="542" type="curve"/>
      <point x="118" y="542"/>
      <point x="41" y="407"/>
      <point x="41" y="268" type="curve"/>
      <point x="41" y="128"/>
      <point x="113" y="-8"/>
      <point x="273" y="-8" type="curve"/>
      <point x="336" y="-8"/>
      <point x="387" y="15"/>
      <point x="416" y="67" type="curve"/>
      <point x="416" y="-27" type="line"/>
      <point x="416" y="-84"/>
      <point x="383" y="-159"/>
      <point x="289" y="-159" type="curve"/>
      <point x="216" y="-159"/>
      <point x="160" y="-107"/>
      <point x="157" y="-56" type="curve"/>
      <point x="69" y="-56" type="line"/>
      <point x="74" y="-161"/>
      <point x="178" y="-233"/>
      <point x="290" y="-233" type="curve"/>
      <point x="418" y="-233"/>
      <point x="504" y="-153"/>
    </contour>
    <contour>
      <point x="416" y="352" type="curve"/>
      <point x="416" y="166" type="line"/>
      <point x="406" y="129"/>
      <point x="362" y="69"/>
      <point x="280" y="69" type="curve"/>
      <point x="170" y="69"/>
      <point x="129" y="176"/>
      <point x="129" y="274" type="curve"/>
      <point x="129" y="370"/>
      <point x="177" y="466"/>
      <point x="273" y="466" type="curve"/>
      <point x="357" y="466"/>
      <point x="409" y="396"/>
    </contour>
  </outline>
</glyph>
<glyph name="i" format="2">
  <advance width="218"/>
  <unicode hex="0069"/>
  <anchor x="109" y="0" name="bottom"/>
  <outline>
    <contour>
      <point x="65" y="0" type="line"/>
      <point x="153" y="0" type="line"/>
      <point x="153" y="526" type="line"/>
      <point x="65" y="526" type="line"/>
    </contour>
    <contour>
      <point x="109" y="643" type="curve" smooth="yes"/>
      <point x="142" y="643"/>
      <point x="168" y="669"/>
      <point x="168" y="702" type="curve" smooth="yes"/>
      <point x="168" y="735"/>
      <point x="142" y="761"/>
      <point x="109" y="761" type="curve" smooth="yes"/>
      <point x="76" y="761"/>
      <point x="50" y="735"/>
      <point x="50" y="702" type="curve" smooth="yes"/>
      <point x="50" y="669"/>
      <point x="76" y="643"/>
    </contour>
  </outline>
</glyph>
<glyph name="m" format="2">
  <advance width="868"/>
  <unicode hex="006D"/>
  <anchor x="434" y="0" name="bottom"/>
  <anchor x="434" y="526" name="top"/>
  <outline>
    <contour>
      <point x="65" y="0" type="line"/>
      <point x="153" y="0" type="line"/>
      <point x="153" y="526" type="line"/>
      <point x="65" y="526" type="line"/>
    </contour>
    <contour>
      <point x="113" y="388" type="curve"/>
      <point x="153" y="361" type="line"/>
      <point x="185" y="433"/>
      <point x="230" y="473"/>
      <point x="286" y="473" type="curve" smooth="yes"/>
      <point x="384" y="473"/>
      <point x="390" y="384"/>
      <point x="390" y="316" type="curve" smooth="yes"/>
      <point x="390" y="0" type="line"/>
      <point x="478" y="0" type="line"/>
      <point x="478" y="344" type="line" smooth="yes"/>
      <point x="478" y="467"/>
      <point x="424" y="544"/>
      <point x="302" y="544" type="curve" smooth="yes"/>
      <point x="211" y="544"/>
      <point x="155" y="492"/>
    </contour>
    <contour>
      <point x="428" y="408" type="curve"/>
      <point x="468" y="381" type="line"/>
      <point x="500" y="433"/>
      <point x="565" y="473"/>
      <point x="611" y="473" type="curve" smooth="yes"/>
      <point x="709" y="473"/>
      <point x="715" y="384"/>
      <point x="715" y="316" type="curve" smooth="yes"/>
      <point x="715" y="0" type="line"/>
      <point x="803" y="0" type="line"/>
      <point x="803" y="344" type="line" smooth="yes"/>
      <point x="803" y="467"/>
      <point x="749" y="544"/>
      <point x="627" y="544" type="curve" smooth="yes"/>
      <point x="546" y="544"/>
      <point x="470" y="492"/>
    </contour>
  </outline>
</glyph>
<glyph name="s" format="2">
  <advance width="487"/>
  <unicode hex="0073"/>
  <anchor x="244" y="0" name="bottom"/>
  <anchor x="244" y="526" name="top"/>
  <outline>
    <contour>
      <point x="446" y="146" type="curve"/>
      <point x="446" y="317"/>
      <point x="137" y="287"/>
      <point x="137" y="390" type="curve"/>
      <point x="137" y="444"/>
      <point x="185" y="468"/>
      <point x="238" y="468" type="curve"/>
      <point x="295" y="468"/>
      <point x="351" y="439"/>
      <point x="353" y="378" type="curve"/>
      <point x="443" y="378" type="line"/>
      <point x="440" y="487"/>
      <point x="336" y="543"/>
      <point x="239" y="543" type="curve"/>
      <point x="148" y="543"/>
      <point x="47" y="494"/>
      <point x="47" y="388" type="curve"/>
      <point x="47" y="216"/>
      <point x="355" y="253"/>
      <point x="355" y="146" type="curve"/>
      <point x="355" y="89"/>
      <point x="302" y="66"/>
      <point x="254" y="66" type="curve"/>
      <point x="195" y="66"/>
      <point x="131" y="94"/>
      <point x="131" y="160" type="curve"/>
      <point x="41" y="160" type="line"/>
      <point x="44" y="44"/>
      <point x="141" y="-10"/>
      <point x="245" y="-10" type="curve"/>
      <point x="336" y="-10"/>
      <point x="446" y="35"/>
    </contour>
  </outline>
</glyph>
<glyph name="v" format="2">
  <advance width="514"/>
  <unicode hex="0076"/>
  <anchor x="257" y="0" name="bottom"/>
  <anchor x="257" y="526" name="top"/>
  <outline>
    <contour>
      <point x="209" y="0" type="line"/>
      <point x="305" y="0" type="line"/>
      <point x="495" y="526" type="line"/>
      <point x="406" y="526" type="line"/>
      <point x="257" y="109" type="line"/>
      <point x="108" y="526" type="line"/>
      <point x="19" y="526" type="line"/>
    </contour>
  </outline>
</glyph>
<glyph name="w" format="2">
  <advance width="760"/>
  <unicode hex="0077"/>
  <anchor x="380" y="0" name="bottom"/>
  <anchor x="380" y="526" name="top"/>
  <outline>
    <contour>
      <point x="233" y="109" type="line"/>
      <point x="108" y="526" type="line"/>
      <point x="19" y="526" type="line"/>
      <point x="185" y="0" type="line"/>
      <point x="274" y="0" type="line"/>
      <point x="380" y="388" type="line"/>
      <point x="486" y="0" type="line"/>
      <point x="575" y="0" type="line"/>
      <point x="741" y="526" type="line"/>
      <point x="651" y="526" type="line"/>
      <point x="526" y="109" type="line"/>
      <point x="417" y="526" type="line"/>
      <point x="342" y="526" type="line"/>
    </contour>
  </outline>
</glyph>
<glyph name="z" format="2">
  <advance width="506"/>
  <unicode hex="007A"/>
  <anchor x="253" y="0" name="bottom"/>
  <anchor x="253" y="263" name="center"/>
  <anchor x="253" y="526" name="top"/>
  <outline>
    <contour>
      <point x="457" y="526" type="line"/>
      <point x="51" y="526" type="line"/>
      <point x="51" y="446" type="line"/>
      <point x="340" y="446" type="line"/>
      <point x="49" y="57" type="line"/>
      <point x="49" y="0" type="line"/>
      <point x="455" y="0" type="line"/>
      <point x="455" y="80" type="line"/>
      <point x="166" y="80" type="line"/>
      <point x="457" y="470" type="line"/>
    </contour>
  </outline>
</glyph>
<glyph name="asciitilde" format="2">
  <advance width="660"/>
  <unicode hex="007E"/>
  <outline>
    <contour>
      <point x="49" y="241" type="curve"/>
      <point x="113" y="188" type="line"/>
      <point x="156" y="242"/>
      <point x="191" y="271"/>
      <point x="227" y="271" type="curve" smooth="yes"/>
      <point x="285" y="271"/>
      <point x="335" y="165"/>
      <point x="433" y="165" type="curve" smooth="yes"/>
      <point x="506" y="165"/>
      <point x="573" y="238"/>
      <point x="611" y="293" type="curve"/>
      <point x="547" y="337" type="line"/>
      <point x="504" y="284"/>
      <point x="469" y="255"/>
      <point x="433" y="255" type="curve" smooth="yes"/>
      <point x="375" y="255"/>
      <point x="324" y="361"/>
      <point x="227" y="361" type="curve" smooth="yes"/>
      <point x="154" y="361"/>
      <point x="87" y="295"/>
    </contour>
  </outline>
</glyph>
<glyph name="section" format="2">
  <advance width="487"/>
  <unicode hex="00A7"/>
  <outline>
    <contour>
      <point x="446" y="365" type="curve"/>
      <point x="446" y="536"/>
      <point x="137" y="506"/>
      <point x="137" y="609" type="curve"/>
      <point x="137" y="663"/>
      <point x="185" y="687"/>
      <point x="238" y="687" type="curve"/>
      <point x="295" y="687"/>
      <point x="351" y="658"/>
      <point x="353" y="597" type="curve"/>
      <point x="443" y="597" type="line"/>
      <point x="440" y="706"/>
      <point x="336" y="762"/>
      <point x="239" y="762" type="curve"/>
      <point x="148" y="762"/>
      <point x="47" y="713"/>
      <point x="47" y="607" type="curve"/>
      <point x="47" y="435"/>
      <point x="355" y="472"/>
      <point x="355" y="365" type="curve"/>
      <point x="355" y="308"/>
      <point x="302" y="285"/>
      <point x="254" y="285" type="curve"/>
      <point x="315" y="218" type="line"/>
      <point x="384" y="236"/>
      <point x="446" y="282"/>
    </contour>
    <contour>
      <point x="446" y="145" type="curve"/>
      <point x="446" y="316"/>
      <point x="137" y="286"/>
      <point x="137" y="389" type="curve"/>
      <point x="137" y="443"/>
      <point x="185" y="467"/>
      <point x="238" y="467" type="curve"/>
      <point x="179" y="535" type="line"/>
      <point x="108" y="518"/>
      <point x="47" y="470"/>
      <point x="47" y="387" type="curve"/>
      <point x="47" y="215"/>
      <point x="355" y="252"/>
      <point x="355" y="145" type="curve"/>
      <point x="355" y="88"/>
      <point x="302" y="65"/>
      <point x="254" y="65" type="curve"/>
      <point x="195" y="65"/>
      <point x="131" y="93"/>
      <point x="131" y="159" type="curve"/>
      <point x="41" y="159" type="line"/>
      <point x="44" y="43"/>
      <point x="141" y="-11"/>
      <point x="245" y="-11" type="curve"/>
      <point x="336" y="-11"/>
      <point x="446" y="34"/>
    </contour>
  </outline>
</glyph>
<glyph name="registered" format="2">
  <advance width="988"/>
  <unicode hex="00AE"/>
  <outline>
    <contour>
      <point x="494" y="-149" type="curve" smooth="yes"/>
      <point x="743" y="-149"/>
      <point x="944" y="52"/>
      <point x="944" y="301" type="curve" smooth="yes"/>
      <point x="944" y="550"/>
      <point x="743" y="751"/>
      <point x="494" y="751" type="curve" smooth="yes"/>
      <point x="245" y="751"/>
      <point x="44" y="550"/>
      <point x="44" y="301" type="curve" smooth="yes"/>
      <point x="44" y="52"/>
      <point x="245" y="-149"/>
    </contour>
    <contour>
      <point x="494" y="-69" type="curve" smooth="yes"/>
      <point x="290" y="-69"/>
      <point x="124" y="97"/>
      <point x="124" y="301" type="curve" smooth="yes"/>
      <point x="124" y="505"/>
      <point x="290" y="671"/>
      <point x="494" y="671" type="curve" smooth="yes"/>
      <point x="698" y="671"/>
      <point x="864" y="505"/>
      <point x="864" y="301" type="curve" smooth="yes"/>
      <point x="864" y="97"/>
      <point x="698" y="-69"/>
    </contour>
    <contour>
      <point x="596" y="233" type="line"/>
      <point x="508" y="225" type="line"/>
      <point x="634" y="22" type="line"/>
      <point x="728" y="22" type="line"/>
    </contour>
    <contour>
      <point x="308" y="22" type="line"/>
      <point x="392" y="22" type="line"/>
      <point x="392" y="217" type="line"/>
      <point x="535" y="217" type="line"/>
      <point x="658" y="217"/>
      <point x="719" y="304"/>
      <point x="719" y="393" type="curve" smooth="yes"/>
      <point x="719" y="483"/>
      <point x="658" y="573"/>
      <point x="539" y="573" type="curve"/>
      <point x="308" y="573" type="line"/>
    </contour>
    <contour>
      <point x="537" y="494" type="line"/>
      <point x="604" y="494"/>
      <point x="635" y="444"/>
      <point x="635" y="393" type="curve" smooth="yes"/>
      <point x="635" y="344"/>
      <point x="604" y="293"/>
      <point x="533" y="293" type="curve"/>
      <point x="392" y="293" type="line"/>
      <point x="392" y="494" type="line"/>
    </contour>
  </outline>
</glyph>
<glyph name="guillemotright" format="2">
  <advance width="600"/>
  <unicode hex="00BB"/>
  <outline>
    <contour>
      <point x="327" y="491" type="line"/>
      <point x="270" y="436" type="line"/>
      <point x="422" y="263" type="line"/>
      <point x="270" y="90" type="line"/>
      <point x="327" y="35" type="line"/>
      <point x="526" y="263" type="line"/>
    </contour>
    <contour>
      <point x="127" y="491" type="line"/>
      <point x="70" y="436" type="line"/>
      <point x="222" y="263" type="line"/>
      <point x="70" y="90" type="line"/>
      <point x="127" y="35" type="line"/>
      <point x="326" y="263" type="line"/>
    </contour>
  </outline>
</glyph>
<glyph name="Oslash" format="2">
  <advance width="770"/>
  <unicode hex="00D8"/>
  <anchor x="385" y="0" name="bottom"/>
  <anchor x="385" y="750" name="top"/>
  <outline>
    <component base="O"/>
    <contour>
      <point x="616" y="750" type="line"/>
      <point x="96" y="40" type="line"/>
      <point x="154" y="0" type="line"/>
      <point x="674" y="710" type="line"/>
    </contour>
  </outline>
</glyph>
<glyph name="eth" format="2">
  <advance width="571"/>
  <unicode hex="00F0"/>
  <outline>
    <component base="o"/>
    <contour>
      <point x="195" y="776" type="curve"/>
      <point x="151" y="726" type="line"/>
      <point x="319" y="602"/>
      <point x="435" y="478"/>
      <point x="435" y="354" type="curve"/>
      <point x="530" y="284" type="line"/>
      <point x="530" y="535"/>
      <point x="371" y="655"/>
    </contour>
    <contour>
      <point x="89" y="617" type="line"/>
      <point x="113" y="553" type="line"/>
      <point x="463" y="673" type="line"/>
      <point x="439" y="737" type="line"/>
    </contour>
  </outline>
</glyph>
<glyph name="divide" format="2">
  <advance width="634"/>
  <unicode hex="00F7"/>
  <outline>
    <contour>
      <point x="584" y="371" type="line"/>
      <point x="50" y="371" type="line"/>
      <point x="50" y="291" type="line"/>
      <point x="584" y="291" type="line"/>
    </contour>
    <contour>
      <point x="317" y="468" type="curve" smooth="yes"/>
      <point x="352" y="468"/>
      <point x="380" y="496"/>
      <point x="380" y="531" type="curve" smooth="yes"/>
      <point x="380" y="566"/>
      <point x="352" y="594"/>
      <point x="317" y="594" type="curve" smooth="yes"/>
      <point x="282" y="594"/>
      <point x="254" y="566"/>
      <point x="254" y="531" type="curve" smooth="yes"/>
      <point x="254" y="496"/>
      <point x="282" y="468"/>
    </contour>
    <contour>
      <point x="317" y="68" type="curve" smooth="yes"/>
      <point x="352" y="68"/>
      <point x="380" y="96"/>
      <point x="380" y="131" type="curve" smooth="yes"/>
      <point x="380" y="166"/>
      <point x="352" y="194"/>
      <point x="317" y="194" type="curve" smooth="yes"/>
      <point x="282" y="194"/>
      <point x="254" y="166"/>
      <point x="254" y="131" type="curve" smooth="yes"/>
      <point x="254" y="96"/>
      <point x="282" y="68"/>
    </contour>
  </outline>
</glyph>
<glyph name="oslash" format="2">
  <advance width="571"/>
  <unicode hex="00F8"/>
  <anchor x="286" y="526" name="top"/>
  <outline>
    <component base="o"/>
    <contour>
      <point x="492" y="490" type="line"/>
      <point x="439" y="528" type="line"/>
      <point x="79" y="36" type="line"/>
      <point x="132" y="0" type="line"/>
    </contour>
  </outline>
</glyph>
<glyph name="dcroat" format="2">
  <advance width="567"/>
  <unicode hex="0111"/>
  <outline>
    <component base="d"/>
    <contour>
      <point x="225" y="702" type="line"/>
      <point x="225" y="630" type="line"/>
      <point x="567" y="630" type="line"/>
      <point x="567" y="702" type="line"/>
    </contour>
  </outline>
</glyph>
<glyph name="hbar" format="2">
  <advance width="587"/>
  <unicode hex="0127"/>
  <outline>
    <component base="h"/>
    <contour>
      <point x="0" y="702" type="line"/>
      <point x="0" y="630" type="line"/>
      <point x="342" y="630" type="line"/>
      <point x="342" y="702" type="line"/>
    </contour>
  </outline>
</glyph>
<glyph name="dotlessi" format="2">
  <advance width="218"/>
  <unicode hex="0131"/>
  <anchor x="109" y="0" name="bottom"/>
  <anchor x="109" y="0" name="ogonek"/>
  <anchor x="109" y="526" name="top"/>
  <outline>
    <contour>
      <point x="65" y="0" type="line"/>
      <point x="153" y="0" type="line"/>
      <point x="153" y="526" type="line"/>
      <point x="65" y="526" type="line"/>
    </contour>
  </outline>
</glyph>
<glyph name="lslash" format="2">
  <advance width="218"/>
  <unicode hex="0142"/>
  <outline>
    <component base="l"/>
    <contour>
      <point x="214" y="527" type="line"/>
      <point x="-40" y="334" type="line"/>
      <point x="4" y="273" type="line"/>
      <point x="258" y="467" type="line"/>
    </contour>
  </outline>
</glyph>
<glyph name="OE" format="2">
  <advance width="1152"/>
  <unicode hex="0152"/>
  <anchor x="576" y="0" name="bottom"/>
  <anchor x="576" y="750" name="top"/>
  <outline>
    <contour>
      <point x="385" y="-13" type="curve"/>
      <point x="610" y="-13"/>
      <point x="721" y="181"/>
      <point x="721" y="374" type="curve"/>
      <point x="721" y="569"/>
      <point x="610" y="767"/>
      <point x="385" y="767" type="curve"/>
      <point x="160" y="767"/>
      <point x="49" y="569"/>
      <point x="49" y="375" type="curve"/>
      <point x="49" y="180"/>
      <point x="160" y="-13"/>
    </contour>
    <contour>
      <point x="141" y="374" type="curve"/>
      <point x="141" y="519"/>
      <point x="211" y="689"/>
      <point x="385" y="689" type="curve"/>
      <point x="559" y="689"/>
      <point x="629" y="519"/>
      <point x="629" y="374" type="curve"/>
      <point x="629" y="231"/>
      <point x="559" y="65"/>
      <point x="385" y="65" type="curve"/>
      <point x="211" y="65"/>
      <point x="141" y="231"/>
    </contour>
    <contour>
      <point x="633" y="0" type="line"/>
      <point x="1119" y="0" type="line"/>
      <point x="1119" y="80" type="line"/>
      <point x="717" y="80" type="line"/>
      <point x="721" y="332" type="line"/>
      <point x="1047" y="332" type="line"/>
      <point x="1047" y="412" type="line"/>
      <point x="721" y="412" type="line"/>
      <point x="721" y="670" type="line"/>
      <point x="1119" y="670" type="line"/>
      <point x="1119" y="750" type="line"/>
      <point x="633" y="750" type="line"/>
    </contour>
  </outline>
</glyph>
<glyph name="uni0237" format="2">
  <advance width="218"/>
  <unicode hex="0237"/>
  <anchor x="109" y="-220" name="bottom"/>
  <anchor x="109" y="526" name="top"/>
  <outline>
    <component base="dotlessi"/>
    <contour>
      <point x="-76" y="-151" type="curve"/>
      <point x="-76" y="-231" type="line"/>
      <point x="79" y="-228"/>
      <point x="153" y="-139"/>
      <point x="153" y="0" type="curve"/>
      <point x="65" y="0" type="line"/>
      <point x="65" y="-105"/>
      <point x="27" y="-152"/>
    </contour>
  </outline>
</glyph>
<glyph name="acutecomb" format="2">
  <advance width="0"/>
  <unicode hex="0301"/>
  <anchor x="150" y="526" name="_top"/>
  <anchor x="150" y="737" name="top"/>
  <outline>
    <contour>
      <point x="305" y="760" type="line"/>
      <point x="193" y="760" type="line"/>
      <point x="84" y="602" type="line"/>
      <point x="166" y="602" type="line"/>
    </contour>
  </outline>
</glyph>
<glyph name="uni0306" format="2">
  <advance width="0"/>
  <unicode hex="0306"/>
  <anchor x="150" y="526" name="_top"/>
  <anchor x="150" y="675" name="top"/>
  <outline>
    <contour>
      <point x="303" y="711" type="curve"/>
      <point x="227" y="711" type="line"/>
      <point x="227" y="672"/>
      <point x="192" y="642"/>
      <point x="150" y="642" type="curve" smooth="yes"/>
      <point x="107" y="642"/>
      <point x="74" y="672"/>
      <point x="74" y="711" type="curve"/>
      <point x="-3" y="711" type="line"/>
      <point x="-3" y="634"/>
      <point x="65" y="573"/>
      <point x="150" y="573" type="curve" smooth="yes"/>
      <point x="236" y="573"/>
      <point x="303" y="634"/>
    </contour>
  </outline>
</glyph>
<glyph name="uni0308" format="2">
  <advance width="0"/>
  <unicode hex="0308"/>
  <anchor x="150" y="526" name="_top"/>
  <anchor x="150" y="699" name="top"/>
  <outline>
    <contour>
      <point x="245" y="597" type="curve" smooth="yes"/>
      <point x="278" y="597"/>
      <point x="304" y="623"/>
      <point x="304" y="656" type="curve" smooth="yes"/>
      <point x="304" y="689"/>
      <point x="278" y="715"/>
      <point x="245" y="715" type="curve" smooth="yes"/>
      <point x="212" y="715"/>
      <point x="186" y="689"/>
      <point x="186" y="656" type="curve" smooth="yes"/>
      <point x="186" y="623"/>
      <point x="212" y="597"/>
    </contour>
    <contour>
      <point x="55" y="597" type="curve" smooth="yes"/>
      <point x="88" y="597"/>
      <point x="114" y="623"/>
      <point x="114" y="656" type="curve" smooth="yes"/>
      <point x="114" y="689"/>
      <point x="88" y="715"/>
      <point x="55" y="715" type="curve" smooth="yes"/>
      <point x="22" y="715"/>
      <point x="-4" y="689"/>
      <point x="-4" y="656" type="curve" smooth="yes"/>
      <point x="-4" y="623"/>
      <point x="22" y="597"/>
    </contour>
  </outline>
</glyph>
<glyph name="uni030C" format="2">
  <advance width="0"/>
  <unicode hex="030C"/>
  <anchor x="150" y="526" name="_top"/>
  <anchor x="150" y="675" name="top"/>
  <outline>
    <contour>
      <point x="107" y="576" type="line"/>
      <point x="193" y="576" type="line"/>
      <point x="306" y="734" type="line"/>
      <point x="229" y="734" type="line"/>
    </contour>
    <contour>
      <point x="193" y="576" type="line"/>
      <point x="71" y="734" type="line"/>
      <point x="-6" y="734" type="line"/>
      <point x="107" y="576" type="line"/>
    </contour>
  </outline>
</glyph>
<glyph name="uni0313" format="2">
  <advance width="0"/>
  <unicode hex="0313"/>
  <anchor x="116" y="526" name="_top"/>
  <outline>
    <contour>
      <point x="129" y="583" type="line"/>
      <point x="207" y="750" type="line"/>
      <point x="115" y="750" type="line"/>
      <point x="61" y="583" type="line"/>
    </contour>
  </outline>
</glyph>
<glyph name="uni0327" format="2">
  <advance width="0"/>
  <unicode hex="0327"/>
  <anchor x="150" y="0" name="_bottom"/>
  <outline>
    <contour>
      <point x="62" y="-170" type="curve"/>
      <point x="36" y="-223" type="line"/>
      <point x="59" y="-235"/>
      <point x="89" y="-242"/>
      <point x="125" y="-242" type="curve"/>
      <point x="222" y="-242"/>
      <point x="265" y="-194"/>
      <point x="265" y="-144" type="curve"/>
      <point x="265" y="-103"/>
      <point x="230" y="-56"/>
      <point x="156" y="-47" type="curve"/>
      <point x="179" y="6" type="line"/>
      <point x="129" y="6" type="line"/>
      <point x="88" y="-68" type="line"/>
      <point x="98" y="-109" type="line"/>
      <point x="103" y="-108"/>
      <point x="113" y="-107"/>
      <point x="120" y="-107" type="curve"/>
      <point x="179" y="-107"/>
      <point x="199" y="-130"/>
      <point x="199" y="-143" type="curve"/>
      <point x="199" y="-162"/>
      <point x="177" y="-180"/>
      <point x="119" y="-180" type="curve"/>
      <point x="94" y="-180"/>
      <point x="73" y="-177"/>
    </contour>
  </outline>
</glyph>
<glyph name="bullet" format="2">
  <advance width="340"/>
  <unicode hex="2022"/>
  <outline>
    <contour>
      <point x="170" y="255" type="curve" smooth="yes"/>
      <point x="226" y="255"/>
      <point x="270" y="299"/>
      <point x="270" y="354" type="curve" smooth="yes"/>
      <point x="270" y="410"/>
      <point x="226" y="454"/>
      <point x="170" y="454" type="curve" smooth="yes"/>
      <point x="115" y="454"/>
      <point x="70" y="410"/>
      <point x="70" y="354" type="curve" smooth="yes"/>
      <point x="70" y="299"/>
      <point x="115" y="255"/>
    </contour>
  </outline>
</glyph>
<glyph name="uni2E83" format="2">
  <advance width="1000"/>
  <unicode hex="2E83"/>
  <outline>
    <contour>
      <point x="303" y="-65" type="curve" smooth="yes"/>
      <point x="749" y="-65" type="line" smooth="yes"/>
      <point x="854" y="-65"/>
      <point x="875" y="-11"/>
      <point x="887" y="163" type="curve"/>
      <point x="807" y="168" type="line"/>
      <point x="800" y="39"/>
      <point x="792" y="17"/>
      <point x="736" y="17" type="curve" smooth="yes"/>
      <point x="321" y="17" type="line" smooth="yes"/>
      <point x="265" y="17"/>
      <point x="254" y="30"/>
      <point x="254" y="80" type="curve" smooth="yes"/>
      <point x="254" y="816" type="line"/>
      <point x="173" y="816" type="line"/>
      <point x="173" y="75" type="line" smooth="yes"/>
      <point x="173" y="-36"/>
      <point x="198" y="-65"/>
    </contour>
  </outline>
</glyph>
<glyph name="uni2E8C" format="2">
  <advance width="1000"/>
  <unicode hex="2E8C"/>
  <outline>
    <contour>
      <point x="264" y="480" type="curve"/>
      <point x="338" y="524" type="line"/>
      <point x="311" y="595"/>
      <point x="255" y="699"/>
      <point x="202" y="776" type="curve"/>
      <point x="132" y="737" type="line"/>
      <point x="183" y="661"/>
      <point x="238" y="553"/>
    </contour>
    <contour>
      <point x="459" y="404" type="line"/>
      <point x="541" y="404" type="line"/>
      <point x="541" y="841" type="line"/>
      <point x="459" y="841" type="line"/>
    </contour>
    <contour>
      <point x="651" y="518" type="curve"/>
      <point x="722" y="480" type="line"/>
      <point x="769" y="547"/>
      <point x="830" y="655"/>
      <point x="875" y="746" type="curve"/>
      <point x="795" y="785" type="line"/>
      <point x="760" y="699"/>
      <point x="699" y="589"/>
    </contour>
  </outline>
</glyph>
<glyph name="uni2E94" format="2">
  <advance width="1000"/>
  <unicode hex="2E94"/>
  <outline>
    <contour>
      <point x="399" y="64" type="curve"/>
      <point x="466" y="22" type="line"/>
      <point x="566" y="88"/>
      <point x="673" y="213"/>
      <point x="673" y="342" type="curve" smooth="yes"/>
      <point x="673" y="427"/>
      <point x="616" y="503"/>
      <point x="503" y="503" type="curve" smooth="yes"/>
      <point x="385" y="503"/>
      <point x="338" y="431"/>
      <point x="338" y="357" type="curve" smooth="yes"/>
      <point x="338" y="278"/>
      <point x="408" y="219"/>
      <point x="546" y="219" type="curve" smooth="yes"/>
      <point x="758" y="219"/>
      <point x="882" y="332"/>
      <point x="882" y="538" type="curve" smooth="yes"/>
      <point x="882" y="689"/>
      <point x="770" y="801"/>
      <point x="555" y="801" type="curve" smooth="yes"/>
      <point x="372" y="801"/>
      <point x="193" y="738"/>
      <point x="100" y="678" type="curve"/>
      <point x="138" y="608" type="line"/>
      <point x="232" y="664"/>
      <point x="399" y="716"/>
      <point x="555" y="716" type="curve" smooth="yes"/>
      <point x="701" y="716"/>
      <point x="791" y="644"/>
      <point x="791" y="538" type="curve" smooth="yes"/>
      <point x="791" y="394"/>
      <point x="712" y="292"/>
      <point x="546" y="292" type="curve" smooth="yes"/>
      <point x="462" y="292"/>
      <point x="426" y="316"/>
      <point x="426" y="357" type="curve" smooth="yes"/>
      <point x="426" y="393"/>
      <point x="449" y="427"/>
      <point x="503" y="427" type="curve" smooth="yes"/>
      <point x="553" y="427"/>
      <point x="584" y="396"/>
      <point x="584" y="342" type="curve" smooth="yes"/>
      <point x="584" y="222"/>
      <point x="505" y="138"/>
    </contour>
  </outline>
</glyph>
<glyph name="uni2E98" format="2">
  <advance width="1000"/>
  <unicode hex="2E98"/>
  <outline>
    <contour>
      <point x="247" y="-77" type="curve" smooth="yes"/>
      <point x="299" y="-77"/>
      <point x="328" y="-54"/>
      <point x="328" y="9" type="curve" smooth="yes"/>
      <point x="328" y="834" type="line"/>
      <point x="249" y="834" type="line"/>
      <point x="249" y="12" type="line" smooth="yes"/>
      <point x="249" y="-2"/>
      <point x="244" y="-10"/>
      <point x="230" y="-10" type="curve" smooth="yes"/>
      <point x="202" y="-10"/>
      <point x="168" y="-3"/>
      <point x="129" y="12" type="curve"/>
      <point x="129" y="-66" type="line"/>
      <point x="167" y="-73"/>
      <point x="206" y="-77"/>
    </contour>
    <contour>
      <point x="66" y="572" type="line"/>
      <point x="484" y="572" type="line"/>
      <point x="484" y="642" type="line"/>
      <point x="66" y="642" type="line"/>
    </contour>
    <contour>
      <point x="496" y="389" type="line"/>
      <point x="466" y="458" type="line"/>
      <point x="44" y="265" type="line"/>
      <point x="76" y="192" type="line"/>
    </contour>
  </outline>
</glyph>
<glyph name="uni2EAD" format="2">
  <advance width="1000"/>
  <unicode hex="2EAD"/>
  <outline>
    <contour>
      <point x="212" y="-61" type="curve" smooth="yes"/>
      <point x="369" y="-61"/>
      <point x="416" y="105"/>
      <point x="416" y="250" type="curve" smooth="yes"/>
      <point x="416" y="487"/>
      <point x="329" y="560"/>
      <point x="74" y="537" type="curve"/>
      <point x="74" y="460" type="line"/>
      <point x="293" y="483"/>
      <point x="335" y="439"/>
      <point x="335" y="242" type="curve" smooth="yes"/>
      <point x="335" y="146"/>
      <point x="307" y="19"/>
      <point x="212" y="19" type="curve" smooth="yes"/>
      <point x="179" y="19"/>
      <point x="144" y="41"/>
      <point x="144" y="86" type="curve" smooth="yes"/>
      <point x="144" y="190"/>
      <point x="261" y="309"/>
      <point x="469" y="392" type="curve"/>
      <point x="441" y="463" type="line"/>
      <point x="214" y="373"/>
      <point x="63" y="215"/>
      <point x="63" y="86" type="curve" smooth="yes"/>
      <point x="63" y="-8"/>
      <point x="133" y="-61"/>
    </contour>
    <contour>
      <point x="358" y="607" type="curve"/>
      <point x="394" y="676" type="line"/>
      <point x="293" y="722"/>
      <point x="210" y="754"/>
      <point x="115" y="783" type="curve"/>
      <point x="93" y="715" type="line"/>
      <point x="185" y="687"/>
      <point x="262" y="654"/>
    </contour>
  </outline>
</glyph>
<glyph name="uni2EC4" format="2">
  <advance width="1000"/>
  <unicode hex="2EC4"/>
  <outline>
    <contour>
      <point x="207" y="-27" type="curve" smooth="yes"/>
      <point x="581" y="-27" type="line"/>
      <point x="581" y="48" type="line"/>
      <point x="219" y="48" type="line" smooth="yes"/>
      <point x="190" y="48"/>
      <point x="171" y="69"/>
      <point x="171" y="101" type="curve" smooth="yes"/>
      <point x="171" y="222" type="line" smooth="yes"/>
      <point x="171" y="432"/>
      <point x="360" y="578"/>
      <point x="541" y="713" type="curve"/>
      <point x="465" y="746" type="line"/>
      <point x="277" y="603"/>
      <point x="94" y="452"/>
      <point x="94" y="221" type="curve" smooth="yes"/>
      <point x="94" y="87" type="line" smooth="yes"/>
      <point x="94" y="22"/>
      <point x="142" y="-27"/>
    </contour>
    <contour>
      <point x="379" y="147" type="curve"/>
      <point x="444" y="161" type="line"/>
      <point x="405" y="243"/>
      <point x="390" y="369"/>
      <point x="399" y="499" type="curve"/>
      <point x="322" y="499" type="line"/>
      <point x="308" y="363"/>
      <point x="334" y="228"/>
    </contour>
    <contour>
      <point x="808" y="-42" type="curve" smooth="yes"/>
      <point x="881" y="-42"/>
      <point x="934" y="15"/>
      <point x="934" y="242" type="curve" smooth="yes"/>
      <point x="934" y="437"/>
      <point x="808" y="459"/>
      <point x="578" y="459" type="curve" smooth="yes"/>
      <point x="490" y="459"/>
      <point x="411" y="443"/>
      <point x="345" y="416" type="curve"/>
      <point x="367" y="350" type="line"/>
      <point x="422" y="370"/>
      <point x="491" y="382"/>
      <point x="580" y="382" type="curve" smooth="yes"/>
      <point x="779" y="382"/>
      <point x="855" y="365"/>
      <point x="855" y="242" type="curve" smooth="yes"/>
      <point x="855" y="74"/>
      <point x="827" y="39"/>
      <point x="799" y="39" type="curve" smooth="yes"/>
      <point x="757" y="39"/>
      <point x="715" y="46"/>
      <point x="674" y="61" type="curve"/>
      <point x="674" y="-28" type="line"/>
      <point x="714" y="-37"/>
      <point x="758" y="-42"/>
    </contour>
    <contour>
      <point x="482" y="34" type="curve"/>
      <point x="534" y="19" type="line"/>
      <point x="681" y="131"/>
      <point x="725" y="373"/>
      <point x="663" y="622" type="curve"/>
      <point x="586" y="617" type="line"/>
      <point x="644" y="372"/>
      <point x="595" y="143"/>
    </contour>
    <contour>
      <point x="108" y="697" type="line"/>
      <point x="895" y="697" type="line"/>
      <point x="895" y="774" type="line"/>
      <point x="108" y="774" type="line"/>
    </contour>
  </outline>
</glyph>
<glyph name="uni2ED6" format="2">
  <advance width="1000"/>
  <unicode hex="2ED6"/>
  <outline>
    <contour>
      <point x="174" y="-79" type="line"/>
      <point x="258" y="-79" type="line"/>
      <point x="258" y="681" type="line"/>
      <point x="381" y="681" type="line"/>
      <point x="381" y="765" type="line"/>
      <point x="42" y="765" type="line"/>
      <point x="42" y="681" type="line"/>
      <point x="174" y="681" type="line"/>
    </contour>
  </outline>
</glyph>
<glyph name="uni2ED7" format="2">
  <advance width="1000"/>
  <unicode hex="2ED7"/>
  <outline>
    <contour>
      <point x="794" y="398" type="curve"/>
      <point x="857" y="348" type="line"/>
      <point x="899" y="384"/>
      <point x="932" y="430"/>
      <point x="932" y="498" type="curve" smooth="yes"/>
      <point x="932" y="592"/>
      <point x="843" y="658"/>
      <point x="583" y="658" type="curve" smooth="yes"/>
      <point x="406" y="658"/>
      <point x="263" y="624"/>
      <point x="153" y="559" type="curve"/>
      <point x="153" y="635" type="line"/>
      <point x="77" y="635" type="line"/>
      <point x="77" y="370" type="line"/>
      <point x="153" y="370" type="line"/>
      <point x="153" y="501" type="line"/>
      <point x="267" y="552"/>
      <point x="418" y="582"/>
      <point x="582" y="582" type="curve" smooth="yes"/>
      <point x="798" y="582"/>
      <point x="850" y="535"/>
      <point x="850" y="498" type="curve" smooth="yes"/>
      <point x="850" y="461"/>
      <point x="833" y="428"/>
    </contour>
    <contour>
      <point x="461" y="459" type="line"/>
      <point x="540" y="459" type="line"/>
      <point x="540" y="747" type="line"/>
      <point x="461" y="747" type="line"/>
    </contour>
    <contour>
      <point x="703" y="487" type="line"/>
      <point x="298" y="486" type="line"/>
      <point x="298" y="411" type="line"/>
      <point x="703" y="411" type="line"/>
    </contour>
    <contour>
      <point x="823" y="787" type="line"/>
      <point x="168" y="786" type="line"/>
      <point x="168" y="711" type="line"/>
      <point x="823" y="711" type="line"/>
    </contour>
  </outline>
</glyph>
<glyph name="uni2F02" format="2">
  <advance width="1000"/>
  <unicode hex="2F02"/>
  <outline>
    <contour>
      <point x="629" y="180" type="curve"/>
      <point x="700" y="246" type="line"/>
      <point x="603" y="358"/>
      <point x="491" y="468"/>
      <point x="361" y="580" type="curve"/>
      <point x="300" y="519" type="line"/>
      <point x="426" y="406"/>
      <point x="535" y="291"/>
    </contour>
  </outline>
</glyph>
<glyph name="uni2F0F" format="2">
  <advance width="1000"/>
  <unicode hex="2F0F"/>
  <outline>
    <contour>
      <point x="60" y="-19" type="curve"/>
      <point x="118" y="-78" type="line"/>
      <point x="314" y="75"/>
      <point x="336" y="289"/>
      <point x="336" y="475" type="curve" smooth="yes"/>
      <point x="336" y="707" type="line"/>
      <point x="644" y="707" type="line"/>
      <point x="644" y="69" type="line" smooth="yes"/>
      <point x="644" y="-30"/>
      <point x="669" y="-58"/>
      <point x="739" y="-58" type="curve" smooth="yes"/>
      <point x="836" y="-58" type="line" smooth="yes"/>
      <point x="921" y="-58"/>
      <point x="939" y="-21"/>
      <point x="945" y="151" type="curve"/>
      <point x="870" y="166" type="line"/>
      <point x="866" y="24"/>
      <point x="857" y="16"/>
      <point x="832" y="16" type="curve" smooth="yes"/>
      <point x="758" y="16" type="line" smooth="yes"/>
      <point x="736" y="16"/>
      <point x="727" y="27"/>
      <point x="727" y="67" type="curve" smooth="yes"/>
      <point x="727" y="786" type="line"/>
      <point x="256" y="786" type="line"/>
      <point x="256" y="481" type="line" smooth="yes"/>
      <point x="256" y="312"/>
      <point x="241" y="129"/>
    </contour>
  </outline>
</glyph>
<glyph name="uni2F12" format="2">
  <advance width="1000"/>
  <unicode hex="2F12"/>
  <outline>
    <contour>
      <point x="689" y="-64" type="curve" smooth="yes"/>
      <point x="868" y="-64"/>
      <point x="905" y="136"/>
      <point x="905" y="355" type="curve" smooth="yes"/>
      <point x="905" y="515"/>
      <point x="811" y="604"/>
      <point x="634" y="604" type="curve" smooth="yes"/>
      <point x="446" y="604"/>
      <point x="277" y="576"/>
      <point x="98" y="531" type="curve"/>
      <point x="116" y="452" type="line"/>
      <point x="292" y="497"/>
      <point x="461" y="525"/>
      <point x="629" y="525" type="curve" smooth="yes"/>
      <point x="779" y="525"/>
      <point x="817" y="455"/>
      <point x="817" y="345" type="curve" smooth="yes"/>
      <point x="817" y="193"/>
      <point x="794" y="10"/>
      <point x="682" y="10" type="curve" smooth="yes"/>
      <point x="627" y="10"/>
      <point x="569" y="20"/>
      <point x="507" y="39" type="curve"/>
      <point x="507" y="-46" type="line"/>
      <point x="567" y="-59"/>
      <point x="622" y="-64"/>
    </contour>
    <contour>
      <point x="53" y="-17" type="curve"/>
      <point x="111" y="-76" type="line"/>
      <point x="402" y="101"/>
      <point x="512" y="354"/>
      <point x="573" y="834" type="curve"/>
      <point x="490" y="844" type="line"/>
      <point x="429" y="364"/>
      <point x="325" y="145"/>
    </contour>
  </outline>
</glyph>
<glyph name="uni2F14" format="2">
  <advance width="1000"/>
  <unicode hex="2F14"/>
  <outline>
    <contour>
      <point x="172" y="372" type="curve"/>
      <point x="235" y="299" type="line"/>
      <point x="467" y="395"/>
      <point x="688" y="508"/>
      <point x="868" y="625" type="curve"/>
      <point x="803" y="684" type="line"/>
      <point x="625" y="569"/>
      <point x="408" y="462"/>
    </contour>
    <contour>
      <point x="293" y="-65" type="curve" smooth="yes"/>
      <point x="762" y="-65" type="line" smooth="yes"/>
      <point x="868" y="-65"/>
      <point x="889" y="-11"/>
      <point x="901" y="163" type="curve"/>
      <point x="820" y="178" type="line"/>
      <point x="813" y="40"/>
      <point x="805" y="18"/>
      <point x="749" y="18" type="curve" smooth="yes"/>
      <point x="311" y="18" type="line" smooth="yes"/>
      <point x="255" y="18"/>
      <point x="243" y="31"/>
      <point x="243" y="81" type="curve" smooth="yes"/>
      <point x="243" y="816" type="line"/>
      <point x="162" y="816" type="line"/>
      <point x="162" y="75" type="line" smooth="yes"/>
      <point x="162" y="-36"/>
      <point x="187" y="-65"/>
    </contour>
  </outline>
</glyph>
<glyph name="uni2F1D" format="2">
  <advance width="1000"/>
  <unicode hex="2F1D"/>
  <outline>
    <contour>
      <point x="602" y="85" type="curve"/>
      <point x="650" y="43" type="line"/>
      <point x="755" y="114"/>
      <point x="885" y="243"/>
      <point x="885" y="440" type="curve" smooth="yes"/>
      <point x="885" y="638"/>
      <point x="782" y="751"/>
      <point x="577" y="751" type="curve" smooth="yes"/>
      <point x="367" y="751"/>
      <point x="241" y="675"/>
      <point x="144" y="569" type="curve"/>
      <point x="197" y="521" type="line"/>
      <point x="292" y="625"/>
      <point x="413" y="669"/>
      <point x="577" y="669" type="curve" smooth="yes"/>
      <point x="736" y="669"/>
      <point x="804" y="560"/>
      <point x="804" y="440" type="curve" smooth="yes"/>
      <point x="804" y="297"/>
      <point x="731" y="188"/>
    </contour>
    <contour>
      <point x="208" y="-29" type="line"/>
      <point x="208" y="724" type="line"/>
      <point x="127" y="724" type="line"/>
      <point x="127" y="-29" type="line"/>
    </contour>
    <contour>
      <point x="902" y="100" type="line"/>
      <point x="354" y="100" type="line"/>
      <point x="354" y="20" type="line"/>
      <point x="902" y="20" type="line"/>
    </contour>
  </outline>
</glyph>
<glyph name="uni2F23" format="2">
  <advance width="1000"/>
  <unicode hex="2F23"/>
  <outline>
    <contour>
      <point x="138" y="-6" type="curve"/>
      <point x="181" y="-84" type="line"/>
      <point x="557" y="26"/>
      <point x="773" y="224"/>
      <point x="886" y="639" type="curve"/>
      <point x="824" y="671" type="line"/>
      <point x="798" y="656" type="line"/>
      <point x="359" y="656" type="line"/>
      <point x="359" y="581" type="line"/>
      <point x="783" y="581" type="line"/>
      <point x="672" y="233"/>
      <point x="472" y="83"/>
    </contour>
    <contour>
      <point x="619" y="213" type="curve"/>
      <point x="673" y="279" type="line"/>
      <point x="581" y="340"/>
      <point x="486" y="392"/>
      <point x="383" y="442" type="curve"/>
      <point x="346" y="377" type="line"/>
      <point x="446" y="325"/>
      <point x="536" y="271"/>
    </contour>
    <contour>
      <point x="135" y="374" type="curve"/>
      <point x="203" y="321" type="line"/>
      <point x="325" y="469"/>
      <point x="419" y="653"/>
      <point x="481" y="824" type="curve"/>
      <point x="403" y="845" type="line"/>
      <point x="344" y="669"/>
      <point x="250" y="504"/>
    </contour>
  </outline>
</glyph>
<glyph name="uni2F29" format="2">
  <advance width="1000"/>
  <unicode hex="2F29"/>
  <outline>
    <contour>
      <point x="449" y="-76" type="curve" smooth="yes"/>
      <point x="509" y="-75"/>
      <point x="548" y="-42"/>
      <point x="548" y="28" type="curve" smooth="yes"/>
      <point x="548" y="827" type="line"/>
      <point x="468" y="827" type="line"/>
      <point x="468" y="35" type="line" smooth="yes"/>
      <point x="468" y="16"/>
      <point x="455" y="2"/>
      <point x="433" y="1" type="curve" smooth="yes"/>
      <point x="380" y="-1"/>
      <point x="329" y="6"/>
      <point x="267" y="26" type="curve"/>
      <point x="267" y="-60" type="line"/>
      <point x="326" y="-73"/>
      <point x="383" y="-77"/>
    </contour>
    <contour>
      <point x="42" y="179" type="curve"/>
      <point x="114" y="138" type="line"/>
      <point x="193" y="260"/>
      <point x="252" y="429"/>
      <point x="285" y="576" type="curve"/>
      <point x="201" y="591" type="line"/>
      <point x="176" y="457"/>
      <point x="121" y="295"/>
    </contour>
    <contour>
      <point x="885" y="120" type="curve"/>
      <point x="965" y="152" type="line"/>
      <point x="939" y="272"/>
      <point x="871" y="452"/>
      <point x="777" y="599" type="curve"/>
      <point x="704" y="570" type="line"/>
      <point x="790" y="425"/>
      <point x="862" y="238"/>
    </contour>
  </outline>
</glyph>
<glyph name="uni2F2D" format="2">
  <advance width="1000"/>
  <unicode hex="2F2D"/>
  <outline>
    <contour>
      <point x="709" y="-49" type="curve"/>
      <point x="793" y="-76" type="line"/>
      <point x="850" y="31"/>
      <point x="905" y="152"/>
      <point x="905" y="303" type="curve" smooth="yes"/>
      <point x="905" y="424"/>
      <point x="820" y="512"/>
      <point x="709" y="512" type="curve" smooth="yes"/>
      <point x="618" y="512"/>
      <point x="559" y="486"/>
      <point x="513" y="454" type="curve"/>
      <point x="513" y="829" type="line"/>
      <point x="430" y="829" type="line"/>
      <point x="430" y="410" type="line"/>
      <point x="414" y="391" type="line"/>
      <point x="457" y="329" type="line"/>
      <point x="538" y="396"/>
      <point x="612" y="426"/>
      <point x="702" y="426" type="curve" smooth="yes"/>
      <point x="770" y="426"/>
      <point x="820" y="375"/>
      <point x="820" y="297" type="curve" smooth="yes"/>
      <point x="820" y="180"/>
      <point x="770" y="51"/>
    </contour>
    <contour>
      <point x="255" y="-2" type="curve" smooth="yes"/>
      <point x="397" y="-2"/>
      <point x="493" y="12"/>
      <point x="609" y="75" type="curve"/>
      <point x="569" y="146" type="line"/>
      <point x="472" y="92"/>
      <point x="345" y="81"/>
      <point x="242" y="81" type="curve" smooth="yes"/>
      <point x="204" y="81"/>
      <point x="181" y="107"/>
      <point x="181" y="153" type="curve" smooth="yes"/>
      <point x="181" y="247"/>
      <point x="201" y="369"/>
      <point x="246" y="506" type="curve"/>
      <point x="165" y="526" type="line"/>
      <point x="124" y="386"/>
      <point x="98" y="260"/>
      <point x="98" y="136" type="curve" smooth="yes"/>
      <point x="98" y="47"/>
      <point x="150" y="-2"/>
    </contour>
  </outline>
</glyph>
<glyph name="uni2F38" format="2">
  <advance width="1000"/>
  <unicode hex="2F38"/>
  <outline>
    <contour>
      <point x="329" y="-11" type="curve"/>
      <point x="385" y="-80" type="line"/>
      <point x="672" y="24"/>
      <point x="820" y="131"/>
      <point x="820" y="284" type="curve" smooth="yes"/>
      <point x="820" y="414"/>
      <point x="730" y="486"/>
      <point x="576" y="486" type="curve" smooth="yes"/>
      <point x="489" y="486"/>
      <point x="387" y="475"/>
      <point x="318" y="454" type="curve"/>
      <point x="336" y="371" type="line"/>
      <point x="400" y="392"/>
      <point x="494" y="409"/>
      <point x="576" y="409" type="curve" smooth="yes"/>
      <point x="675" y="409"/>
      <point x="725" y="365"/>
      <point x="725" y="284" type="curve" smooth="yes"/>
      <point x="725" y="148"/>
      <point x="581" y="77"/>
    </contour>
    <contour>
      <point x="431" y="472" type="curve"/>
      <point x="491" y="433" type="line"/>
      <point x="593" y="525"/>
      <point x="692" y="631"/>
      <point x="775" y="737" type="curve"/>
      <point x="689" y="782" type="line"/>
      <point x="677" y="772" type="line"/>
      <point x="216" y="772" type="line"/>
      <point x="216" y="692" type="line"/>
      <point x="629" y="692" type="line"/>
      <point x="583" y="625"/>
      <point x="510" y="539"/>
    </contour>
  </outline>
</glyph>
<glyph name="uni2F3A" format="2">
  <advance width="1000"/>
  <unicode hex="2F3A"/>
  <outline>
    <contour>
      <point x="623" y="253" type="curve"/>
      <point x="669" y="203" type="line"/>
      <point x="863" y="303"/>
      <point x="921" y="353"/>
      <point x="921" y="430" type="curve" smooth="yes"/>
      <point x="921" y="520"/>
      <point x="806" y="562"/>
      <point x="547" y="578" type="curve"/>
      <point x="539" y="505" type="line"/>
      <point x="771" y="490"/>
      <point x="833" y="452"/>
      <point x="833" y="426" type="curve" smooth="yes"/>
      <point x="833" y="390"/>
      <point x="805" y="342"/>
    </contour>
    <contour>
      <point x="559" y="-32" type="curve"/>
      <point x="622" y="-84" type="line"/>
      <point x="762" y="-6"/>
      <point x="883" y="91"/>
      <point x="939" y="157" type="curve"/>
      <point x="892" y="230" type="line"/>
      <point x="865" y="223" type="line"/>
      <point x="776" y="247"/>
      <point x="674" y="266"/>
      <point x="541" y="275" type="curve"/>
      <point x="532" y="199" type="line"/>
      <point x="661" y="191"/>
      <point x="752" y="176"/>
      <point x="822" y="159" type="curve"/>
      <point x="780" y="107"/>
      <point x="689" y="34"/>
    </contour>
    <contour>
      <point x="575" y="554" type="curve"/>
      <point x="626" y="524" type="line"/>
      <point x="722" y="595"/>
      <point x="805" y="688"/>
      <point x="875" y="794" type="curve"/>
      <point x="794" y="828" type="line"/>
      <point x="734" y="722"/>
      <point x="659" y="626"/>
    </contour>
  </outline>
</glyph>
<glyph name="uni2F45" format="2">
  <advance width="1000"/>
  <unicode hex="2F45"/>
  <outline>
    <contour>
      <point x="660" y="-80" type="curve" smooth="yes"/>
      <point x="798" y="-80"/>
      <point x="850" y="16"/>
      <point x="850" y="154" type="curve" smooth="yes"/>
      <point x="850" y="298"/>
      <point x="661" y="582"/>
      <point x="472" y="846" type="curve"/>
      <point x="404" y="803" type="line"/>
      <point x="589" y="548"/>
      <point x="768" y="288"/>
      <point x="768" y="154" type="curve" smooth="yes"/>
      <point x="768" y="41"/>
      <point x="721" y="-7"/>
      <point x="613" y="-7" type="curve" smooth="yes"/>
      <point x="556" y="-7"/>
      <point x="493" y="8"/>
      <point x="434" y="31" type="curve"/>
      <point x="434" y="-51" type="line"/>
      <point x="504" y="-72"/>
      <point x="574" y="-80"/>
    </contour>
    <contour>
      <point x="46" y="-23" type="curve"/>
      <point x="101" y="-82" type="line"/>
      <point x="330" y="83"/>
      <point x="447" y="209"/>
      <point x="532" y="393" type="curve"/>
      <point x="460" y="424" type="line"/>
      <point x="377" y="259"/>
      <point x="267" y="131"/>
    </contour>
    <contour>
      <point x="68" y="541" type="line"/>
      <point x="936" y="541" type="line"/>
      <point x="936" y="620" type="line"/>
      <point x="68" y="620" type="line"/>
    </contour>
  </outline>
</glyph>
<glyph name="uni2F49" format="2">
  <advance width="1000"/>
  <unicode hex="2F49"/>
  <outline>
    <contour>
      <point x="633" y="-78" type="curve" smooth="yes"/>
      <point x="703" y="-78"/>
      <point x="767" y="-36"/>
      <point x="783" y="33" type="curve" smooth="yes"/>
      <point x="819" y="188"/>
      <point x="831" y="431"/>
      <point x="825" y="607" type="curve" smooth="yes"/>
      <point x="820" y="755"/>
      <point x="737" y="808"/>
      <point x="590" y="808" type="curve" smooth="yes"/>
      <point x="491" y="808"/>
      <point x="388" y="794"/>
      <point x="275" y="765" type="curve"/>
      <point x="277" y="686" type="line"/>
      <point x="404" y="719"/>
      <point x="503" y="728"/>
      <point x="591" y="728" type="curve" smooth="yes"/>
      <point x="677" y="728"/>
      <point x="737" y="686"/>
      <point x="740" y="601" type="curve" smooth="yes"/>
      <point x="745" y="460"/>
      <point x="733" y="193"/>
      <point x="705" y="63" type="curve" smooth="yes"/>
      <point x="697" y="24"/>
      <point x="668" y="-1"/>
      <point x="622" y="-1" type="curve" smooth="yes"/>
      <point x="571" y="-1"/>
      <point x="524" y="4"/>
      <point x="469" y="21" type="curve"/>
      <point x="469" y="-65" type="line"/>
      <point x="526" y="-74"/>
      <point x="581" y="-78"/>
    </contour>
    <contour>
      <point x="66" y="-31" type="curve"/>
      <point x="156" y="-58" type="line"/>
      <point x="280" y="222"/>
      <point x="302" y="446"/>
      <point x="310" y="806" type="curve"/>
      <point x="226" y="806" type="line"/>
      <point x="218" y="440"/>
      <point x="205" y="257"/>
    </contour>
    <contour>
      <point x="671" y="252" type="line"/>
      <point x="672" y="327" type="line"/>
      <point x="343" y="331" type="line"/>
      <point x="342" y="256" type="line"/>
    </contour>
    <contour>
      <point x="680" y="468" type="line"/>
      <point x="681" y="544" type="line"/>
      <point x="360" y="548" type="line"/>
      <point x="359" y="471" type="line"/>
    </contour>
  </outline>
</glyph>
<glyph name="uni2F4C" format="2">
  <advance width="1000"/>
  <unicode hex="2F4C"/>
  <outline>
    <contour>
      <point x="234" y="-17" type="curve" smooth="yes"/>
      <point x="590" y="-17" type="line" smooth="yes"/>
      <point x="662" y="-17"/>
      <point x="705" y="17"/>
      <point x="705" y="108" type="curve" smooth="yes"/>
      <point x="705" y="185"/>
      <point x="654" y="287"/>
      <point x="594" y="373" type="curve"/>
      <point x="523" y="342" type="line"/>
      <point x="586" y="253"/>
      <point x="627" y="165"/>
      <point x="627" y="116" type="curve" smooth="yes"/>
      <point x="627" y="84"/>
      <point x="610" y="62"/>
      <point x="579" y="62" type="curve" smooth="yes"/>
      <point x="234" y="62" type="line" smooth="yes"/>
      <point x="195" y="62"/>
      <point x="167" y="76"/>
      <point x="167" y="127" type="curve" smooth="yes"/>
      <point x="167" y="295"/>
      <point x="230" y="530"/>
      <point x="339" y="742" type="curve"/>
      <point x="263" y="771" type="line"/>
      <point x="142" y="550"/>
      <point x="84" y="304"/>
      <point x="84" y="101" type="curve" smooth="yes"/>
      <point x="84" y="1"/>
      <point x="138" y="-17"/>
    </contour>
    <contour>
      <point x="816" y="153" type="curve"/>
      <point x="891" y="132" type="line"/>
      <point x="910" y="202"/>
      <point x="922" y="282"/>
      <point x="922" y="425" type="curve" smooth="yes"/>
      <point x="922" y="553"/>
      <point x="833" y="627"/>
      <point x="719" y="627" type="curve" smooth="yes"/>
      <point x="602" y="627"/>
      <point x="511" y="603"/>
      <point x="424" y="550" type="curve"/>
      <point x="448" y="473" type="line"/>
      <point x="530" y="525"/>
      <point x="627" y="548"/>
      <point x="719" y="548" type="curve" smooth="yes"/>
      <point x="793" y="548"/>
      <point x="845" y="495"/>
      <point x="845" y="411" type="curve" smooth="yes"/>
      <point x="845" y="297"/>
      <point x="834" y="224"/>
    </contour>
  </outline>
</glyph>
<glyph name="uni2F51" format="2">
  <advance width="1000"/>
  <unicode hex="2F51"/>
  <outline>
    <contour>
      <point x="542" y="-61" type="curve" smooth="yes"/>
      <point x="782" y="-61" type="line" smooth="yes"/>
      <point x="885" y="-61"/>
      <point x="905" y="-17"/>
      <point x="917" y="137" type="curve"/>
      <point x="839" y="159" type="line"/>
      <point x="832" y="42"/>
      <point x="824" y="20"/>
      <point x="770" y="20" type="curve" smooth="yes"/>
      <point x="563" y="20" type="line" smooth="yes"/>
      <point x="508" y="20"/>
      <point x="498" y="33"/>
      <point x="498" y="83" type="curve" smooth="yes"/>
      <point x="498" y="732" type="line"/>
      <point x="416" y="732" type="line"/>
      <point x="416" y="79" type="line" smooth="yes"/>
      <point x="416" y="-32"/>
      <point x="440" y="-61"/>
    </contour>
    <contour>
      <point x="91" y="435" type="line"/>
      <point x="871" y="470" type="line"/>
      <point x="868" y="551" type="line"/>
      <point x="88" y="516" type="line"/>
    </contour>
    <contour>
      <point x="110" y="726" type="curve"/>
      <point x="126" y="651" type="line"/>
      <point x="352" y="665"/>
      <point x="624" y="699"/>
      <point x="814" y="749" type="curve"/>
      <point x="776" y="823" type="line"/>
      <point x="612" y="775"/>
      <point x="342" y="742"/>
    </contour>
    <contour>
      <point x="71" y="226" type="line"/>
      <point x="891" y="262" type="line"/>
      <point x="888" y="343" type="line"/>
      <point x="68" y="307" type="line"/>
    </contour>
  </outline>
</glyph>
<glyph name="uni2F54" format="2">
  <advance width="1000"/>
  <unicode hex="2F54"/>
  <outline>
    <contour>
      <point x="261" y="-68" type="curve" smooth="yes"/>
      <point x="400" y="-68"/>
      <point x="524" y="68"/>
      <point x="524" y="238" type="curve" smooth="yes"/>
      <point x="524" y="369"/>
      <point x="493" y="506"/>
      <point x="320" y="651" type="curve"/>
      <point x="252" y="606" type="line"/>
      <point x="412" y="460"/>
      <point x="443" y="330"/>
      <point x="443" y="251" type="curve" smooth="yes"/>
      <point x="443" y="118"/>
      <point x="350" y="17"/>
      <point x="259" y="18" type="curve" smooth="yes"/>
      <point x="184" y="19"/>
      <point x="137" y="72"/>
      <point x="137" y="126" type="curve" smooth="yes"/>
      <point x="137" y="319"/>
      <point x="548" y="399"/>
      <point x="733" y="391" type="curve"/>
      <point x="733" y="49" type="line"/>
      <point x="597" y="49" type="line"/>
      <point x="597" y="-30" type="line"/>
      <point x="953" y="-33" type="line"/>
      <point x="953" y="49" type="line"/>
      <point x="817" y="49" type="line"/>
      <point x="817" y="460" type="line"/>
      <point x="755" y="495" type="line"/>
      <point x="737" y="476" type="line"/>
      <point x="488" y="477"/>
      <point x="59" y="400"/>
      <point x="59" y="131" type="curve" smooth="yes"/>
      <point x="59" y="13"/>
      <point x="126" y="-68"/>
    </contour>
    <contour>
      <point x="137" y="625" type="curve"/>
      <point x="169" y="550" type="line"/>
      <point x="352" y="603"/>
      <point x="531" y="678"/>
      <point x="707" y="774" type="curve"/>
      <point x="641" y="840" type="line"/>
      <point x="502" y="762"/>
      <point x="304" y="674"/>
    </contour>
  </outline>
</glyph>
<glyph name="uni2F58" format="2">
  <advance width="1000"/>
  <unicode hex="2F58"/>
  <outline>
    <contour>
      <point x="273" y="-82" type="curve" smooth="yes"/>
      <point x="521" y="-82"/>
      <point x="653" y="136"/>
      <point x="763" y="420" type="curve"/>
      <point x="685" y="446" type="line"/>
      <point x="602" y="211"/>
      <point x="471" y="-3"/>
      <point x="273" y="-3" type="curve" smooth="yes"/>
      <point x="200" y="-3"/>
      <point x="146" y="57"/>
      <point x="146" y="141" type="curve" smooth="yes"/>
      <point x="146" y="242"/>
      <point x="200" y="299"/>
      <point x="309" y="299" type="curve" smooth="yes"/>
      <point x="488" y="299"/>
      <point x="624" y="38"/>
      <point x="914" y="-80" type="curve"/>
      <point x="954" y="-7" type="line"/>
      <point x="653" y="111"/>
      <point x="545" y="378"/>
      <point x="309" y="378" type="curve" smooth="yes"/>
      <point x="170" y="378"/>
      <point x="66" y="301"/>
      <point x="66" y="141" type="curve" smooth="yes"/>
      <point x="66" y="12"/>
      <point x="146" y="-82"/>
    </contour>
    <contour>
      <point x="68" y="504" type="curve"/>
      <point x="108" y="423" type="line"/>
      <point x="368" y="485"/>
      <point x="622" y="584"/>
      <point x="833" y="785" type="curve"/>
      <point x="761" y="840" type="line"/>
      <point x="558" y="639"/>
      <point x="324" y="563"/>
    </contour>
    <contour>
      <point x="832" y="422" type="curve"/>
      <point x="886" y="492" type="line"/>
      <point x="680" y="619"/>
      <point x="368" y="740"/>
      <point x="157" y="797" type="curve"/>
      <point x="111" y="733" type="line"/>
      <point x="327" y="672"/>
      <point x="632" y="552"/>
    </contour>
  </outline>
</glyph>
<glyph name="uni2F65" format="2">
  <advance width="1000"/>
  <unicode hex="2F65"/>
  <outline>
    <contour>
      <point x="114" y="-31" type="line"/>
      <point x="192" y="-31" type="line"/>
      <point x="192" y="509" type="line"/>
      <point x="287" y="599"/>
      <point x="380" y="648"/>
      <point x="567" y="648" type="curve" smooth="yes"/>
      <point x="775" y="648"/>
      <point x="823" y="512"/>
      <point x="823" y="376" type="curve" smooth="yes"/>
      <point x="823" y="170"/>
      <point x="756" y="83"/>
      <point x="643" y="83" type="curve" smooth="yes"/>
      <point x="508" y="83"/>
      <point x="399" y="93"/>
      <point x="304" y="105" type="curve"/>
      <point x="304" y="19" type="line"/>
      <point x="399" y="9"/>
      <point x="508" y="1"/>
      <point x="643" y="1" type="curve" smooth="yes"/>
      <point x="828" y="1"/>
      <point x="901" y="148"/>
      <point x="901" y="376" type="curve" smooth="yes"/>
      <point x="901" y="558"/>
      <point x="846" y="734"/>
      <point x="567" y="734" type="curve" smooth="yes"/>
      <point x="363" y="734"/>
      <point x="249" y="656"/>
      <point x="192" y="590" type="curve"/>
      <point x="192" y="724" type="line"/>
      <point x="114" y="724" type="line"/>
    </contour>
    <contour>
      <point x="536" y="52" type="line"/>
      <point x="536" y="696" type="line"/>
      <point x="458" y="696" type="line"/>
      <point x="458" y="52" type="line"/>
    </contour>
    <contour>
      <point x="294" y="337" type="line"/>
      <point x="700" y="337" type="line"/>
      <point x="700" y="415" type="line"/>
      <point x="294" y="415" type="line"/>
    </contour>
  </outline>
</glyph>
<glyph name="uni2F70" format="2">
  <advance width="1000"/>
  <unicode hex="2F70"/>
  <outline>
    <contour>
      <point x="349" y="802" type="curve"/>
      <point x="322" y="725" type="line"/>
      <point x="433" y="697"/>
      <point x="549" y="661"/>
      <point x="644" y="621" type="curve"/>
      <point x="678" y="706" type="line"/>
      <point x="580" y="741"/>
      <point x="464" y="775"/>
    </contour>
    <contour>
      <point x="467" y="-73" type="curve" smooth="yes"/>
      <point x="541" y="-73"/>
      <point x="594" y="22"/>
      <point x="594" y="195" type="curve" smooth="yes"/>
      <point x="594" y="335"/>
      <point x="560" y="444"/>
      <point x="498" y="541" type="curve"/>
      <point x="430" y="501" type="line"/>
      <point x="484" y="397"/>
      <point x="510" y="303"/>
      <point x="510" y="195" type="curve" smooth="yes"/>
      <point x="510" y="73"/>
      <point x="485" y="4"/>
      <point x="455" y="4" type="curve" smooth="yes"/>
      <point x="430" y="4"/>
      <point x="379" y="12"/>
      <point x="323" y="32" type="curve"/>
      <point x="323" y="-51" type="line"/>
      <point x="371" y="-67"/>
      <point x="419" y="-73"/>
    </contour>
    <contour>
      <point x="56" y="144" type="curve"/>
      <point x="121" y="93" type="line"/>
      <point x="184" y="191"/>
      <point x="248" y="345"/>
      <point x="286" y="475" type="curve"/>
      <point x="203" y="497" type="line"/>
      <point x="173" y="379"/>
      <point x="117" y="238"/>
    </contour>
    <contour>
      <point x="877" y="84" type="curve"/>
      <point x="958" y="118" type="line"/>
      <point x="924" y="224"/>
      <point x="855" y="382"/>
      <point x="779" y="508" type="curve"/>
      <point x="704" y="468" type="line"/>
      <point x="778" y="340"/>
      <point x="846" y="188"/>
    </contour>
  </outline>
</glyph>
<glyph name="uni2F73" format="2">
  <advance width="1000"/>
  <unicode hex="2F73"/>
  <outline>
    <contour>
      <point x="801" y="445" type="curve"/>
      <point x="854" y="388" type="line"/>
      <point x="896" y="424"/>
      <point x="932" y="470"/>
      <point x="932" y="538" type="curve" smooth="yes"/>
      <point x="932" y="632"/>
      <point x="843" y="698"/>
      <point x="583" y="698" type="curve" smooth="yes"/>
      <point x="406" y="698"/>
      <point x="263" y="664"/>
      <point x="153" y="599" type="curve"/>
      <point x="153" y="675" type="line"/>
      <point x="77" y="675" type="line"/>
      <point x="77" y="410" type="line"/>
      <point x="153" y="410" type="line"/>
      <point x="153" y="541" type="line"/>
      <point x="267" y="592"/>
      <point x="418" y="622"/>
      <point x="582" y="622" type="curve" smooth="yes"/>
      <point x="798" y="622"/>
      <point x="850" y="575"/>
      <point x="850" y="538" type="curve" smooth="yes"/>
      <point x="850" y="504"/>
      <point x="835" y="473"/>
    </contour>
    <contour>
      <point x="258" y="301" type="line"/>
      <point x="743" y="301" type="line"/>
      <point x="743" y="377" type="line"/>
      <point x="540" y="376" type="line"/>
      <point x="540" y="837" type="line"/>
      <point x="461" y="837" type="line"/>
      <point x="461" y="376" type="line"/>
      <point x="258" y="376" type="line"/>
    </contour>
  </outline>
</glyph>
<glyph name="uni2F7F" format="2">
  <advance width="1000"/>
  <unicode hex="2F7F"/>
  <outline>
    <contour>
      <point x="63" y="778" type="line"/>
      <point x="63" y="698" type="line"/>
      <point x="506" y="698" type="line"/>
      <point x="506" y="778" type="line"/>
    </contour>
    <contour>
      <point x="352" y="735" type="line"/>
      <point x="352" y="-56" type="line"/>
      <point x="432" y="-56" type="line"/>
      <point x="432" y="735" type="line"/>
    </contour>
    <contour>
      <point x="129" y="547" type="line"/>
      <point x="129" y="213" type="line"/>
      <point x="209" y="213" type="line"/>
      <point x="209" y="547" type="line"/>
    </contour>
    <contour>
      <point x="81" y="220" type="line"/>
      <point x="102" y="142" type="line"/>
      <point x="408" y="232" type="line"/>
      <point x="387" y="310" type="line"/>
    </contour>
  </outline>
</glyph>
<glyph name="uni2F80" format="2">
  <advance width="1000"/>
  <unicode hex="2F80"/>
  <outline>
    <contour>
      <point x="163" y="416" type="line"/>
      <point x="342" y="494" type="line"/>
      <point x="305" y="559" type="line"/>
      <point x="126" y="482" type="line"/>
    </contour>
    <contour>
      <point x="514" y="513" type="curve"/>
      <point x="514" y="432" type="line"/>
      <point x="797" y="414"/>
      <point x="887" y="486"/>
      <point x="887" y="582" type="curve" smooth="yes"/>
      <point x="887" y="672"/>
      <point x="800" y="732"/>
      <point x="581" y="732" type="curve" smooth="yes"/>
      <point x="389" y="732"/>
      <point x="212" y="688"/>
      <point x="104" y="639" type="curve"/>
      <point x="147" y="568" type="line"/>
      <point x="246" y="615"/>
      <point x="411" y="653"/>
      <point x="581" y="653" type="curve" smooth="yes"/>
      <point x="725" y="653"/>
      <point x="802" y="633"/>
      <point x="802" y="582" type="curve" smooth="yes"/>
      <point x="802" y="522"/>
      <point x="706" y="496"/>
    </contour>
    <contour>
      <point x="140" y="350" type="line"/>
      <point x="140" y="273" type="line"/>
      <point x="860" y="273" type="line"/>
      <point x="860" y="350" type="line"/>
    </contour>
    <contour>
      <point x="108" y="186" type="line"/>
      <point x="108" y="104" type="line"/>
      <point x="892" y="104" type="line"/>
      <point x="892" y="186" type="line"/>
    </contour>
    <contour>
      <point x="455" y="-74" type="curve" smooth="yes"/>
      <point x="515" y="-74"/>
      <point x="549" y="-39"/>
      <point x="549" y="22" type="curve" smooth="yes"/>
      <point x="549" y="829" type="line"/>
      <point x="470" y="829" type="line"/>
      <point x="470" y="36" type="line" smooth="yes"/>
      <point x="470" y="17"/>
      <point x="458" y="1"/>
      <point x="436" y="1" type="curve" smooth="yes"/>
      <point x="383" y="1"/>
      <point x="331" y="11"/>
      <point x="275" y="33" type="curve"/>
      <point x="275" y="-53" type="line"/>
      <point x="333" y="-68"/>
      <point x="385" y="-74"/>
    </contour>
  </outline>
</glyph>
<glyph name="uni2F82" format="2">
  <advance width="1000"/>
  <unicode hex="2F82"/>
  <outline>
    <contour>
      <point x="110" y="673" type="line"/>
      <point x="890" y="673" type="line"/>
      <point x="890" y="752" type="line"/>
      <point x="110" y="752" type="line"/>
    </contour>
    <contour>
      <point x="310" y="165" type="curve"/>
      <point x="390" y="212" type="line"/>
      <point x="351" y="311"/>
      <point x="272" y="458"/>
      <point x="198" y="566" type="curve"/>
      <point x="124" y="526" type="line"/>
      <point x="196" y="420"/>
      <point x="274" y="267"/>
    </contour>
    <contour>
      <point x="606" y="203" type="curve"/>
      <point x="676" y="165" type="line"/>
      <point x="738" y="259"/>
      <point x="820" y="411"/>
      <point x="881" y="539" type="curve"/>
      <point x="800" y="579" type="line"/>
      <point x="753" y="458"/>
      <point x="671" y="303"/>
    </contour>
    <contour>
      <point x="459" y="20" type="line"/>
      <point x="541" y="20" type="line"/>
      <point x="541" y="708" type="line"/>
      <point x="459" y="708" type="line"/>
    </contour>
    <contour>
      <point x="937" y="56" type="line"/>
      <point x="63" y="56" type="line"/>
      <point x="63" y="-23" type="line"/>
      <point x="937" y="-23" type="line"/>
    </contour>
  </outline>
</glyph>
<glyph name="uni2F88" format="2">
  <advance width="1000"/>
  <unicode hex="2F88"/>
  <outline>
    <contour>
      <point x="107" y="641" type="curve"/>
      <point x="172" y="603" type="line"/>
      <point x="227" y="667"/>
      <point x="280" y="744"/>
      <point x="323" y="822" type="curve"/>
      <point x="256" y="851" type="line"/>
      <point x="217" y="772"/>
      <point x="164" y="701"/>
    </contour>
    <contour>
      <point x="291" y="-74" type="curve" smooth="yes"/>
      <point x="428" y="-74"/>
      <point x="451" y="155"/>
      <point x="451" y="409" type="curve" smooth="yes"/>
      <point x="451" y="603"/>
      <point x="401" y="681"/>
      <point x="294" y="681" type="curve" smooth="yes"/>
      <point x="203" y="681"/>
      <point x="128" y="663"/>
      <point x="82" y="641" type="curve"/>
      <point x="92" y="570" type="line"/>
      <point x="143" y="592"/>
      <point x="214" y="605"/>
      <point x="294" y="605" type="curve" smooth="yes"/>
      <point x="356" y="605"/>
      <point x="373" y="528"/>
      <point x="373" y="409" type="curve" smooth="yes"/>
      <point x="373" y="172"/>
      <point x="347" y="-3"/>
      <point x="285" y="-3" type="curve" smooth="yes"/>
      <point x="254" y="-3"/>
      <point x="226" y="2"/>
      <point x="193" y="18" type="curve"/>
      <point x="193" y="-62" type="line"/>
      <point x="226" y="-70"/>
      <point x="254" y="-74"/>
    </contour>
    <contour>
      <point x="430" y="411" type="curve"/>
      <point x="400" y="482" type="line"/>
      <point x="214" y="385"/>
      <point x="21" y="275"/>
      <point x="21" y="109" type="curve" smooth="yes"/>
      <point x="21" y="34"/>
      <point x="66" y="5"/>
      <point x="110" y="5" type="curve" smooth="yes"/>
      <point x="225" y="5"/>
      <point x="239" y="221"/>
      <point x="246" y="519" type="curve"/>
      <point x="168" y="521" type="line"/>
      <point x="164" y="250"/>
      <point x="146" y="83"/>
      <point x="114" y="83" type="curve" smooth="yes"/>
      <point x="99" y="83"/>
      <point x="92" y="95"/>
      <point x="92" y="112" type="curve" smooth="yes"/>
      <point x="92" y="211"/>
      <point x="256" y="327"/>
    </contour>
  </outline>
</glyph>
<glyph name="uni2F8B" format="2">
  <advance width="1000"/>
  <unicode hex="2F8B"/>
  <outline>
    <contour>
      <point x="315" y="615" type="curve"/>
      <point x="388" y="643" type="line"/>
      <point x="370" y="690"/>
      <point x="335" y="767"/>
      <point x="298" y="819" type="curve"/>
      <point x="226" y="791" type="line"/>
      <point x="261" y="739"/>
      <point x="295" y="672"/>
    </contour>
    <contour>
      <point x="88" y="534" type="line"/>
      <point x="919" y="534" type="line"/>
      <point x="919" y="612" type="line"/>
      <point x="88" y="612" type="line"/>
    </contour>
    <contour>
      <point x="617" y="618" type="curve"/>
      <point x="679" y="593" type="line"/>
      <point x="724" y="659"/>
      <point x="761" y="731"/>
      <point x="789" y="798" type="curve"/>
      <point x="708" y="824" type="line"/>
      <point x="688" y="759"/>
      <point x="657" y="683"/>
    </contour>
  </outline>
</glyph>
<glyph name="uni2F92" format="2">
  <advance width="1000"/>
  <unicode hex="2F92"/>
  <outline>
    <contour>
      <point x="366" y="417" type="curve"/>
      <point x="366" y="341" type="line"/>
      <point x="708" y="302"/>
      <point x="859" y="377"/>
      <point x="859" y="572" type="curve" smooth="yes"/>
      <point x="859" y="738"/>
      <point x="756" y="809"/>
      <point x="547" y="809" type="curve" smooth="yes"/>
      <point x="364" y="809"/>
      <point x="223" y="718"/>
      <point x="167" y="636" type="curve"/>
      <point x="212" y="582" type="line"/>
      <point x="282" y="678"/>
      <point x="403" y="731"/>
      <point x="547" y="731" type="curve" smooth="yes"/>
      <point x="710" y="731"/>
      <point x="777" y="677"/>
      <point x="777" y="572" type="curve" smooth="yes"/>
      <point x="777" y="415"/>
      <point x="635" y="374"/>
    </contour>
    <contour>
      <point x="55" y="12" type="curve"/>
      <point x="80" y="-66" type="line"/>
      <point x="466" y="0"/>
      <point x="529" y="174"/>
      <point x="529" y="386" type="curve" smooth="yes"/>
      <point x="529" y="596" type="line"/>
      <point x="448" y="596" type="line"/>
      <point x="448" y="388" type="line" smooth="yes"/>
      <point x="448" y="227"/>
      <point x="437" y="75"/>
    </contour>
    <contour>
      <point x="147" y="303" type="line"/>
      <point x="223" y="303" type="line"/>
      <point x="223" y="780" type="line"/>
      <point x="147" y="780" type="line"/>
    </contour>
    <contour>
      <point x="680" y="-65" type="curve" smooth="yes"/>
      <point x="797" y="-65" type="line" smooth="yes"/>
      <point x="920" y="-65"/>
      <point x="937" y="-4"/>
      <point x="949" y="158" type="curve"/>
      <point x="876" y="169" type="line"/>
      <point x="868" y="34"/>
      <point x="859" y="6"/>
      <point x="811" y="6" type="curve" smooth="yes"/>
      <point x="670" y="6" type="line" smooth="yes"/>
      <point x="629" y="6"/>
      <point x="618" y="13"/>
      <point x="618" y="43" type="curve" smooth="yes"/>
      <point x="618" y="253" type="line"/>
      <point x="543" y="253" type="line"/>
      <point x="543" y="23" type="line" smooth="yes"/>
      <point x="543" y="-46"/>
      <point x="580" y="-65"/>
    </contour>
  </outline>
</glyph>
<glyph name="uni2F97" format="2">
  <advance width="1000"/>
  <unicode hex="2F97"/>
  <outline>
    <contour>
      <point x="45" y="122" type="curve"/>
      <point x="84" y="44" type="line"/>
      <point x="122" y="67"/>
      <point x="157" y="98"/>
      <point x="202" y="137" type="curve" smooth="yes"/>
      <point x="219" y="151"/>
      <point x="246" y="152"/>
      <point x="261" y="148" type="curve" smooth="yes"/>
      <point x="278" y="142"/>
      <point x="289" y="116"/>
      <point x="306" y="38" type="curve"/>
      <point x="463" y="157" type="line"/>
      <point x="436" y="202" type="line"/>
      <point x="336" y="150" type="line"/>
      <point x="331" y="182"/>
      <point x="317" y="208"/>
      <point x="279" y="220" type="curve"/>
      <point x="329" y="280"/>
      <point x="372" y="344"/>
      <point x="412" y="415" type="curve"/>
      <point x="355" y="449" type="line"/>
      <point x="268" y="299"/>
      <point x="156" y="183"/>
    </contour>
    <contour>
      <point x="475" y="-70" type="curve" smooth="yes"/>
      <point x="593" y="-70"/>
      <point x="649" y="51"/>
      <point x="646" y="183" type="curve" smooth="yes"/>
      <point x="646" y="317"/>
      <point x="572" y="493"/>
      <point x="461" y="634" type="curve"/>
      <point x="402" y="578" type="line"/>
      <point x="484" y="482"/>
      <point x="567" y="307"/>
      <point x="567" y="182" type="curve" smooth="yes"/>
      <point x="566" y="102"/>
      <point x="546" y="8"/>
      <point x="471" y="8" type="curve" smooth="yes"/>
      <point x="431" y="8"/>
      <point x="393" y="16"/>
      <point x="355" y="33" type="curve"/>
      <point x="355" y="-57" type="line"/>
      <point x="390" y="-67"/>
      <point x="430" y="-70"/>
    </contour>
    <contour>
      <point x="911" y="15" type="curve"/>
      <point x="962" y="84" type="line"/>
      <point x="835" y="169"/>
      <point x="663" y="253"/>
      <point x="454" y="342" type="curve"/>
      <point x="433" y="269" type="line"/>
      <point x="630" y="186"/>
      <point x="791" y="106"/>
    </contour>
    <contour>
      <point x="556" y="368" type="curve"/>
      <point x="580" y="301" type="line"/>
      <point x="694" y="342"/>
      <point x="777" y="374"/>
      <point x="874" y="436" type="curve"/>
      <point x="827" y="502" type="line"/>
      <point x="740" y="444"/>
      <point x="669" y="408"/>
    </contour>
    <contour>
      <point x="105" y="776" type="line"/>
      <point x="105" y="697" type="line"/>
      <point x="895" y="697" type="line"/>
      <point x="895" y="776" type="line"/>
    </contour>
    <contour>
      <point x="548" y="735" type="curve"/>
      <point x="469" y="757" type="line"/>
      <point x="413" y="592"/>
      <point x="281" y="526"/>
      <point x="78" y="445" type="curve"/>
      <point x="111" y="370" type="line"/>
      <point x="329" y="464"/>
      <point x="486" y="545"/>
    </contour>
  </outline>
</glyph>
<glyph name="uni2F99" format="2">
  <advance width="1000"/>
  <unicode hex="2F99"/>
  <outline>
    <contour>
      <point x="144" y="671" type="curve"/>
      <point x="180" y="602" type="line"/>
      <point x="280" y="681"/>
      <point x="383" y="728"/>
      <point x="546" y="728" type="curve" smooth="yes"/>
      <point x="740" y="728"/>
      <point x="798" y="673"/>
      <point x="798" y="570" type="curve" smooth="yes"/>
      <point x="798" y="401"/>
      <point x="591" y="379"/>
      <point x="296" y="426" type="curve"/>
      <point x="296" y="338" type="line"/>
      <point x="626" y="302"/>
      <point x="881" y="323"/>
      <point x="881" y="570" type="curve" smooth="yes"/>
      <point x="881" y="709"/>
      <point x="815" y="812"/>
      <point x="546" y="812" type="curve" smooth="yes"/>
      <point x="351" y="812"/>
      <point x="228" y="748"/>
    </contour>
    <contour>
      <point x="75" y="-9" type="curve"/>
      <point x="124" y="-80" type="line"/>
      <point x="496" y="69"/>
      <point x="553" y="349"/>
      <point x="550" y="575" type="curve"/>
      <point x="470" y="575" type="line"/>
      <point x="469" y="353"/>
      <point x="432" y="127"/>
    </contour>
    <contour>
      <point x="866" y="-81" type="curve"/>
      <point x="930" y="-21" type="line"/>
      <point x="823" y="75"/>
      <point x="688" y="177"/>
      <point x="562" y="262" type="curve"/>
      <point x="510" y="202" type="line"/>
      <point x="631" y="119"/>
      <point x="766" y="15"/>
    </contour>
    <contour>
      <point x="194" y="310" type="line"/>
      <point x="194" y="771" type="line"/>
      <point x="114" y="771" type="line"/>
      <point x="114" y="310" type="line"/>
    </contour>
  </outline>
</glyph>
<glyph name="uni2F9E" format="2">
  <advance width="1000"/>
  <unicode hex="2F9E"/>
  <outline>
    <contour>
      <point x="140" y="413" type="curve"/>
      <point x="175" y="334" type="line"/>
      <point x="206" y="346" type="line"/>
      <point x="855" y="346" type="line"/>
      <point x="855" y="424" type="line"/>
      <point x="251" y="424" type="line"/>
      <point x="338" y="551"/>
      <point x="411" y="680"/>
      <point x="470" y="823" type="curve"/>
      <point x="385" y="845" type="line"/>
      <point x="337" y="712"/>
      <point x="250" y="543"/>
      <point x="190" y="446" type="curve" smooth="yes"/>
      <point x="179" y="428"/>
      <point x="162" y="419"/>
    </contour>
    <contour>
      <point x="939" y="125" type="curve"/>
      <point x="959" y="204" type="line"/>
      <point x="738" y="233"/>
      <point x="444" y="234"/>
      <point x="55" y="203" type="curve"/>
      <point x="55" y="131" type="line"/>
      <point x="439" y="159"/>
      <point x="734" y="152"/>
    </contour>
    <contour>
      <point x="577" y="33" type="curve" smooth="yes"/>
      <point x="577" y="558" type="line"/>
      <point x="497" y="558" type="line"/>
      <point x="497" y="38" type="line" smooth="yes"/>
      <point x="497" y="16"/>
      <point x="486" y="6"/>
      <point x="466" y="5" type="curve" smooth="yes"/>
      <point x="437" y="5"/>
      <point x="376" y="12"/>
      <point x="308" y="33" type="curve"/>
      <point x="308" y="-58" type="line"/>
      <point x="366" y="-69"/>
      <point x="418" y="-73"/>
      <point x="477" y="-73" type="curve" smooth="yes"/>
      <point x="553" y="-73"/>
      <point x="577" y="-36"/>
    </contour>
    <contour>
      <point x="79" y="625" type="line"/>
      <point x="922" y="625" type="line"/>
      <point x="922" y="704" type="line"/>
      <point x="79" y="704" type="line"/>
    </contour>
  </outline>
</glyph>
<glyph name="uni2FA8" format="2">
  <advance width="1000"/>
  <unicode hex="2FA8"/>
  <outline>
    <contour>
      <point x="778" y="518" type="curve"/>
      <point x="827" y="447" type="line"/>
      <point x="884" y="486"/>
      <point x="923" y="539"/>
      <point x="923" y="606" type="curve" smooth="yes"/>
      <point x="923" y="717"/>
      <point x="866" y="807"/>
      <point x="622" y="807" type="curve" smooth="yes"/>
      <point x="385" y="807"/>
      <point x="218" y="722"/>
      <point x="70" y="575" type="curve"/>
      <point x="130" y="516" type="line"/>
      <point x="263" y="645"/>
      <point x="417" y="724"/>
      <point x="622" y="724" type="curve" smooth="yes"/>
      <point x="785" y="724"/>
      <point x="840" y="684"/>
      <point x="840" y="606" type="curve" smooth="yes"/>
      <point x="840" y="566"/>
      <point x="815" y="540"/>
    </contour>
  </outline>
</glyph>
<glyph name="uni2FB0" format="2">
  <advance width="1000"/>
  <unicode hex="2FB0"/>
  <outline>
    <contour>
      <point x="51" y="169" type="line"/>
      <point x="70" y="95" type="line"/>
      <point x="485" y="184" type="line"/>
      <point x="466" y="258" type="line"/>
    </contour>
    <contour>
      <point x="274" y="-82" type="curve" smooth="yes"/>
      <point x="324" y="-82"/>
      <point x="349" y="-57"/>
      <point x="349" y="3" type="curve" smooth="yes"/>
      <point x="349" y="525" type="line"/>
      <point x="273" y="525" type="line"/>
      <point x="273" y="4" type="line" smooth="yes"/>
      <point x="273" y="-9"/>
      <point x="267" y="-13"/>
      <point x="251" y="-13" type="curve" smooth="yes"/>
      <point x="226" y="-13"/>
      <point x="195" y="-9"/>
      <point x="154" y="4" type="curve"/>
      <point x="155" y="-71" type="line"/>
      <point x="197" y="-79"/>
      <point x="235" y="-82"/>
    </contour>
    <contour>
      <point x="147" y="587" type="line"/>
      <point x="93" y="437" type="line" smooth="yes"/>
      <point x="88" y="423"/>
      <point x="81" y="415"/>
      <point x="70" y="410" type="curve"/>
      <point x="104" y="340" type="line"/>
      <point x="128" y="347" type="line"/>
      <point x="435" y="347" type="line"/>
      <point x="435" y="420" type="line"/>
      <point x="164" y="420" type="line"/>
      <point x="222" y="587" type="line"/>
      <point x="474" y="587" type="line"/>
      <point x="474" y="660" type="line"/>
      <point x="64" y="660" type="line"/>
      <point x="64" y="587" type="line"/>
    </contour>
    <contour>
      <point x="176" y="659" type="curve"/>
      <point x="246" y="685" type="line"/>
      <point x="232" y="723"/>
      <point x="204" y="783"/>
      <point x="174" y="829" type="curve"/>
      <point x="108" y="802" type="line"/>
      <point x="136" y="756"/>
      <point x="164" y="699"/>
    </contour>
    <contour>
      <point x="299" y="685" type="curve"/>
      <point x="353" y="652" type="line"/>
      <point x="389" y="706"/>
      <point x="417" y="756"/>
      <point x="442" y="810" type="curve"/>
      <point x="368" y="836" type="line"/>
      <point x="351" y="783"/>
      <point x="328" y="732"/>
    </contour>
  </outline>
</glyph>
<glyph name="uni2FB2" format="2">
  <advance width="1000"/>
  <unicode hex="2FB2"/>
  <outline>
    <contour>
      <point x="301" y="792" type="line"/>
      <point x="301" y="51" type="line"/>
      <point x="383" y="51" type="line"/>
      <point x="383" y="792" type="line"/>
    </contour>
    <contour>
      <point x="156" y="225" type="curve"/>
      <point x="229" y="257" type="line"/>
      <point x="216" y="365"/>
      <point x="183" y="516"/>
      <point x="153" y="630" type="curve"/>
      <point x="82" y="606" type="line"/>
      <point x="110" y="496"/>
      <point x="141" y="333"/>
    </contour>
    <contour>
      <point x="531" y="226" type="curve"/>
      <point x="610" y="247" type="line"/>
      <point x="600" y="367"/>
      <point x="574" y="521"/>
      <point x="547" y="652" type="curve"/>
      <point x="471" y="635" type="line"/>
      <point x="496" y="506"/>
      <point x="521" y="344"/>
    </contour>
    <contour>
      <point x="704" y="222" type="curve"/>
      <point x="779" y="186" type="line"/>
      <point x="820" y="311"/>
      <point x="865" y="497"/>
      <point x="895" y="643" type="curve"/>
      <point x="814" y="664" type="line"/>
      <point x="788" y="525"/>
      <point x="744" y="350"/>
    </contour>
    <contour>
      <point x="97" y="71" type="line"/>
      <point x="97" y="-9" type="line"/>
      <point x="903" y="-9" type="line"/>
      <point x="903" y="71" type="line"/>
    </contour>
  </outline>
</glyph>
<glyph name="uni2FB7" format="2">
  <advance width="1000"/>
  <unicode hex="2FB7"/>
  <outline>
    <contour>
      <point x="669" y="247" type="curve" smooth="yes"/>
      <point x="759" y="247"/>
      <point x="790" y="352"/>
      <point x="797" y="532" type="curve"/>
      <point x="735" y="551" type="line"/>
      <point x="715" y="540" type="line"/>
      <point x="260" y="540" type="line"/>
      <point x="260" y="468" type="line"/>
      <point x="709" y="468" type="line"/>
      <point x="709" y="371"/>
      <point x="688" y="316"/>
      <point x="641" y="316" type="curve" smooth="yes"/>
      <point x="561" y="316"/>
      <point x="482" y="327"/>
      <point x="414" y="342" type="curve"/>
      <point x="414" y="268" type="line"/>
      <point x="486" y="255"/>
      <point x="579" y="247"/>
    </contour>
    <contour>
      <point x="200" y="-17" type="curve"/>
      <point x="231" y="-84" type="line"/>
      <point x="567" y="17" type="line"/>
      <point x="553" y="89" type="line"/>
      <point x="319" y="18" type="line"/>
      <point x="319" y="355" type="line"/>
      <point x="241" y="355" type="line"/>
      <point x="241" y="45" type="line" smooth="yes"/>
      <point x="241" y="5"/>
      <point x="218" y="-10"/>
    </contour>
    <contour>
      <point x="851" y="-85" type="curve"/>
      <point x="912" y="-28" type="line"/>
      <point x="840" y="39"/>
      <point x="743" y="123"/>
      <point x="639" y="189" type="curve"/>
      <point x="583" y="137" type="line"/>
      <point x="682" y="73"/>
      <point x="780" y="-16"/>
    </contour>
    <contour>
      <point x="66" y="518" type="curve"/>
      <point x="129" y="479" type="line"/>
      <point x="202" y="588"/>
      <point x="261" y="709"/>
      <point x="300" y="824" type="curve"/>
      <point x="225" y="848" type="line"/>
      <point x="192" y="727"/>
      <point x="135" y="615"/>
    </contour>
    <contour>
      <point x="215" y="651" type="line"/>
      <point x="861" y="651" type="line"/>
      <point x="861" y="723" type="line"/>
      <point x="215" y="723" type="line"/>
    </contour>
  </outline>
</glyph>
<glyph name="uni2FC0" format="2">
  <advance width="1000"/>
  <unicode hex="2FC0"/>
  <outline>
    <contour>
      <point x="95" y="537" type="curve"/>
      <point x="165" y="503" type="line"/>
      <point x="219" y="596"/>
      <point x="266" y="727"/>
      <point x="290" y="831" type="curve"/>
      <point x="215" y="844" type="line"/>
      <point x="190" y="737"/>
      <point x="144" y="617"/>
    </contour>
    <contour>
      <point x="203" y="672" type="line"/>
      <point x="892" y="672" type="line"/>
      <point x="892" y="745" type="line"/>
      <point x="203" y="745" type="line"/>
    </contour>
    <contour>
      <point x="462" y="456" type="curve"/>
      <point x="519" y="413" type="line"/>
      <point x="630" y="459"/>
      <point x="729" y="509"/>
      <point x="797" y="552" type="curve"/>
      <point x="750" y="607" type="line"/>
      <point x="735" y="599" type="line"/>
      <point x="263" y="599" type="line"/>
      <point x="263" y="523" type="line"/>
      <point x="619" y="523" type="line"/>
      <point x="583" y="505"/>
      <point x="528" y="481"/>
    </contour>
    <contour>
      <point x="715" y="-91" type="curve" smooth="yes"/>
      <point x="846" y="-91"/>
      <point x="903" y="26"/>
      <point x="903" y="225" type="curve" smooth="yes"/>
      <point x="903" y="404"/>
      <point x="787" y="470"/>
      <point x="596" y="470" type="curve" smooth="yes"/>
      <point x="421" y="470"/>
      <point x="235" y="420"/>
      <point x="128" y="371" type="curve"/>
      <point x="157" y="298" type="line"/>
      <point x="271" y="344"/>
      <point x="445" y="387"/>
      <point x="596" y="387" type="curve" smooth="yes"/>
      <point x="752" y="387"/>
      <point x="822" y="321"/>
      <point x="822" y="225" type="curve" smooth="yes"/>
      <point x="822" y="72"/>
      <point x="785" y="-7"/>
      <point x="712" y="-7" type="curve" smooth="yes"/>
      <point x="656" y="-7"/>
      <point x="611" y="-1"/>
      <point x="573" y="15" type="curve"/>
      <point x="573" y="-78" type="line"/>
      <point x="609" y="-87"/>
      <point x="649" y="-91"/>
    </contour>
    <contour>
      <point x="243" y="296" type="line"/>
      <point x="243" y="219" type="line"/>
      <point x="711" y="219" type="line"/>
      <point x="711" y="296" type="line"/>
    </contour>
    <contour>
      <point x="229" y="161" type="line"/>
      <point x="229" y="84" type="line"/>
      <point x="724" y="84" type="line"/>
      <point x="724" y="161" type="line"/>
    </contour>
    <contour>
      <point x="442" y="-47" type="curve" smooth="yes"/>
      <point x="498" y="-47"/>
      <point x="528" y="-16"/>
      <point x="528" y="40" type="curve" smooth="yes"/>
      <point x="528" y="354" type="line"/>
      <point x="448" y="354" type="line"/>
      <point x="448" y="47" type="line" smooth="yes"/>
      <point x="448" y="36"/>
      <point x="440" y="28"/>
      <point x="425" y="28" type="curve" smooth="yes"/>
      <point x="392" y="28"/>
      <point x="356" y="31"/>
      <point x="316" y="42" type="curve"/>
      <point x="316" y="-38" type="line"/>
      <point x="357" y="-45"/>
      <point x="394" y="-47"/>
    </contour>
  </outline>
</glyph>
<glyph name="uni2FC2" format="2">
  <advance width="1000"/>
  <unicode hex="2FC2"/>
  <outline>
    <contour>
      <point x="174" y="116" type="curve"/>
      <point x="250" y="116" type="line"/>
      <point x="214" y="417"/>
      <point x="264" y="598"/>
      <point x="428" y="799" type="curve"/>
      <point x="353" y="838" type="line"/>
      <point x="188" y="634"/>
      <point x="129" y="420"/>
    </contour>
    <contour>
      <point x="547" y="173" type="line"/>
      <point x="547" y="631" type="line"/>
      <point x="471" y="631" type="line"/>
      <point x="471" y="173" type="line"/>
    </contour>
    <contour>
      <point x="326" y="366" type="line"/>
      <point x="692" y="366" type="line"/>
      <point x="692" y="439" type="line"/>
      <point x="326" y="439" type="line"/>
    </contour>
    <contour>
      <point x="87" y="28" type="line"/>
      <point x="87" y="-46" type="line"/>
      <point x="913" y="-46" type="line"/>
      <point x="913" y="28" type="line"/>
    </contour>
    <contour>
      <point x="235" y="593" type="curve"/>
      <point x="254" y="512" type="line"/>
      <point x="326" y="552"/>
      <point x="427" y="585"/>
      <point x="568" y="585" type="curve" smooth="yes"/>
      <point x="755" y="585"/>
      <point x="790" y="499"/>
      <point x="790" y="403" type="curve" smooth="yes"/>
      <point x="790" y="260"/>
      <point x="722" y="200"/>
      <point x="627" y="200" type="curve" smooth="yes"/>
      <point x="510" y="200"/>
      <point x="419" y="205"/>
      <point x="343" y="216" type="curve"/>
      <point x="343" y="135" type="line"/>
      <point x="419" y="127"/>
      <point x="510" y="124"/>
      <point x="627" y="124" type="curve" smooth="yes"/>
      <point x="794" y="124"/>
      <point x="870" y="237"/>
      <point x="870" y="403" type="curve" smooth="yes"/>
      <point x="870" y="533"/>
      <point x="826" y="668"/>
      <point x="568" y="668" type="curve" smooth="yes"/>
      <point x="407" y="668"/>
      <point x="304" y="635"/>
    </contour>
  </outline>
</glyph>
<glyph name="uni2FCC" format="2">
  <advance width="1000"/>
  <unicode hex="2FCC"/>
  <outline>
    <contour>
      <point x="122" y="464" type="line"/>
      <point x="196" y="464" type="line"/>
      <point x="196" y="621" type="line"/>
      <point x="289" y="691"/>
      <point x="397" y="733"/>
      <point x="556" y="733" type="curve" smooth="yes"/>
      <point x="716" y="733"/>
      <point x="764" y="694"/>
      <point x="764" y="636" type="curve" smooth="yes"/>
      <point x="764" y="532"/>
      <point x="572" y="525"/>
      <point x="293" y="556" type="curve"/>
      <point x="293" y="476" type="line"/>
      <point x="604" y="452"/>
      <point x="845" y="457"/>
      <point x="845" y="636" type="curve" smooth="yes"/>
      <point x="845" y="735"/>
      <point x="783" y="812"/>
      <point x="556" y="812" type="curve" smooth="yes"/>
      <point x="381" y="812"/>
      <point x="265" y="764"/>
      <point x="196" y="691" type="curve"/>
      <point x="196" y="775" type="line"/>
      <point x="122" y="775" type="line"/>
    </contour>
    <contour>
      <point x="560" y="-65" type="curve" smooth="yes"/>
      <point x="781" y="-65" type="line" smooth="yes"/>
      <point x="876" y="-65"/>
      <point x="895" y="-11"/>
      <point x="905" y="88" type="curve"/>
      <point x="830" y="93" type="line"/>
      <point x="824" y="28"/>
      <point x="817" y="9"/>
      <point x="771" y="9" type="curve" smooth="yes"/>
      <point x="576" y="9" type="line" smooth="yes"/>
      <point x="526" y="9"/>
      <point x="516" y="22"/>
      <point x="516" y="72" type="curve" smooth="yes"/>
      <point x="516" y="643" type="line"/>
      <point x="438" y="643" type="line"/>
      <point x="438" y="75" type="line" smooth="yes"/>
      <point x="438" y="-36"/>
      <point x="462" y="-65"/>
    </contour>
    <contour>
      <point x="586" y="145" type="line"/>
      <point x="874" y="145" type="line"/>
      <point x="874" y="216" type="line"/>
      <point x="763" y="216" type="line"/>
      <point x="763" y="423" type="line"/>
      <point x="688" y="423" type="line"/>
      <point x="688" y="216" type="line"/>
      <point x="586" y="216" type="line"/>
    </contour>
    <contour>
      <point x="236" y="227" type="curve"/>
      <point x="265" y="279"/>
      <point x="295" y="340"/>
      <point x="327" y="409" type="curve"/>
      <point x="262" y="432" type="line"/>
      <point x="199" y="288"/>
      <point x="125" y="181"/>
      <point x="55" y="121" type="curve"/>
      <point x="119" y="75" type="line"/>
      <point x="140" y="101"/>
      <point x="166" y="132"/>
      <point x="185" y="146" type="curve" smooth="yes"/>
      <point x="199" y="156"/>
      <point x="221" y="157"/>
      <point x="234" y="153" type="curve" smooth="yes"/>
      <point x="248" y="149"/>
      <point x="263" y="127"/>
      <point x="273" y="79" type="curve"/>
      <point x="412" y="152" type="line"/>
      <point x="387" y="203" type="line"/>
      <point x="305" y="172" type="line"/>
      <point x="300" y="201"/>
      <point x="275" y="217"/>
    </contour>
  </outline>
</glyph>
<glyph name="uni2FCF" format="2">
  <advance width="1000"/>
  <unicode hex="2FCF"/>
  <outline>
    <contour>
      <point x="210" y="587" type="curve"/>
      <point x="278" y="622" type="line"/>
      <point x="261" y="673"/>
      <point x="216" y="745"/>
      <point x="176" y="799" type="curve"/>
      <point x="110" y="768" type="line"/>
      <point x="147" y="716"/>
      <point x="188" y="638"/>
    </contour>
    <contour>
      <point x="474" y="613" type="curve"/>
      <point x="549" y="639" type="line"/>
      <point x="536" y="696"/>
      <point x="501" y="770"/>
      <point x="465" y="832" type="curve"/>
      <point x="394" y="807" type="line"/>
      <point x="427" y="746"/>
      <point x="460" y="669"/>
    </contour>
    <contour>
      <point x="691" y="611" type="curve"/>
      <point x="759" y="590" type="line"/>
      <point x="801" y="646"/>
      <point x="846" y="723"/>
      <point x="879" y="788" type="curve"/>
      <point x="800" y="819" type="line"/>
      <point x="775" y="754"/>
      <point x="731" y="672"/>
    </contour>
    <contour>
      <point x="36" y="-29" type="curve"/>
      <point x="97" y="-77" type="line"/>
      <point x="213" y="31"/>
      <point x="232" y="194"/>
      <point x="231" y="308" type="curve" smooth="yes"/>
      <point x="229" y="492" type="line"/>
      <point x="744" y="492" type="line"/>
      <point x="746" y="142"/>
      <point x="772" y="-72"/>
      <point x="889" y="-72" type="curve" smooth="yes"/>
      <point x="954" y="-72"/>
      <point x="971" y="-23"/>
      <point x="978" y="108" type="curve"/>
      <point x="913" y="115" type="line"/>
      <point x="911" y="35"/>
      <point x="905" y="3"/>
      <point x="889" y="3" type="curve" smooth="yes"/>
      <point x="833" y="3"/>
      <point x="817" y="250"/>
      <point x="820" y="568" type="curve"/>
      <point x="155" y="568" type="line"/>
      <point x="155" y="308" type="line" smooth="yes"/>
      <point x="155" y="201"/>
      <point x="145" y="73"/>
    </contour>
    <contour>
      <point x="300" y="310" type="line"/>
      <point x="695" y="310" type="line"/>
      <point x="695" y="380" type="line"/>
      <point x="300" y="380" type="line"/>
    </contour>
    <contour>
      <point x="543" y="48" type="curve" smooth="yes"/>
      <point x="543" y="530" type="line"/>
      <point x="467" y="530" type="line"/>
      <point x="469" y="56" type="line" smooth="yes"/>
      <point x="469" y="44"/>
      <point x="464" y="38"/>
      <point x="451" y="38" type="curve" smooth="yes"/>
      <point x="418" y="38"/>
      <point x="382" y="41"/>
      <point x="336" y="51" type="curve"/>
      <point x="336" y="-25" type="line"/>
      <point x="381" y="-31"/>
      <point x="420" y="-34"/>
      <point x="457" y="-34" type="curve" smooth="yes"/>
      <point x="527" y="-34"/>
      <point x="543" y="-8"/>
    </contour>
    <contour>
      <point x="300" y="151" type="line"/>
      <point x="695" y="151" type="line"/>
      <point x="695" y="221" type="line"/>
      <point x="300" y="221" type="line"/>
    </contour>
  </outline>
</glyph>
<glyph name="uni340C" format="2">
  <advance width="1000"/>
  <unicode hex="340C"/>
  <outline>
    <contour>
      <point x="425" y="-62" type="curve" smooth="yes"/>
      <point x="788" y="-62" type="line" smooth="yes"/>
      <point x="892" y="-62"/>
      <point x="919" y="-8"/>
      <point x="932" y="147" type="curve"/>
      <point x="857" y="166" type="line"/>
      <point x="851" y="38"/>
      <point x="838" y="15"/>
      <point x="784" y="15" type="curve" smooth="yes"/>
      <point x="425" y="15" type="line" smooth="yes"/>
      <point x="373" y="15"/>
      <point x="359" y="28"/>
      <point x="359" y="80" type="curve" smooth="yes"/>
      <point x="359" y="570" type="line"/>
      <point x="281" y="570" type="line"/>
      <point x="281" y="82" type="line" smooth="yes"/>
      <point x="281" y="-34"/>
      <point x="315" y="-62"/>
    </contour>
    <contour>
      <point x="574" y="195" type="curve"/>
      <point x="613" y="127" type="line"/>
      <point x="748" y="199"/>
      <point x="807" y="253"/>
      <point x="807" y="366" type="curve" smooth="yes"/>
      <point x="807" y="429"/>
      <point x="751" y="518"/>
      <point x="598" y="519" type="curve" smooth="yes"/>
      <point x="404" y="520"/>
      <point x="223" y="396"/>
      <point x="76" y="256" type="curve"/>
      <point x="120" y="193" type="line"/>
      <point x="265" y="341"/>
      <point x="443" y="443"/>
      <point x="598" y="443" type="curve" smooth="yes"/>
      <point x="698" y="443"/>
      <point x="725" y="402"/>
      <point x="725" y="362" type="curve" smooth="yes"/>
      <point x="725" y="308"/>
      <point x="684" y="248"/>
    </contour>
    <contour>
      <point x="48" y="489" type="curve"/>
      <point x="113" y="446" type="line"/>
      <point x="204" y="548"/>
      <point x="274" y="692"/>
      <point x="315" y="833" type="curve"/>
      <point x="243" y="850" type="line"/>
      <point x="202" y="709"/>
      <point x="131" y="574"/>
    </contour>
    <contour>
      <point x="207" y="636" type="line"/>
      <point x="907" y="636" type="line"/>
      <point x="907" y="713" type="line"/>
      <point x="207" y="713" type="line"/>
    </contour>
  </outline>
</glyph>
<glyph name="uni34B8" format="2">
  <advance width="1000"/>
  <unicode hex="34B8"/>
  <outline>
    <contour>
      <point x="313" y="653" type="curve"/>
      <point x="388" y="681" type="line"/>
      <point x="371" y="718"/>
      <point x="339" y="780"/>
      <point x="304" y="821" type="curve"/>
      <point x="231" y="793" type="line"/>
      <point x="264" y="751"/>
      <point x="294" y="698"/>
    </contour>
    <contour>
      <point x="88" y="591" type="line"/>
      <point x="919" y="591" type="line"/>
      <point x="919" y="667" type="line"/>
      <point x="88" y="667" type="line"/>
    </contour>
    <contour>
      <point x="616" y="662" type="curve"/>
      <point x="682" y="636" type="line"/>
      <point x="723" y="688"/>
      <point x="758" y="745"/>
      <point x="784" y="798" type="curve"/>
      <point x="703" y="824" type="line"/>
      <point x="684" y="774"/>
      <point x="654" y="713"/>
    </contour>
    <contour>
      <point x="45" y="105" type="curve"/>
      <point x="84" y="29" type="line"/>
      <point x="122" y="49"/>
      <point x="157" y="76"/>
      <point x="202" y="109" type="curve" smooth="yes"/>
      <point x="219" y="121"/>
      <point x="246" y="122"/>
      <point x="261" y="119" type="curve" smooth="yes"/>
      <point x="278" y="114"/>
      <point x="289" y="91"/>
      <point x="306" y="24" type="curve"/>
      <point x="458" y="129" type="line"/>
      <point x="431" y="173" type="line"/>
      <point x="336" y="126" type="line"/>
      <point x="331" y="153"/>
      <point x="317" y="174"/>
      <point x="286" y="184" type="curve"/>
      <point x="328" y="233"/>
      <point x="366" y="286"/>
      <point x="401" y="344" type="curve"/>
      <point x="345" y="380" type="line"/>
      <point x="261" y="254"/>
      <point x="153" y="156"/>
    </contour>
    <contour>
      <point x="478" y="-70" type="curve" smooth="yes"/>
      <point x="596" y="-70"/>
      <point x="648" y="35"/>
      <point x="646" y="154" type="curve" smooth="yes"/>
      <point x="646" y="270"/>
      <point x="572" y="422"/>
      <point x="461" y="543" type="curve"/>
      <point x="402" y="489" type="line"/>
      <point x="484" y="408"/>
      <point x="567" y="259"/>
      <point x="566" y="153" type="curve" smooth="yes"/>
      <point x="565" y="82"/>
      <point x="546" y="5"/>
      <point x="474" y="5" type="curve" smooth="yes"/>
      <point x="434" y="5"/>
      <point x="396" y="12"/>
      <point x="358" y="28" type="curve"/>
      <point x="358" y="-58" type="line"/>
      <point x="393" y="-67"/>
      <point x="433" y="-70"/>
    </contour>
    <contour>
      <point x="911" y="4" type="curve"/>
      <point x="962" y="72" type="line"/>
      <point x="835" y="145"/>
      <point x="663" y="217"/>
      <point x="454" y="293" type="curve"/>
      <point x="433" y="222" type="line"/>
      <point x="630" y="151"/>
      <point x="791" y="82"/>
    </contour>
    <contour>
      <point x="556" y="318" type="curve"/>
      <point x="580" y="253" type="line"/>
      <point x="694" y="288"/>
      <point x="777" y="315"/>
      <point x="874" y="368" type="curve"/>
      <point x="827" y="433" type="line"/>
      <point x="740" y="384"/>
      <point x="669" y="353"/>
    </contour>
    <contour>
      <point x="105" y="668" type="line"/>
      <point x="105" y="590" type="line"/>
      <point x="895" y="590" type="line"/>
      <point x="895" y="668" type="line"/>
    </contour>
    <contour>
      <point x="548" y="623" type="curve"/>
      <point x="469" y="650" type="line"/>
      <point x="413" y="508"/>
      <point x="281" y="451"/>
      <point x="78" y="382" type="curve"/>
      <point x="111" y="310" type="line"/>
      <point x="329" y="390"/>
      <point x="486" y="460"/>
    </contour>
  </outline>
</glyph>
<glyph name="uni34DE" format="2">
  <advance width="1000"/>
  <unicode hex="34DE"/>
  <outline>
    <contour>
      <point x="266" y="76" type="curve"/>
      <point x="335" y="64" type="line"/>
      <point x="421" y="147"/>
      <point x="487" y="229"/>
      <point x="487" y="336" type="curve" smooth="yes"/>
      <point x="487" y="428"/>
      <point x="423" y="491"/>
      <point x="292" y="491" type="curve" smooth="yes"/>
      <point x="174" y="491"/>
      <point x="99" y="446"/>
      <point x="99" y="351" type="curve" smooth="yes"/>
      <point x="99" y="269"/>
      <point x="147" y="204"/>
      <point x="246" y="204" type="curve" smooth="yes"/>
      <point x="304" y="204"/>
      <point x="343" y="253"/>
      <point x="343" y="308" type="curve" smooth="yes"/>
      <point x="343" y="841" type="line"/>
      <point x="265" y="841" type="line"/>
      <point x="265" y="359" type="line" smooth="yes"/>
      <point x="265" y="293"/>
      <point x="252" y="276"/>
      <point x="228" y="276" type="curve" smooth="yes"/>
      <point x="211" y="276"/>
      <point x="174" y="302"/>
      <point x="174" y="346" type="curve" smooth="yes"/>
      <point x="174" y="386"/>
      <point x="204" y="418"/>
      <point x="292" y="418" type="curve" smooth="yes"/>
      <point x="369" y="418"/>
      <point x="408" y="371"/>
      <point x="408" y="332" type="curve" smooth="yes"/>
      <point x="408" y="271"/>
      <point x="379" y="197"/>
    </contour>
    <contour>
      <point x="80" y="-66" type="line"/>
      <point x="559" y="115" type="line"/>
      <point x="533" y="190" type="line"/>
      <point x="50" y="16" type="line"/>
    </contour>
    <contour>
      <point x="61" y="601" type="line"/>
      <point x="543" y="601" type="line"/>
      <point x="543" y="682" type="line"/>
      <point x="61" y="682" type="line"/>
    </contour>
    <contour>
      <point x="637" y="-20" type="curve"/>
      <point x="708" y="-87" type="line"/>
      <point x="830" y="32"/>
      <point x="939" y="172"/>
      <point x="941" y="434" type="curve" smooth="yes"/>
      <point x="942" y="581"/>
      <point x="892" y="660"/>
      <point x="779" y="660" type="curve" smooth="yes"/>
      <point x="724" y="660"/>
      <point x="677" y="642"/>
      <point x="635" y="614" type="curve"/>
      <point x="648" y="540" type="line"/>
      <point x="694" y="569"/>
      <point x="736" y="582"/>
      <point x="779" y="582" type="curve" smooth="yes"/>
      <point x="833" y="582"/>
      <point x="862" y="539"/>
      <point x="862" y="434" type="curve" smooth="yes"/>
      <point x="862" y="256"/>
      <point x="764" y="66"/>
    </contour>
    <contour>
      <point x="536" y="424" type="curve"/>
      <point x="602" y="382" type="line"/>
      <point x="671" y="484"/>
      <point x="714" y="636"/>
      <point x="727" y="838" type="curve"/>
      <point x="651" y="840" type="line"/>
      <point x="641" y="660"/>
      <point x="598" y="514"/>
    </contour>
  </outline>
</glyph>
<glyph name="uni3687" format="2">
  <advance width="1000"/>
  <unicode hex="3687"/>
  <outline>
    <contour>
      <point x="911" y="-71" type="curve"/>
      <point x="950" y="7" type="line"/>
      <point x="743" y="55"/>
      <point x="516" y="196"/>
      <point x="342" y="196" type="curve" smooth="yes"/>
      <point x="233" y="196"/>
      <point x="155" y="142"/>
      <point x="155" y="63" type="curve" smooth="yes"/>
      <point x="155" y="-20"/>
      <point x="216" y="-70"/>
      <point x="326" y="-70" type="curve" smooth="yes"/>
      <point x="449" y="-70"/>
      <point x="829" y="72"/>
      <point x="829" y="226" type="curve" smooth="yes"/>
      <point x="829" y="338"/>
      <point x="716" y="369"/>
      <point x="583" y="369" type="curve" smooth="yes"/>
      <point x="494" y="369"/>
      <point x="421" y="357"/>
      <point x="362" y="340" type="curve"/>
      <point x="389" y="361"/>
      <point x="408" y="384"/>
      <point x="430" y="414" type="curve"/>
      <point x="358" y="451" type="line"/>
      <point x="288" y="365"/>
      <point x="191" y="294"/>
      <point x="71" y="237" type="curve"/>
      <point x="116" y="176" type="line"/>
      <point x="177" y="209"/>
      <point x="247" y="248"/>
      <point x="273" y="256" type="curve" smooth="yes"/>
      <point x="365" y="283"/>
      <point x="468" y="295"/>
      <point x="575" y="295" type="curve" smooth="yes"/>
      <point x="668" y="295"/>
      <point x="743" y="275"/>
      <point x="743" y="226" type="curve" smooth="yes"/>
      <point x="743" y="140"/>
      <point x="423" y="7"/>
      <point x="326" y="7" type="curve" smooth="yes"/>
      <point x="267" y="7"/>
      <point x="238" y="22"/>
      <point x="238" y="62" type="curve" smooth="yes"/>
      <point x="238" y="105"/>
      <point x="272" y="120"/>
      <point x="333" y="120" type="curve" smooth="yes"/>
      <point x="484" y="120"/>
      <point x="711" y="-14"/>
    </contour>
    <contour>
      <point x="223" y="445" type="line"/>
      <point x="781" y="445" type="line"/>
      <point x="781" y="517" type="line"/>
      <point x="223" y="517" type="line"/>
    </contour>
    <contour>
      <point x="65" y="568" type="curve"/>
      <point x="105" y="506" type="line"/>
      <point x="367" y="557"/>
      <point x="623" y="634"/>
      <point x="834" y="800" type="curve"/>
      <point x="762" y="840" type="line"/>
      <point x="558" y="675"/>
      <point x="323" y="617"/>
    </contour>
    <contour>
      <point x="833" y="498" type="curve"/>
      <point x="887" y="558" type="line"/>
      <point x="680" y="663"/>
      <point x="367" y="757"/>
      <point x="155" y="805" type="curve"/>
      <point x="108" y="750" type="line"/>
      <point x="326" y="699"/>
      <point x="633" y="605"/>
    </contour>
  </outline>
</glyph>
<glyph name="uni382F" format="2">
  <advance width="1000" height="1000"/>
  <unicode hex="382F"/>
  <unicode hex="53F0"/>
  <note>
cid11920
</note>
  <outline>
    <contour>
      <point x="610" y="-10" type="curve"/>
      <point x="655" y="-81" type="line"/>
      <point x="810" y="-38"/>
      <point x="886" y="44"/>
      <point x="886" y="119" type="curve" smooth="yes"/>
      <point x="886" y="222"/>
      <point x="814" y="270"/>
      <point x="652" y="270" type="curve" smooth="yes"/>
      <point x="520" y="270"/>
      <point x="393" y="216"/>
      <point x="323" y="173" type="curve"/>
      <point x="412" y="288"/>
      <point x="446" y="350"/>
      <point x="476" y="548" type="curve"/>
      <point x="391" y="558" type="line"/>
      <point x="369" y="399"/>
      <point x="339" y="284"/>
      <point x="230" y="148" type="curve" smooth="yes"/>
      <point x="211" y="126"/>
      <point x="170" y="102"/>
      <point x="129" y="71" type="curve"/>
      <point x="192" y="20" type="line"/>
      <point x="347" y="123"/>
      <point x="524" y="191"/>
      <point x="652" y="191" type="curve" smooth="yes"/>
      <point x="742" y="191"/>
      <point x="792" y="165"/>
      <point x="792" y="119" type="curve" smooth="yes"/>
      <point x="792" y="70"/>
      <point x="720" y="10"/>
    </contour>
    <contour>
      <point x="403" y="473" type="curve"/>
      <point x="403" y="392" type="line"/>
      <point x="740" y="355"/>
      <point x="872" y="448"/>
      <point x="872" y="611" type="curve" smooth="yes"/>
      <point x="872" y="747"/>
      <point x="767" y="817"/>
      <point x="552" y="817" type="curve" smooth="yes"/>
      <point x="362" y="817"/>
      <point x="187" y="749"/>
      <point x="109" y="673" type="curve"/>
      <point x="152" y="605" type="line"/>
      <point x="243" y="691"/>
      <point x="382" y="738"/>
      <point x="552" y="738" type="curve" smooth="yes"/>
      <point x="715" y="738"/>
      <point x="783" y="696"/>
      <point x="783" y="611" type="curve" smooth="yes"/>
      <point x="783" y="482"/>
      <point x="674" y="446"/>
    </contour>
  </outline>
</glyph>
<glyph name="uni3886" format="2">
  <advance width="1000"/>
  <unicode hex="3886"/>
  <outline>
    <contour>
      <point x="36" y="-44" type="curve"/>
      <point x="107" y="-78" type="line"/>
      <point x="189" y="75"/>
      <point x="197" y="296"/>
      <point x="197" y="452" type="curve" smooth="yes"/>
      <point x="197" y="656" type="line"/>
      <point x="942" y="656" type="line"/>
      <point x="942" y="729" type="line"/>
      <point x="596" y="729" type="line"/>
      <point x="541" y="848" type="line"/>
      <point x="468" y="828" type="line"/>
      <point x="511" y="729" type="line"/>
      <point x="121" y="729" type="line"/>
      <point x="121" y="452" type="line" smooth="yes"/>
      <point x="121" y="306"/>
      <point x="114" y="102"/>
    </contour>
    <contour>
      <point x="218" y="-52" type="line"/>
      <point x="910" y="-52" type="line"/>
      <point x="910" y="18" type="line"/>
      <point x="218" y="18" type="line"/>
    </contour>
    <contour>
      <point x="443" y="18" type="curve"/>
      <point x="590" y="18" type="line"/>
      <point x="643" y="54"/>
      <point x="666" y="104"/>
      <point x="666" y="167" type="curve" smooth="yes"/>
      <point x="666" y="233"/>
      <point x="617" y="281"/>
      <point x="557" y="281" type="curve" smooth="yes"/>
      <point x="477" y="281"/>
      <point x="420" y="242"/>
      <point x="420" y="179" type="curve" smooth="yes"/>
      <point x="420" y="112"/>
      <point x="477" y="80"/>
      <point x="547" y="80" type="curve" smooth="yes"/>
      <point x="565" y="80"/>
      <point x="580" y="88"/>
      <point x="594" y="97" type="curve"/>
      <point x="571" y="51"/>
      <point x="524" y="32"/>
    </contour>
    <contour>
      <point x="545" y="136" type="curve" smooth="yes"/>
      <point x="513" y="136"/>
      <point x="486" y="152"/>
      <point x="486" y="179" type="curve" smooth="yes"/>
      <point x="486" y="208"/>
      <point x="514" y="226"/>
      <point x="546" y="226" type="curve" smooth="yes"/>
      <point x="573" y="226"/>
      <point x="599" y="207"/>
      <point x="599" y="184" type="curve" smooth="yes"/>
      <point x="599" y="153"/>
      <point x="574" y="136"/>
    </contour>
    <contour>
      <point x="635" y="202" type="line"/>
      <point x="635" y="477" type="line"/>
      <point x="558" y="477" type="line"/>
      <point x="558" y="255" type="line"/>
    </contour>
    <contour>
      <point x="410" y="414" type="curve"/>
      <point x="410" y="345" type="line"/>
      <point x="729" y="335"/>
      <point x="893" y="353"/>
      <point x="893" y="480" type="curve" smooth="yes"/>
      <point x="893" y="554"/>
      <point x="834" y="619"/>
      <point x="634" y="619" type="curve" smooth="yes"/>
      <point x="463" y="619"/>
      <point x="346" y="570"/>
      <point x="246" y="511" type="curve"/>
      <point x="266" y="454" type="line"/>
      <point x="365" y="509"/>
      <point x="503" y="549"/>
      <point x="634" y="549" type="curve" smooth="yes"/>
      <point x="756" y="549"/>
      <point x="812" y="521"/>
      <point x="812" y="480" type="curve" smooth="yes"/>
      <point x="812" y="425"/>
      <point x="693" y="394"/>
    </contour>
  </outline>
</glyph>
<glyph name="uni3951" format="2">
  <advance width="1000"/>
  <unicode hex="3951"/>
  <unicode hex="6182"/>
  <outline>
    <contour>
      <point x="638" y="683" type="curve"/>
      <point x="670" y="749" type="line"/>
      <point x="553" y="788"/>
      <point x="450" y="820"/>
      <point x="357" y="845" type="curve"/>
      <point x="317" y="781" type="line"/>
      <point x="411" y="757"/>
      <point x="518" y="725"/>
    </contour>
    <contour>
      <point x="582" y="470" type="curve" smooth="yes"/>
      <point x="192" y="470"/>
      <point x="76" y="355"/>
      <point x="76" y="280" type="curve" smooth="yes"/>
      <point x="76" y="211"/>
      <point x="130" y="174"/>
      <point x="215" y="174" type="curve" smooth="yes"/>
      <point x="385" y="174"/>
      <point x="569" y="421"/>
      <point x="733" y="635" type="curve"/>
      <point x="676" y="680" type="line"/>
      <point x="651" y="669" type="line"/>
      <point x="135" y="669" type="line"/>
      <point x="135" y="596" type="line"/>
      <point x="620" y="596" type="line"/>
      <point x="505" y="438"/>
      <point x="314" y="241"/>
      <point x="215" y="241" type="curve" smooth="yes"/>
      <point x="172" y="241"/>
      <point x="154" y="253"/>
      <point x="154" y="280" type="curve" smooth="yes"/>
      <point x="154" y="315"/>
      <point x="215" y="399"/>
      <point x="579" y="399" type="curve" smooth="yes"/>
      <point x="709" y="399"/>
      <point x="795" y="357"/>
      <point x="795" y="278" type="curve" smooth="yes"/>
      <point x="795" y="165"/>
      <point x="688" y="132"/>
      <point x="570" y="132" type="curve" smooth="yes"/>
      <point x="510" y="132"/>
      <point x="488" y="157"/>
      <point x="488" y="181" type="curve" smooth="yes"/>
      <point x="488" y="204"/>
      <point x="510" y="222"/>
      <point x="542" y="222" type="curve" smooth="yes"/>
      <point x="574" y="222"/>
      <point x="598" y="205"/>
      <point x="598" y="171" type="curve" smooth="yes"/>
      <point x="598" y="129"/>
      <point x="558" y="51"/>
      <point x="473" y="1" type="curve"/>
      <point x="76" y="1" type="line"/>
      <point x="76" y="-71" type="line"/>
      <point x="918" y="-71" type="line"/>
      <point x="918" y="1" type="line"/>
      <point x="559" y="1" type="line"/>
      <point x="636" y="55"/>
      <point x="668" y="123"/>
      <point x="668" y="170" type="curve" smooth="yes"/>
      <point x="668" y="242"/>
      <point x="616" y="284"/>
      <point x="542" y="284" type="curve" smooth="yes"/>
      <point x="472" y="284"/>
      <point x="420" y="243"/>
      <point x="420" y="181" type="curve" smooth="yes"/>
      <point x="420" y="113"/>
      <point x="462" y="66"/>
      <point x="570" y="66" type="curve" smooth="yes"/>
      <point x="739" y="66"/>
      <point x="877" y="118"/>
      <point x="877" y="278" type="curve" smooth="yes"/>
      <point x="877" y="404"/>
      <point x="771" y="470"/>
    </contour>
  </outline>
</glyph>
<glyph name="uni4343" format="2">
  <advance width="1000"/>
  <unicode hex="4343"/>
  <unicode hex="3E12"/>
  <outline>
    <contour>
      <point x="360" y="-80" type="curve" smooth="yes"/>
      <point x="782" y="-80" type="line" smooth="yes"/>
      <point x="862" y="-80"/>
      <point x="887" y="-33"/>
      <point x="898" y="107" type="curve"/>
      <point x="818" y="119" type="line"/>
      <point x="817" y="38"/>
      <point x="801" y="-5"/>
      <point x="766" y="-5" type="curve" smooth="yes"/>
      <point x="424" y="-5" type="line" smooth="yes"/>
      <point x="393" y="-5"/>
      <point x="384" y="1"/>
      <point x="384" y="10" type="curve" smooth="yes"/>
      <point x="384" y="22"/>
      <point x="409" y="42"/>
      <point x="740" y="240" type="curve"/>
      <point x="690" y="297" type="line"/>
      <point x="654" y="283" type="line"/>
      <point x="549" y="283" type="line"/>
      <point x="764" y="427" type="line"/>
      <point x="705" y="491" type="line"/>
      <point x="679" y="479" type="line"/>
      <point x="292" y="457"/>
      <point x="73" y="376"/>
      <point x="73" y="256" type="curve" smooth="yes"/>
      <point x="73" y="192"/>
      <point x="115" y="160"/>
      <point x="187" y="160" type="curve" smooth="yes"/>
      <point x="324" y="160"/>
      <point x="374" y="247"/>
      <point x="700" y="712" type="curve"/>
      <point x="641" y="764" type="line"/>
      <point x="619" y="752" type="line"/>
      <point x="332" y="752" type="line"/>
      <point x="332" y="679" type="line"/>
      <point x="583" y="679" type="line"/>
      <point x="337" y="316"/>
      <point x="259" y="225"/>
      <point x="187" y="225" type="curve" smooth="yes"/>
      <point x="158" y="225"/>
      <point x="144" y="239"/>
      <point x="144" y="256" type="curve" smooth="yes"/>
      <point x="144" y="322"/>
      <point x="332" y="394"/>
      <point x="621" y="403" type="curve"/>
      <point x="422" y="265" type="line"/>
      <point x="465" y="208" type="line"/>
      <point x="567" y="210" type="line"/>
      <point x="290" y="53"/>
      <point x="271" y="27"/>
      <point x="271" y="-13" type="curve" smooth="yes"/>
      <point x="271" y="-52"/>
      <point x="307" y="-80"/>
    </contour>
    <contour>
      <point x="104" y="513" type="curve"/>
      <point x="165" y="457" type="line"/>
      <point x="283" y="569"/>
      <point x="369" y="693"/>
      <point x="445" y="823" type="curve"/>
      <point x="368" y="850" type="line"/>
      <point x="306" y="729"/>
      <point x="211" y="604"/>
    </contour>
    <contour>
      <point x="889" y="203" type="curve"/>
      <point x="955" y="244" type="line"/>
      <point x="935" y="300"/>
      <point x="894" y="368"/>
      <point x="855" y="418" type="curve"/>
      <point x="794" y="382" type="line"/>
      <point x="832" y="330"/>
      <point x="872" y="259"/>
    </contour>
  </outline>
</glyph>
<glyph name="uni4E01" format="2">
  <advance width="1000" height="1000"/>
  <unicode hex="4E01"/>
  <note>
cid09482
</note>
  <outline>
    <contour>
      <point x="471" y="-61" type="curve" smooth="yes"/>
      <point x="522" y="-60"/>
      <point x="572" y="-48"/>
      <point x="572" y="43" type="curve" smooth="yes"/>
      <point x="572" y="670" type="line"/>
      <point x="928" y="670" type="line"/>
      <point x="928" y="750" type="line"/>
      <point x="72" y="750" type="line"/>
      <point x="72" y="670" type="line"/>
      <point x="486" y="670" type="line"/>
      <point x="486" y="43" type="line" smooth="yes"/>
      <point x="486" y="21"/>
      <point x="477" y="13"/>
      <point x="454" y="13" type="curve" smooth="yes"/>
      <point x="401" y="13"/>
      <point x="346" y="22"/>
      <point x="287" y="35" type="curve"/>
      <point x="287" y="-49" type="line"/>
      <point x="355" y="-58"/>
      <point x="420" y="-62"/>
    </contour>
  </outline>
</glyph>
<glyph name="uni4E03" format="2">
  <advance width="1000"/>
  <unicode hex="4E03"/>
  <outline>
    <contour>
      <point x="542" y="-65" type="curve" smooth="yes"/>
      <point x="782" y="-65" type="line" smooth="yes"/>
      <point x="885" y="-65"/>
      <point x="905" y="-11"/>
      <point x="917" y="163" type="curve"/>
      <point x="839" y="188" type="line"/>
      <point x="832" y="48"/>
      <point x="824" y="16"/>
      <point x="770" y="16" type="curve" smooth="yes"/>
      <point x="563" y="16" type="line" smooth="yes"/>
      <point x="508" y="16"/>
      <point x="498" y="29"/>
      <point x="498" y="79" type="curve" smooth="yes"/>
      <point x="498" y="816" type="line"/>
      <point x="416" y="816" type="line"/>
      <point x="416" y="75" type="line" smooth="yes"/>
      <point x="416" y="-36"/>
      <point x="440" y="-65"/>
    </contour>
    <contour>
      <point x="71" y="386" type="line"/>
      <point x="891" y="432" type="line"/>
      <point x="888" y="511" type="line"/>
      <point x="68" y="465" type="line"/>
    </contour>
  </outline>
</glyph>
<glyph name="uni4E07" format="2">
  <advance width="1000"/>
  <unicode hex="4E07"/>
  <outline>
    <contour>
      <point x="660" y="-70" type="curve" smooth="yes"/>
      <point x="798" y="-70"/>
      <point x="850" y="43"/>
      <point x="850" y="204" type="curve" smooth="yes"/>
      <point x="850" y="319"/>
      <point x="752" y="511"/>
      <point x="625" y="720" type="curve"/>
      <point x="554" y="681" type="line"/>
      <point x="675" y="487"/>
      <point x="768" y="311"/>
      <point x="768" y="204" type="curve" smooth="yes"/>
      <point x="768" y="67"/>
      <point x="723" y="8"/>
      <point x="615" y="8" type="curve" smooth="yes"/>
      <point x="558" y="8"/>
      <point x="493" y="26"/>
      <point x="434" y="54" type="curve"/>
      <point x="434" y="-39" type="line"/>
      <point x="504" y="-63"/>
      <point x="574" y="-70"/>
    </contour>
    <contour>
      <point x="46" y="-11" type="curve"/>
      <point x="101" y="-72" type="line"/>
      <point x="330" y="121"/>
      <point x="447" y="269"/>
      <point x="532" y="484" type="curve"/>
      <point x="460" y="515" type="line"/>
      <point x="377" y="321"/>
      <point x="267" y="169"/>
    </contour>
    <contour>
      <point x="68" y="661" type="line"/>
      <point x="936" y="661" type="line"/>
      <point x="936" y="744" type="line"/>
      <point x="68" y="744" type="line"/>
    </contour>
  </outline>
</glyph>
<glyph name="uni4E0A" format="2">
  <advance width="1000" height="1000"/>
  <unicode hex="4E0A"/>
  <note>
uni4E0A
</note>
  <outline>
    <contour>
      <point x="614" y="361" type="curve"/>
      <point x="685" y="317" type="line"/>
      <point x="780" y="458"/>
      <point x="843" y="578"/>
      <point x="902" y="701" type="curve"/>
      <point x="821" y="738" type="line"/>
      <point x="766" y="611"/>
      <point x="704" y="492"/>
    </contour>
    <contour>
      <point x="157" y="13" type="line"/>
      <point x="843" y="13" type="line"/>
      <point x="843" y="92" type="line"/>
      <point x="157" y="92" type="line"/>
    </contour>
    <contour>
      <point x="313" y="315" type="curve"/>
      <point x="388" y="350" type="line"/>
      <point x="326" y="475"/>
      <point x="251" y="607"/>
      <point x="177" y="721" type="curve"/>
      <point x="99" y="682" type="line"/>
      <point x="175" y="571"/>
      <point x="247" y="447"/>
    </contour>
  </outline>
</glyph>
<glyph name="uni4E19" format="2">
  <advance width="1000"/>
  <unicode hex="4E19"/>
  <outline>
    <contour>
      <point x="109" y="-82" type="line"/>
      <point x="183" y="-82" type="line"/>
      <point x="183" y="468" type="line"/>
      <point x="233" y="494"/>
      <point x="298" y="503"/>
      <point x="401" y="503" type="curve" smooth="yes"/>
      <point x="730" y="503" type="line" smooth="yes"/>
      <point x="793" y="503"/>
      <point x="819" y="475"/>
      <point x="819" y="421" type="curve" smooth="yes"/>
      <point x="819" y="23" type="line" smooth="yes"/>
      <point x="819" y="5"/>
      <point x="811" y="-5"/>
      <point x="791" y="-5" type="curve" smooth="yes"/>
      <point x="751" y="-5"/>
      <point x="703" y="0"/>
      <point x="642" y="17" type="curve"/>
      <point x="642" y="-60" type="line"/>
      <point x="697" y="-70"/>
      <point x="749" y="-73"/>
      <point x="805" y="-73" type="curve" smooth="yes"/>
      <point x="861" y="-73"/>
      <point x="893" y="-43"/>
      <point x="893" y="29" type="curve" smooth="yes"/>
      <point x="893" y="417" type="line" smooth="yes"/>
      <point x="893" y="534"/>
      <point x="839" y="577"/>
      <point x="730" y="577" type="curve" smooth="yes"/>
      <point x="408" y="577" type="line" smooth="yes"/>
      <point x="294" y="577"/>
      <point x="230" y="559"/>
      <point x="183" y="529" type="curve"/>
      <point x="183" y="569" type="line"/>
      <point x="109" y="569" type="line"/>
    </contour>
    <contour>
      <point x="305" y="229" type="line"/>
      <point x="697" y="229" type="line"/>
      <point x="697" y="303" type="line"/>
      <point x="305" y="303" type="line"/>
    </contour>
    <contour>
      <point x="462" y="303" type="line"/>
      <point x="540" y="303" type="line"/>
      <point x="540" y="726" type="line"/>
      <point x="462" y="726" type="line"/>
    </contour>
    <contour>
      <point x="75" y="726" type="line"/>
      <point x="925" y="726" type="line"/>
      <point x="925" y="804" type="line"/>
      <point x="75" y="804" type="line"/>
    </contour>
  </outline>
</glyph>
<glyph name="uni4E22" format="2">
  <advance width="1000"/>
  <unicode hex="4E22"/>
  <unicode hex="4E1F"/>
  <outline>
    <contour>
      <point x="122" y="745" type="curve"/>
      <point x="136" y="668" type="line"/>
      <point x="377" y="674"/>
      <point x="661" y="699"/>
      <point x="855" y="731" type="curve"/>
      <point x="825" y="802" type="line"/>
      <point x="651" y="773"/>
      <point x="365" y="748"/>
    </contour>
    <contour>
      <point x="825" y="-80" type="curve"/>
      <point x="895" y="-41" type="line"/>
      <point x="849" y="33"/>
      <point x="752" y="146"/>
      <point x="661" y="230" type="curve"/>
      <point x="596" y="197" type="line"/>
      <point x="681" y="116"/>
      <point x="775" y="0"/>
    </contour>
    <contour>
      <point x="539" y="309" type="line"/>
      <point x="539" y="722" type="line"/>
      <point x="460" y="722" type="line"/>
      <point x="460" y="309" type="line"/>
    </contour>
    <contour>
      <point x="70" y="482" type="line"/>
      <point x="937" y="482" type="line"/>
      <point x="937" y="556" type="line"/>
      <point x="70" y="556" type="line"/>
    </contour>
    <contour>
      <point x="891" y="345" type="line"/>
      <point x="113" y="345" type="line"/>
      <point x="113" y="271" type="line"/>
      <point x="891" y="271" type="line"/>
    </contour>
    <contour>
      <point x="483" y="283" type="curve"/>
      <point x="407" y="313" type="line"/>
      <point x="337" y="209"/>
      <point x="259" y="114"/>
      <point x="184" y="42" type="curve" smooth="yes"/>
      <point x="170" y="29"/>
      <point x="151" y="19"/>
      <point x="129" y="14" type="curve"/>
      <point x="155" y="-59" type="line"/>
      <point x="184" y="-48" type="line"/>
      <point x="785" y="-4" type="line"/>
      <point x="763" y="65" type="line"/>
      <point x="262" y="31" type="line"/>
      <point x="339" y="102"/>
      <point x="415" y="189"/>
    </contour>
  </outline>
</glyph>
<glyph name="uni4E26" format="2">
  <advance width="1000" height="1000"/>
  <unicode hex="4E26"/>
  <note>
cid09534
</note>
  <outline>
    <contour>
      <point x="76" y="-39" type="line"/>
      <point x="926" y="-39" type="line"/>
      <point x="926" y="40" type="line"/>
      <point x="678" y="40" type="line"/>
      <point x="735" y="149"/>
      <point x="794" y="291"/>
      <point x="838" y="421" type="curve"/>
      <point x="768" y="443" type="line"/>
      <point x="724" y="302"/>
      <point x="658" y="148"/>
      <point x="592" y="40" type="curve"/>
      <point x="76" y="40" type="line"/>
    </contour>
    <contour>
      <point x="283" y="110" type="curve"/>
      <point x="349" y="144" type="line"/>
      <point x="327" y="218"/>
      <point x="271" y="336"/>
      <point x="218" y="424" type="curve"/>
      <point x="157" y="399" type="line"/>
      <point x="207" y="307"/>
      <point x="262" y="187"/>
    </contour>
    <contour>
      <point x="504" y="137" type="curve"/>
      <point x="572" y="166" type="line"/>
      <point x="558" y="239"/>
      <point x="518" y="360"/>
      <point x="479" y="452" type="curve"/>
      <point x="416" y="429" type="line"/>
      <point x="453" y="335"/>
      <point x="492" y="213"/>
    </contour>
    <contour>
      <point x="328" y="614" type="curve"/>
      <point x="395" y="652" type="line"/>
      <point x="373" y="703"/>
      <point x="320" y="779"/>
      <point x="274" y="837" type="curve"/>
      <point x="212" y="804" type="line"/>
      <point x="257" y="746"/>
      <point x="307" y="665"/>
    </contour>
    <contour>
      <point x="95" y="521" type="line"/>
      <point x="906" y="521" type="line"/>
      <point x="906" y="600" type="line"/>
      <point x="664" y="600" type="line"/>
      <point x="706" y="662"/>
      <point x="755" y="743"/>
      <point x="793" y="813" type="curve"/>
      <point x="716" y="840" type="line"/>
      <point x="685" y="767"/>
      <point x="629" y="666"/>
      <point x="583" y="600" type="curve"/>
      <point x="95" y="600" type="line"/>
    </contour>
  </outline>
</glyph>
<glyph name="uni4E39" format="2">
  <advance width="1000"/>
  <unicode hex="4E39"/>
  <outline>
    <contour>
      <point x="720" y="-80" type="curve" smooth="yes"/>
      <point x="769" y="-80"/>
      <point x="800" y="-62"/>
      <point x="800" y="5" type="curve" smooth="yes"/>
      <point x="800" y="622" type="line" smooth="yes"/>
      <point x="800" y="757"/>
      <point x="755" y="801"/>
      <point x="630" y="801" type="curve" smooth="yes"/>
      <point x="471" y="801" type="line" smooth="yes"/>
      <point x="376" y="801"/>
      <point x="321" y="790"/>
      <point x="273" y="771" type="curve"/>
      <point x="273" y="703" type="line"/>
      <point x="328" y="723"/>
      <point x="379" y="733"/>
      <point x="466" y="733" type="curve" smooth="yes"/>
      <point x="624" y="733" type="line" smooth="yes"/>
      <point x="699" y="733"/>
      <point x="726" y="701"/>
      <point x="726" y="618" type="curve" smooth="yes"/>
      <point x="726" y="9" type="line" smooth="yes"/>
      <point x="726" y="-8"/>
      <point x="719" y="-15"/>
      <point x="703" y="-15" type="curve" smooth="yes"/>
      <point x="664" y="-15"/>
      <point x="625" y="-8"/>
      <point x="583" y="7" type="curve"/>
      <point x="583" y="-69" type="line"/>
      <point x="626" y="-77"/>
      <point x="664" y="-80"/>
    </contour>
    <contour>
      <point x="114" y="-40" type="curve"/>
      <point x="181" y="-76" type="line"/>
      <point x="289" y="88"/>
      <point x="291" y="289"/>
      <point x="291" y="468" type="curve" smooth="yes"/>
      <point x="291" y="802" type="line"/>
      <point x="219" y="802" type="line"/>
      <point x="219" y="468" type="line" smooth="yes"/>
      <point x="219" y="300"/>
      <point x="214" y="115"/>
    </contour>
    <contour>
      <point x="607" y="416" type="curve"/>
      <point x="658" y="467" type="line"/>
      <point x="583" y="525"/>
      <point x="498" y="582"/>
      <point x="399" y="638" type="curve"/>
      <point x="355" y="588" type="line"/>
      <point x="452" y="532"/>
      <point x="536" y="474"/>
    </contour>
    <contour>
      <point x="53" y="342" type="line"/>
      <point x="53" y="269" type="line"/>
      <point x="949" y="269" type="line"/>
      <point x="949" y="342" type="line"/>
    </contour>
  </outline>
</glyph>
<glyph name="uni4E45" format="2">
  <advance width="1000" height="1000"/>
  <unicode hex="4E45"/>
  <note>
cid09574
</note>
  <outline>
    <contour>
      <point x="44" y="-10" type="curve"/>
      <point x="93" y="-83" type="line"/>
      <point x="418" y="66"/>
      <point x="652" y="374"/>
      <point x="725" y="657" type="curve"/>
      <point x="671" y="684" type="line"/>
      <point x="656" y="678" type="line"/>
      <point x="324" y="678" type="line"/>
      <point x="324" y="602" type="line"/>
      <point x="626" y="602" type="line"/>
      <point x="536" y="311"/>
      <point x="289" y="94"/>
    </contour>
    <contour>
      <point x="33" y="360" type="curve"/>
      <point x="100" y="305" type="line"/>
      <point x="253" y="439"/>
      <point x="372" y="633"/>
      <point x="436" y="821" type="curve"/>
      <point x="356" y="840" type="line"/>
      <point x="285" y="645"/>
      <point x="169" y="469"/>
    </contour>
    <contour>
      <point x="886" y="-74" type="curve"/>
      <point x="951" y="-14" type="line"/>
      <point x="819" y="130"/>
      <point x="690" y="244"/>
      <point x="545" y="348" type="curve"/>
      <point x="494" y="289" type="line"/>
      <point x="629" y="190"/>
      <point x="756" y="72"/>
    </contour>
  </outline>
</glyph>
<glyph name="uni4E4E" format="2">
  <advance width="1000" height="1000"/>
  <unicode hex="4E4E"/>
  <note>
cid09586
</note>
  <outline>
    <contour>
      <point x="458" y="-82" type="curve" smooth="yes"/>
      <point x="515" y="-82"/>
      <point x="549" y="-55"/>
      <point x="549" y="22" type="curve" smooth="yes"/>
      <point x="549" y="734" type="line"/>
      <point x="469" y="734" type="line"/>
      <point x="469" y="22" type="line" smooth="yes"/>
      <point x="469" y="1"/>
      <point x="461" y="-6"/>
      <point x="438" y="-6" type="curve" smooth="yes"/>
      <point x="395" y="-6"/>
      <point x="327" y="2"/>
      <point x="263" y="21" type="curve"/>
      <point x="263" y="-66" type="line"/>
      <point x="323" y="-77"/>
      <point x="391" y="-82"/>
    </contour>
    <contour>
      <point x="259" y="405" type="curve"/>
      <point x="329" y="432" type="line"/>
      <point x="313" y="489"/>
      <point x="272" y="579"/>
      <point x="231" y="647" type="curve"/>
      <point x="158" y="625" type="line"/>
      <point x="199" y="554"/>
      <point x="245" y="463"/>
    </contour>
    <contour>
      <point x="939" y="266" type="curve"/>
      <point x="959" y="345" type="line"/>
      <point x="738" y="374"/>
      <point x="444" y="375"/>
      <point x="55" y="344" type="curve"/>
      <point x="55" y="272" type="line"/>
      <point x="439" y="300"/>
      <point x="734" y="293"/>
    </contour>
    <contour>
      <point x="119" y="759" type="curve"/>
      <point x="136" y="682" type="line"/>
      <point x="373" y="688"/>
      <point x="664" y="719"/>
      <point x="858" y="758" type="curve"/>
      <point x="819" y="826" type="line"/>
      <point x="655" y="793"/>
      <point x="360" y="768"/>
    </contour>
    <contour>
      <point x="673" y="432" type="curve"/>
      <point x="735" y="407" type="line"/>
      <point x="774" y="466"/>
      <point x="824" y="561"/>
      <point x="863" y="640" type="curve"/>
      <point x="780" y="667" type="line"/>
      <point x="755" y="595"/>
      <point x="711" y="494"/>
    </contour>
  </outline>
</glyph>
<glyph name="uni4E53" format="2">
  <advance width="1000"/>
  <unicode hex="4E53"/>
  <outline>
    <contour>
      <point x="174" y="773" type="curve"/>
      <point x="174" y="283" type="line"/>
      <point x="255" y="283" type="line"/>
      <point x="255" y="695" type="line"/>
      <point x="466" y="704"/>
      <point x="695" y="724"/>
      <point x="853" y="755" type="curve"/>
      <point x="795" y="831" type="line"/>
      <point x="654" y="802"/>
      <point x="394" y="781"/>
    </contour>
    <contour>
      <point x="70" y="230" type="line"/>
      <point x="930" y="230" type="line"/>
      <point x="930" y="311" type="line"/>
      <point x="70" y="311" type="line"/>
    </contour>
    <contour>
      <point x="875" y="-63" type="curve"/>
      <point x="945" y="-14" type="line"/>
      <point x="877" y="55"/>
      <point x="756" y="150"/>
      <point x="656" y="222" type="curve"/>
      <point x="593" y="177" type="line"/>
      <point x="691" y="102"/>
      <point x="810" y="7"/>
    </contour>
    <contour>
      <point x="704" y="271" type="curve"/>
      <point x="770" y="238" type="line"/>
      <point x="820" y="299"/>
      <point x="844" y="362"/>
      <point x="844" y="432" type="curve" smooth="yes"/>
      <point x="844" y="536"/>
      <point x="767" y="607"/>
      <point x="583" y="607" type="curve" smooth="yes"/>
      <point x="429" y="607"/>
      <point x="334" y="568"/>
      <point x="255" y="519" type="curve"/>
      <point x="255" y="444" type="line"/>
      <point x="367" y="502"/>
      <point x="470" y="525"/>
      <point x="583" y="525" type="curve" smooth="yes"/>
      <point x="676" y="525"/>
      <point x="762" y="490"/>
      <point x="762" y="432" type="curve" smooth="yes"/>
      <point x="762" y="372"/>
      <point x="745" y="324"/>
    </contour>
  </outline>
</glyph>
<glyph name="uni4E55" format="2">
  <advance width="1000"/>
  <unicode hex="4E55"/>
  <unicode hex="864E"/>
  <unicode hex="8652"/>
  <outline>
    <contour>
      <point x="943" y="791" type="line"/>
      <point x="131" y="791" type="line"/>
      <point x="131" y="470" type="line" smooth="yes"/>
      <point x="131" y="325"/>
      <point x="122" y="121"/>
      <point x="31" y="-14" type="curve"/>
      <point x="107" y="-60" type="line"/>
      <point x="197" y="92"/>
      <point x="208" y="317"/>
      <point x="208" y="470" type="curve" smooth="yes"/>
      <point x="208" y="713" type="line"/>
      <point x="943" y="713" type="line"/>
    </contour>
    <contour>
      <point x="584" y="57" type="curve" smooth="yes"/>
      <point x="837" y="57"/>
      <point x="933" y="185"/>
      <point x="933" y="284" type="curve" smooth="yes"/>
      <point x="933" y="383"/>
      <point x="852" y="475"/>
      <point x="617" y="475" type="curve" smooth="yes"/>
      <point x="459" y="475"/>
      <point x="346" y="444"/>
      <point x="217" y="374" type="curve"/>
      <point x="261" y="310" type="line"/>
      <point x="360" y="367"/>
      <point x="469" y="402"/>
      <point x="617" y="402" type="curve" smooth="yes"/>
      <point x="808" y="402"/>
      <point x="853" y="336"/>
      <point x="853" y="284" type="curve" smooth="yes"/>
      <point x="853" y="222"/>
      <point x="770" y="132"/>
      <point x="584" y="132" type="curve" smooth="yes"/>
      <point x="445" y="132"/>
      <point x="399" y="149"/>
      <point x="399" y="185" type="curve" smooth="yes"/>
      <point x="399" y="220"/>
      <point x="460" y="247"/>
      <point x="555" y="247" type="curve" smooth="yes"/>
      <point x="642" y="247"/>
      <point x="714" y="210"/>
      <point x="765" y="145" type="curve"/>
      <point x="828" y="195" type="line"/>
      <point x="753" y="276"/>
      <point x="669" y="319"/>
      <point x="555" y="319" type="curve" smooth="yes"/>
      <point x="408" y="319"/>
      <point x="315" y="260"/>
      <point x="315" y="185" type="curve" smooth="yes"/>
      <point x="315" y="108"/>
      <point x="379" y="57"/>
    </contour>
    <contour>
      <point x="532" y="-79" type="line"/>
      <point x="610" y="-79" type="line"/>
      <point x="610" y="562" type="line"/>
      <point x="532" y="562" type="line"/>
    </contour>
    <contour>
      <point x="169" y="540" type="line"/>
      <point x="886" y="539" type="line"/>
      <point x="886" y="615" type="line"/>
      <point x="169" y="615" type="line"/>
    </contour>
  </outline>
</glyph>
<glyph name="uni4E86" format="2">
  <advance width="1000" height="1000"/>
  <unicode hex="4E86"/>
  <note>
cid09661
</note>
  <outline>
    <contour>
      <point x="457" y="-73" type="curve" smooth="yes"/>
      <point x="510" y="-73"/>
      <point x="554" y="-32"/>
      <point x="554" y="28" type="curve" smooth="yes"/>
      <point x="554" y="449" type="line"/>
      <point x="672" y="522"/>
      <point x="792" y="621"/>
      <point x="883" y="720" type="curve"/>
      <point x="820" y="771" type="line"/>
      <point x="803" y="760" type="line"/>
      <point x="114" y="760" type="line"/>
      <point x="114" y="684" type="line"/>
      <point x="735" y="684" type="line"/>
      <point x="664" y="615"/>
      <point x="563" y="540"/>
      <point x="474" y="487" type="curve"/>
      <point x="474" y="33" type="line" smooth="yes"/>
      <point x="474" y="14"/>
      <point x="462" y="0"/>
      <point x="440" y="-1" type="curve" smooth="yes"/>
      <point x="407" y="-3"/>
      <point x="344" y="4"/>
      <point x="272" y="28" type="curve"/>
      <point x="272" y="-53" type="line"/>
      <point x="330" y="-67"/>
      <point x="397" y="-73"/>
    </contour>
  </outline>
</glyph>
<glyph name="uni4E8E" format="2">
  <advance width="1000" height="1000"/>
  <unicode hex="4E8E"/>
  <note>
cid09671
</note>
  <outline>
    <contour>
      <point x="455" y="-79" type="curve" smooth="yes"/>
      <point x="515" y="-79"/>
      <point x="549" y="-44"/>
      <point x="549" y="16" type="curve" smooth="yes"/>
      <point x="549" y="694" type="line"/>
      <point x="871" y="694" type="line"/>
      <point x="871" y="769" type="line"/>
      <point x="129" y="769" type="line"/>
      <point x="129" y="694" type="line"/>
      <point x="470" y="694" type="line"/>
      <point x="470" y="29" type="line" smooth="yes"/>
      <point x="470" y="10"/>
      <point x="458" y="-5"/>
      <point x="436" y="-5" type="curve" smooth="yes"/>
      <point x="387" y="-5"/>
      <point x="341" y="3"/>
      <point x="275" y="23" type="curve"/>
      <point x="275" y="-58" type="line"/>
      <point x="333" y="-72"/>
      <point x="385" y="-79"/>
    </contour>
    <contour>
      <point x="55" y="359" type="line"/>
      <point x="944" y="359" type="line"/>
      <point x="944" y="434" type="line"/>
      <point x="55" y="434" type="line"/>
    </contour>
  </outline>
</glyph>
<glyph name="uni4E98" format="2">
  <advance width="1000"/>
  <unicode hex="4E98"/>
  <unicode hex="4E99"/>
  <outline>
    <contour>
      <point x="581" y="186" type="curve"/>
      <point x="651" y="143" type="line"/>
      <point x="747" y="296"/>
      <point x="811" y="425"/>
      <point x="870" y="557" type="curve"/>
      <point x="787" y="592" type="line"/>
      <point x="732" y="456"/>
      <point x="672" y="327"/>
    </contour>
    <contour>
      <point x="55" y="-16" type="line"/>
      <point x="945" y="-16" type="line"/>
      <point x="945" y="63" type="line"/>
      <point x="55" y="63" type="line"/>
    </contour>
    <contour>
      <point x="325" y="149" type="curve"/>
      <point x="395" y="187" type="line"/>
      <point x="339" y="323"/>
      <point x="274" y="466"/>
      <point x="206" y="590" type="curve"/>
      <point x="133" y="547" type="line"/>
      <point x="202" y="428"/>
      <point x="266" y="292"/>
    </contour>
    <contour>
      <point x="101" y="706" type="line"/>
      <point x="899" y="706" type="line"/>
      <point x="899" y="785" type="line"/>
      <point x="101" y="785" type="line"/>
    </contour>
  </outline>
</glyph>
<glyph name="uni4EA2" format="2">
  <advance width="1000"/>
  <unicode hex="4EA2"/>
  <outline>
    <contour>
      <point x="62" y="7" type="curve"/>
      <point x="120" y="-59" type="line"/>
      <point x="413" y="188"/>
      <point x="556" y="435"/>
      <point x="650" y="633" type="curve"/>
      <point x="825" y="633" type="line"/>
      <point x="825" y="713" type="line"/>
      <point x="247" y="713" type="line"/>
      <point x="247" y="633" type="line"/>
      <point x="563" y="633" type="line"/>
      <point x="489" y="474"/>
      <point x="340" y="243"/>
    </contour>
    <contour>
      <point x="68" y="469" type="curve"/>
      <point x="140" y="426" type="line"/>
      <point x="231" y="528"/>
      <point x="301" y="672"/>
      <point x="342" y="813" type="curve"/>
      <point x="263" y="830" type="line"/>
      <point x="222" y="689"/>
      <point x="151" y="554"/>
    </contour>
    <contour>
      <point x="685" y="-46" type="curve" smooth="yes"/>
      <point x="830" y="-46" type="line" smooth="yes"/>
      <point x="914" y="-46"/>
      <point x="942" y="32"/>
      <point x="952" y="236" type="curve"/>
      <point x="871" y="262" type="line"/>
      <point x="870" y="68"/>
      <point x="854" y="35"/>
      <point x="820" y="35" type="curve" smooth="yes"/>
      <point x="680" y="35" type="line" smooth="yes"/>
      <point x="651" y="35"/>
      <point x="641" y="47"/>
      <point x="641" y="82" type="curve" smooth="yes"/>
      <point x="641" y="277" type="line" smooth="yes"/>
      <point x="641" y="381"/>
      <point x="535" y="409"/>
      <point x="442" y="388" type="curve"/>
      <point x="442" y="315" type="line"/>
      <point x="526" y="330"/>
      <point x="562" y="294"/>
      <point x="562" y="238" type="curve" smooth="yes"/>
      <point x="562" y="80" type="line" smooth="yes"/>
      <point x="562" y="-14"/>
      <point x="586" y="-46"/>
    </contour>
  </outline>
</glyph>
<glyph name="uni4EA5" format="2">
  <advance width="1000"/>
  <unicode hex="4EA5"/>
  <outline>
    <contour>
      <point x="256" y="-65" type="curve" smooth="yes"/>
      <point x="430" y="-65"/>
      <point x="570" y="74"/>
      <point x="570" y="222" type="curve" smooth="yes"/>
      <point x="570" y="351"/>
      <point x="522" y="490"/>
      <point x="344" y="480" type="curve"/>
      <point x="411" y="533"/>
      <point x="505" y="656"/>
      <point x="588" y="806" type="curve"/>
      <point x="503" y="834" type="line"/>
      <point x="428" y="680"/>
      <point x="344" y="558"/>
      <point x="273" y="489" type="curve" smooth="yes"/>
      <point x="256" y="473"/>
      <point x="214" y="462"/>
      <point x="179" y="445" type="curve"/>
      <point x="205" y="371" type="line"/>
      <point x="238" y="387"/>
      <point x="288" y="401"/>
      <point x="344" y="401" type="curve" smooth="yes"/>
      <point x="428" y="401"/>
      <point x="486" y="329"/>
      <point x="486" y="222" type="curve" smooth="yes"/>
      <point x="486" y="115"/>
      <point x="392" y="12"/>
      <point x="256" y="12" type="curve" smooth="yes"/>
      <point x="189" y="12"/>
      <point x="164" y="36"/>
      <point x="164" y="73" type="curve" smooth="yes"/>
      <point x="164" y="179"/>
      <point x="481" y="308"/>
      <point x="726" y="321" type="curve"/>
      <point x="726" y="29" type="line"/>
      <point x="612" y="29" type="line"/>
      <point x="612" y="-45" type="line"/>
      <point x="917" y="-45" type="line"/>
      <point x="917" y="29" type="line"/>
      <point x="803" y="29" type="line"/>
      <point x="803" y="373" type="line"/>
      <point x="752" y="412" type="line"/>
      <point x="729" y="397" type="line"/>
      <point x="478" y="386"/>
      <point x="83" y="263"/>
      <point x="83" y="73" type="curve" smooth="yes"/>
      <point x="83" y="-21"/>
      <point x="137" y="-65"/>
    </contour>
    <contour>
      <point x="84" y="593" type="line"/>
      <point x="904" y="593" type="line"/>
      <point x="904" y="673" type="line"/>
      <point x="84" y="670" type="line"/>
    </contour>
  </outline>
</glyph>
<glyph name="uni4EA6" format="2">
  <advance width="1000"/>
  <unicode hex="4EA6"/>
  <outline>
    <contour>
      <point x="73" y="428" type="curve"/>
      <point x="148" y="394" type="line"/>
      <point x="225" y="499"/>
      <point x="285" y="671"/>
      <point x="310" y="799" type="curve"/>
      <point x="230" y="810" type="line"/>
      <point x="205" y="673"/>
      <point x="140" y="512"/>
    </contour>
    <contour>
      <point x="96" y="22" type="line"/>
      <point x="904" y="22" type="line"/>
      <point x="904" y="103" type="line"/>
      <point x="96" y="103" type="line"/>
    </contour>
    <contour>
      <point x="220" y="556" type="line"/>
      <point x="863" y="556" type="line"/>
      <point x="863" y="636" type="line"/>
      <point x="220" y="636" type="line"/>
    </contour>
  </outline>
</glyph>
<glyph name="uni4EAC" format="2">
  <advance width="1000"/>
  <unicode hex="4EAC"/>
  <outline>
    <contour>
      <point x="87" y="634" type="line"/>
      <point x="913" y="634" type="line"/>
      <point x="913" y="711" type="line"/>
      <point x="561" y="711" type="line"/>
      <point x="507" y="825" type="line"/>
      <point x="430" y="807" type="line"/>
      <point x="474" y="711" type="line"/>
      <point x="87" y="711" type="line"/>
    </contour>
    <contour>
      <point x="161" y="268" type="line"/>
      <point x="235" y="268" type="line"/>
      <point x="235" y="401" type="line"/>
      <point x="325" y="461"/>
      <point x="430" y="497"/>
      <point x="583" y="497" type="curve" smooth="yes"/>
      <point x="736" y="497"/>
      <point x="782" y="464"/>
      <point x="782" y="419" type="curve" smooth="yes"/>
      <point x="782" y="332"/>
      <point x="598" y="326"/>
      <point x="329" y="353" type="curve"/>
      <point x="329" y="275" type="line"/>
      <point x="629" y="254"/>
      <point x="863" y="257"/>
      <point x="863" y="419" type="curve" smooth="yes"/>
      <point x="863" y="507"/>
      <point x="803" y="575"/>
      <point x="583" y="575" type="curve" smooth="yes"/>
      <point x="415" y="575"/>
      <point x="301" y="534"/>
      <point x="235" y="471" type="curve"/>
      <point x="235" y="541" type="line"/>
      <point x="161" y="541" type="line"/>
    </contour>
    <contour>
      <point x="459" y="-76" type="curve" smooth="yes"/>
      <point x="519" y="-74"/>
      <point x="558" y="-44"/>
      <point x="558" y="19" type="curve" smooth="yes"/>
      <point x="558" y="416" type="line"/>
      <point x="478" y="416" type="line"/>
      <point x="478" y="23" type="line" smooth="yes"/>
      <point x="478" y="7"/>
      <point x="465" y="-5"/>
      <point x="444" y="-5" type="curve" smooth="yes"/>
      <point x="393" y="-6"/>
      <point x="343" y="-2"/>
      <point x="283" y="17" type="curve"/>
      <point x="283" y="-61" type="line"/>
      <point x="340" y="-72"/>
      <point x="396" y="-76"/>
    </contour>
    <contour>
      <point x="60" y="54" type="curve"/>
      <point x="132" y="14" type="line"/>
      <point x="217" y="66"/>
      <point x="280" y="135"/>
      <point x="315" y="197" type="curve"/>
      <point x="229" y="225" type="line"/>
      <point x="201" y="169"/>
      <point x="142" y="105"/>
    </contour>
    <contour>
      <point x="870" y="7" type="curve"/>
      <point x="948" y="42" type="line"/>
      <point x="922" y="93"/>
      <point x="857" y="167"/>
      <point x="766" y="228" type="curve"/>
      <point x="695" y="195" type="line"/>
      <point x="778" y="134"/>
      <point x="848" y="57"/>
    </contour>
  </outline>
</glyph>
<glyph name="uni4EB6" format="2">
  <advance width="1000"/>
  <unicode hex="4EB6"/>
  <outline>
    <contour>
      <point x="79" y="-71" type="line"/>
      <point x="921" y="-71" type="line"/>
      <point x="921" y="1" type="line"/>
      <point x="458" y="1" type="line"/>
      <point x="558" y="55"/>
      <point x="597" y="131"/>
      <point x="597" y="178" type="curve" smooth="yes"/>
      <point x="597" y="251"/>
      <point x="522" y="290"/>
      <point x="423" y="290" type="curve" smooth="yes"/>
      <point x="338" y="290"/>
      <point x="266" y="251"/>
      <point x="266" y="180" type="curve" smooth="yes"/>
      <point x="266" y="112"/>
      <point x="321" y="66"/>
      <point x="457" y="66" type="curve" smooth="yes"/>
      <point x="678" y="66"/>
      <point x="859" y="120"/>
      <point x="859" y="267" type="curve" smooth="yes"/>
      <point x="859" y="383"/>
      <point x="749" y="435"/>
      <point x="559" y="435" type="curve" smooth="yes"/>
      <point x="382" y="435"/>
      <point x="233" y="400"/>
      <point x="110" y="348" type="curve"/>
      <point x="156" y="290" type="line"/>
      <point x="277" y="340"/>
      <point x="398" y="369"/>
      <point x="559" y="369" type="curve" smooth="yes"/>
      <point x="690" y="369"/>
      <point x="772" y="336"/>
      <point x="772" y="267" type="curve" smooth="yes"/>
      <point x="772" y="169"/>
      <point x="640" y="132"/>
      <point x="488" y="132" type="curve" smooth="yes"/>
      <point x="404" y="132"/>
      <point x="345" y="141"/>
      <point x="345" y="178" type="curve" smooth="yes"/>
      <point x="345" y="213"/>
      <point x="389" y="226"/>
      <point x="429" y="226" type="curve" smooth="yes"/>
      <point x="477" y="226"/>
      <point x="517" y="205"/>
      <point x="517" y="169" type="curve" smooth="yes"/>
      <point x="517" y="127"/>
      <point x="457" y="51"/>
      <point x="347" y="1" type="curve"/>
      <point x="79" y="1" type="line"/>
    </contour>
    <contour>
      <point x="278" y="449" type="curve"/>
      <point x="349" y="474" type="line"/>
      <point x="339" y="518"/>
      <point x="306" y="587"/>
      <point x="272" y="639" type="curve"/>
      <point x="204" y="617" type="line"/>
      <point x="237" y="565"/>
      <point x="269" y="493"/>
    </contour>
    <contour>
      <point x="46" y="563" type="curve"/>
      <point x="117" y="525" type="line"/>
      <point x="192" y="621"/>
      <point x="240" y="721"/>
      <point x="271" y="835" type="curve"/>
      <point x="193" y="850" type="line"/>
      <point x="162" y="736"/>
      <point x="119" y="651"/>
    </contour>
    <contour>
      <point x="486" y="470" type="curve"/>
      <point x="560" y="487" type="line"/>
      <point x="556" y="532"/>
      <point x="536" y="605"/>
      <point x="511" y="659" type="curve"/>
      <point x="441" y="644" type="line"/>
      <point x="465" y="589"/>
      <point x="483" y="514"/>
    </contour>
    <contour>
      <point x="190" y="685" type="line"/>
      <point x="892" y="685" type="line"/>
      <point x="892" y="760" type="line"/>
      <point x="190" y="760" type="line"/>
    </contour>
    <contour>
      <point x="666" y="467" type="curve"/>
      <point x="730" y="445" type="line"/>
      <point x="764" y="494"/>
      <point x="808" y="570"/>
      <point x="843" y="637" type="curve"/>
      <point x="760" y="660" type="line"/>
      <point x="740" y="603"/>
      <point x="699" y="518"/>
    </contour>
  </outline>
</glyph>
<glyph name="uni4EDD" format="2">
  <advance width="1000"/>
  <unicode hex="4EDD"/>
  <outline>
    <contour>
      <point x="58" y="494" type="curve"/>
      <point x="123" y="449" type="line"/>
      <point x="208" y="564"/>
      <point x="261" y="683"/>
      <point x="310" y="828" type="curve"/>
      <point x="237" y="846" type="line"/>
      <point x="189" y="701"/>
      <point x="126" y="582"/>
    </contour>
    <contour>
      <point x="90" y="-44" type="line"/>
      <point x="910" y="-44" type="line"/>
      <point x="910" y="31" type="line"/>
      <point x="90" y="31" type="line"/>
    </contour>
    <contour>
      <point x="471" y="31" type="line"/>
      <point x="550" y="31" type="line"/>
      <point x="550" y="367" type="line"/>
      <point x="471" y="367" type="line"/>
    </contour>
    <contour>
      <point x="213" y="367" type="line"/>
      <point x="827" y="367" type="line"/>
      <point x="827" y="441" type="line"/>
      <point x="213" y="441" type="line"/>
    </contour>
    <contour>
      <point x="201" y="619" type="line"/>
      <point x="887" y="619" type="line"/>
      <point x="887" y="694" type="line"/>
      <point x="201" y="694" type="line"/>
    </contour>
  </outline>
</glyph>
<glyph name="uni4EE4" format="2">
  <advance width="1000" height="1000"/>
  <unicode hex="4EE4"/>
  <note>
cid09809
</note>
  <outline>
    <contour>
      <point x="41" y="313" type="curve"/>
      <point x="105" y="267" type="line"/>
      <point x="239" y="400"/>
      <point x="373" y="666"/>
      <point x="433" y="805" type="curve"/>
      <point x="356" y="832" type="line"/>
      <point x="291" y="667"/>
      <point x="172" y="434"/>
    </contour>
    <contour>
      <point x="785" y="-78" type="curve"/>
      <point x="820" y="0" type="line"/>
      <point x="704" y="51"/>
      <point x="484" y="120"/>
      <point x="326" y="156" type="curve"/>
      <point x="291" y="88" type="line"/>
      <point x="454" y="48"/>
      <point x="673" y="-26"/>
    </contour>
    <contour>
      <point x="743" y="205" type="curve"/>
      <point x="777" y="281" type="line"/>
      <point x="698" y="312"/>
      <point x="545" y="360"/>
      <point x="439" y="389" type="curve"/>
      <point x="406" y="323" type="line"/>
      <point x="515" y="290"/>
      <point x="666" y="238"/>
    </contour>
    <contour>
      <point x="277" y="529" type="line"/>
      <point x="935" y="529" type="line"/>
      <point x="935" y="608" type="line"/>
      <point x="277" y="608" type="line"/>
    </contour>
  </outline>
</glyph>
<glyph name="uni4F01" format="2">
  <advance width="1000"/>
  <unicode hex="4F01"/>
  <outline>
    <contour>
      <point x="35" y="435" type="curve"/>
      <point x="91" y="366" type="line"/>
      <point x="332" y="489"/>
      <point x="474" y="613"/>
      <point x="593" y="810" type="curve"/>
      <point x="526" y="841" type="line"/>
      <point x="426" y="664"/>
      <point x="254" y="538"/>
    </contour>
    <contour>
      <point x="104" y="-15" type="curve"/>
      <point x="168" y="-65" type="line"/>
      <point x="265" y="12"/>
      <point x="342" y="102"/>
      <point x="390" y="184" type="curve"/>
      <point x="312" y="219" type="line"/>
      <point x="271" y="140"/>
      <point x="192" y="52"/>
    </contour>
    <contour>
      <point x="817" y="-74" type="curve"/>
      <point x="897" y="-34" type="line"/>
      <point x="833" y="55"/>
      <point x="743" y="153"/>
      <point x="665" y="227" type="curve"/>
      <point x="597" y="183" type="line"/>
      <point x="675" y="112"/>
      <point x="757" y="18"/>
    </contour>
    <contour>
      <point x="644" y="273" type="curve"/>
      <point x="686" y="345" type="line"/>
      <point x="610" y="383"/>
      <point x="470" y="433"/>
      <point x="365" y="464" type="curve"/>
      <point x="327" y="395" type="line"/>
      <point x="437" y="366"/>
      <point x="570" y="314"/>
    </contour>
    <contour>
      <point x="914" y="365" type="curve"/>
      <point x="969" y="433" type="line"/>
      <point x="830" y="546"/>
      <point x="664" y="646"/>
      <point x="494" y="712" type="curve"/>
      <point x="446" y="657" type="line"/>
      <point x="621" y="585"/>
      <point x="779" y="483"/>
    </contour>
  </outline>
</glyph>
<glyph name="uni4F07" format="2">
  <advance width="1000"/>
  <unicode hex="4F07"/>
  <outline>
    <contour>
      <point x="329" y="-6" type="curve"/>
      <point x="372" y="-80" type="line"/>
      <point x="651" y="-5"/>
      <point x="835" y="184"/>
      <point x="910" y="458" type="curve"/>
      <point x="855" y="487" type="line"/>
      <point x="840" y="478" type="line"/>
      <point x="529" y="478" type="line"/>
      <point x="529" y="405" type="line"/>
      <point x="809" y="405" type="line"/>
      <point x="731" y="189"/>
      <point x="557" y="48"/>
    </contour>
    <contour>
      <point x="192" y="-78" type="line"/>
      <point x="269" y="-78" type="line"/>
      <point x="269" y="611" type="line"/>
      <point x="192" y="611" type="line"/>
    </contour>
    <contour>
      <point x="894" y="-87" type="curve"/>
      <point x="955" y="-29" type="line"/>
      <point x="828" y="91"/>
      <point x="664" y="214"/>
      <point x="473" y="311" type="curve"/>
      <point x="436" y="248" type="line"/>
      <point x="627" y="146"/>
      <point x="776" y="28"/>
    </contour>
    <contour>
      <point x="38" y="437" type="curve"/>
      <point x="99" y="393" type="line"/>
      <point x="216" y="506"/>
      <point x="319" y="666"/>
      <point x="380" y="815" type="curve"/>
      <point x="302" y="839" type="line"/>
      <point x="242" y="687"/>
      <point x="143" y="534"/>
    </contour>
    <contour>
      <point x="383" y="397" type="curve"/>
      <point x="431" y="327" type="line"/>
      <point x="604" y="426"/>
      <point x="795" y="596"/>
      <point x="909" y="778" type="curve"/>
      <point x="839" y="819" type="line"/>
      <point x="723" y="625"/>
      <point x="557" y="494"/>
    </contour>
    <contour>
      <point x="540" y="564" type="curve"/>
      <point x="608" y="604" type="line"/>
      <point x="577" y="660"/>
      <point x="523" y="737"/>
      <point x="473" y="803" type="curve"/>
      <point x="407" y="756" type="line"/>
      <point x="461" y="693"/>
      <point x="507" y="625"/>
    </contour>
  </outline>
</glyph>
<glyph name="uni4F10" format="2">
  <advance width="1000"/>
  <unicode hex="4F10"/>
  <outline>
    <contour>
      <point x="850" y="-85" type="curve" smooth="yes"/>
      <point x="907" y="-85"/>
      <point x="942" y="-38"/>
      <point x="961" y="125" type="curve"/>
      <point x="894" y="146" type="line"/>
      <point x="885" y="35"/>
      <point x="874" y="3"/>
      <point x="847" y="3" type="curve" smooth="yes"/>
      <point x="662" y="3"/>
      <point x="625" y="472"/>
      <point x="604" y="827" type="curve"/>
      <point x="529" y="827" type="line"/>
      <point x="544" y="441"/>
      <point x="587" y="-85"/>
    </contour>
    <contour>
      <point x="192" y="-78" type="line"/>
      <point x="269" y="-78" type="line"/>
      <point x="269" y="611" type="line"/>
      <point x="192" y="611" type="line"/>
    </contour>
    <contour>
      <point x="353" y="5" type="curve"/>
      <point x="414" y="-55" type="line"/>
      <point x="594" y="32"/>
      <point x="780" y="204"/>
      <point x="883" y="398" type="curve"/>
      <point x="816" y="437" type="line"/>
      <point x="734" y="279"/>
      <point x="554" y="91"/>
    </contour>
    <contour>
      <point x="38" y="437" type="curve"/>
      <point x="99" y="393" type="line"/>
      <point x="216" y="506"/>
      <point x="321" y="666"/>
      <point x="382" y="815" type="curve"/>
      <point x="302" y="839" type="line"/>
      <point x="242" y="687"/>
      <point x="143" y="534"/>
    </contour>
    <contour>
      <point x="333" y="420" type="line"/>
      <point x="917" y="523" type="line"/>
      <point x="902" y="593" type="line"/>
      <point x="321" y="491" type="line"/>
    </contour>
    <contour>
      <point x="804" y="616" type="curve"/>
      <point x="862" y="663" type="line"/>
      <point x="835" y="703"/>
      <point x="777" y="764"/>
      <point x="727" y="806" type="curve"/>
      <point x="671" y="765" type="line"/>
      <point x="721" y="722"/>
      <point x="776" y="657"/>
    </contour>
  </outline>
</glyph>
<glyph name="uni5098" format="2">
  <advance width="1000"/>
  <unicode hex="5098"/>
  <unicode hex="4F1E"/>
  <outline>
    <contour>
      <point x="465" y="-61" type="curve" smooth="yes"/>
      <point x="530" y="-60"/>
      <point x="556" y="-36"/>
      <point x="556" y="35" type="curve" smooth="yes"/>
      <point x="556" y="715" type="line"/>
      <point x="478" y="715" type="line"/>
      <point x="478" y="35" type="line" smooth="yes"/>
      <point x="478" y="15"/>
      <point x="470" y="7"/>
      <point x="450" y="7" type="curve" smooth="yes"/>
      <point x="404" y="7"/>
      <point x="356" y="16"/>
      <point x="304" y="28" type="curve"/>
      <point x="304" y="-50" type="line"/>
      <point x="364" y="-58"/>
      <point x="421" y="-62"/>
    </contour>
    <contour>
      <point x="77" y="352" type="line"/>
      <point x="449" y="352" type="line"/>
      <point x="449" y="418" type="line"/>
      <point x="77" y="418" type="line"/>
    </contour>
    <contour>
      <point x="936" y="181" type="curve"/>
      <point x="953" y="259" type="line"/>
      <point x="734" y="288"/>
      <point x="442" y="290"/>
      <point x="56" y="259" type="curve"/>
      <point x="56" y="187" type="line"/>
      <point x="437" y="215"/>
      <point x="727" y="208"/>
    </contour>
    <contour>
      <point x="313" y="375" type="line"/>
      <point x="445" y="537" type="line"/>
      <point x="397" y="586" type="line"/>
      <point x="371" y="576" type="line"/>
      <point x="234" y="576" type="line"/>
      <point x="234" y="510" type="line"/>
      <point x="342" y="510" type="line"/>
      <point x="255" y="394" type="line"/>
    </contour>
    <contour>
      <point x="66" y="519" type="curve"/>
      <point x="136" y="488" type="line"/>
      <point x="217" y="579"/>
      <point x="275" y="701"/>
      <point x="311" y="830" type="curve"/>
      <point x="233" y="840" type="line"/>
      <point x="201" y="715"/>
      <point x="139" y="595"/>
    </contour>
    <contour>
      <point x="612" y="352" type="line"/>
      <point x="914" y="352" type="line"/>
      <point x="914" y="418" type="line"/>
      <point x="774" y="418" type="line"/>
      <point x="774" y="617" type="line"/>
      <point x="701" y="617" type="line"/>
      <point x="701" y="418" type="line"/>
      <point x="612" y="418" type="line"/>
    </contour>
    <contour>
      <point x="223" y="672" type="line"/>
      <point x="874" y="672" type="line"/>
      <point x="874" y="740" type="line"/>
      <point x="223" y="740" type="line"/>
    </contour>
  </outline>
</glyph>
<glyph name="uni5145" format="2">
  <advance width="1000"/>
  <unicode hex="5145"/>
  <outline>
    <contour>
      <point x="51" y="-3" type="curve"/>
      <point x="103" y="-69" type="line"/>
      <point x="305" y="46"/>
      <point x="523" y="231"/>
      <point x="739" y="428" type="curve"/>
      <point x="673" y="474" type="line"/>
      <point x="645" y="448" type="line"/>
      <point x="333" y="448" type="line"/>
      <point x="413" y="528"/>
      <point x="488" y="664"/>
      <point x="559" y="824" type="curve"/>
      <point x="477" y="844" type="line"/>
      <point x="416" y="685"/>
      <point x="297" y="499"/>
      <point x="179" y="409" type="curve"/>
      <point x="229" y="346" type="line"/>
      <point x="275" y="382" type="line"/>
      <point x="580" y="382" type="line"/>
      <point x="461" y="276"/>
      <point x="257" y="113"/>
    </contour>
    <contour>
      <point x="618" y="-54" type="curve" smooth="yes"/>
      <point x="827" y="-54" type="line" smooth="yes"/>
      <point x="913" y="-54"/>
      <point x="941" y="-22"/>
      <point x="952" y="133" type="curve"/>
      <point x="879" y="144" type="line"/>
      <point x="874" y="33"/>
      <point x="867" y="18"/>
      <point x="832" y="18" type="curve" smooth="yes"/>
      <point x="632" y="18" type="line" smooth="yes"/>
      <point x="598" y="18"/>
      <point x="583" y="34"/>
      <point x="583" y="59" type="curve" smooth="yes"/>
      <point x="583" y="303" type="line"/>
      <point x="502" y="303" type="line"/>
      <point x="502" y="48" type="line" smooth="yes"/>
      <point x="502" y="-28"/>
      <point x="525" y="-54"/>
    </contour>
    <contour>
      <point x="70" y="608" type="line"/>
      <point x="934" y="608" type="line"/>
      <point x="934" y="681" type="line"/>
      <point x="70" y="681" type="line"/>
    </contour>
    <contour>
      <point x="860" y="256" type="curve"/>
      <point x="932" y="280" type="line"/>
      <point x="919" y="358"/>
      <point x="895" y="439"/>
      <point x="863" y="520" type="curve"/>
      <point x="795" y="496" type="line"/>
      <point x="826" y="417"/>
      <point x="848" y="335"/>
    </contour>
  </outline>
</glyph>
<glyph name="uni5152" format="2">
  <advance width="1000"/>
  <unicode hex="5152"/>
  <unicode hex="5155"/>
  <outline>
    <contour>
      <point x="43" y="-11" type="curve"/>
      <point x="87" y="-77" type="line"/>
      <point x="376" y="36"/>
      <point x="614" y="243"/>
      <point x="614" y="567" type="curve" smooth="yes"/>
      <point x="614" y="824" type="line"/>
      <point x="535" y="824" type="line"/>
      <point x="535" y="567" type="line" smooth="yes"/>
      <point x="535" y="282"/>
      <point x="306" y="90"/>
    </contour>
    <contour>
      <point x="88" y="340" type="line"/>
      <point x="163" y="340" type="line"/>
      <point x="163" y="728" type="line"/>
      <point x="88" y="728" type="line"/>
    </contour>
    <contour>
      <point x="273" y="380" type="line"/>
      <point x="348" y="380" type="line"/>
      <point x="348" y="708" type="line"/>
      <point x="273" y="708" type="line"/>
    </contour>
    <contour>
      <point x="695" y="-61" type="curve" smooth="yes"/>
      <point x="843" y="-61" type="line" smooth="yes"/>
      <point x="929" y="-61"/>
      <point x="947" y="2"/>
      <point x="954" y="187" type="curve"/>
      <point x="877" y="196" type="line"/>
      <point x="873" y="30"/>
      <point x="868" y="11"/>
      <point x="831" y="11" type="curve" smooth="yes"/>
      <point x="704" y="11" type="line" smooth="yes"/>
      <point x="672" y="11"/>
      <point x="666" y="20"/>
      <point x="666" y="66" type="curve" smooth="yes"/>
      <point x="666" y="308" type="line"/>
      <point x="590" y="308" type="line"/>
      <point x="590" y="67" type="line" smooth="yes"/>
      <point x="590" y="-33"/>
      <point x="613" y="-61"/>
    </contour>
    <contour>
      <point x="762" y="412" type="curve"/>
      <point x="826" y="358" type="line"/>
      <point x="898" y="419"/>
      <point x="925" y="486"/>
      <point x="925" y="536" type="curve" smooth="yes"/>
      <point x="925" y="635"/>
      <point x="840" y="704"/>
      <point x="720" y="704" type="curve" smooth="yes"/>
      <point x="551" y="704"/>
      <point x="457" y="656"/>
      <point x="329" y="565" type="curve"/>
      <point x="343" y="513" type="line"/>
      <point x="471" y="600"/>
      <point x="561" y="631"/>
      <point x="720" y="631" type="curve" smooth="yes"/>
      <point x="806" y="631"/>
      <point x="844" y="584"/>
      <point x="844" y="536" type="curve" smooth="yes"/>
      <point x="844" y="504"/>
      <point x="818" y="453"/>
    </contour>
  </outline>
</glyph>
<glyph name="uni5167" format="2">
  <advance width="1000"/>
  <unicode hex="5167"/>
  <unicode hex="5185"/>
  <outline>
    <contour>
      <point x="99" y="-82" type="line"/>
      <point x="173" y="-82" type="line"/>
      <point x="173" y="568" type="line"/>
      <point x="223" y="594"/>
      <point x="288" y="603"/>
      <point x="391" y="603" type="curve" smooth="yes"/>
      <point x="740" y="603" type="line" smooth="yes"/>
      <point x="803" y="603"/>
      <point x="829" y="575"/>
      <point x="829" y="521" type="curve" smooth="yes"/>
      <point x="829" y="23" type="line" smooth="yes"/>
      <point x="829" y="5"/>
      <point x="821" y="-5"/>
      <point x="801" y="-5" type="curve" smooth="yes"/>
      <point x="761" y="-5"/>
      <point x="713" y="0"/>
      <point x="652" y="17" type="curve"/>
      <point x="652" y="-60" type="line"/>
      <point x="707" y="-70"/>
      <point x="759" y="-73"/>
      <point x="815" y="-73" type="curve" smooth="yes"/>
      <point x="871" y="-73"/>
      <point x="903" y="-43"/>
      <point x="903" y="29" type="curve" smooth="yes"/>
      <point x="903" y="517" type="line" smooth="yes"/>
      <point x="903" y="634"/>
      <point x="849" y="677"/>
      <point x="740" y="677" type="curve" smooth="yes"/>
      <point x="398" y="677" type="line" smooth="yes"/>
      <point x="284" y="677"/>
      <point x="220" y="659"/>
      <point x="173" y="629" type="curve"/>
      <point x="173" y="669" type="line"/>
      <point x="99" y="669" type="line"/>
    </contour>
    <contour>
      <point x="300" y="279" type="line"/>
      <point x="702" y="279" type="line"/>
      <point x="702" y="353" type="line"/>
      <point x="300" y="353" type="line"/>
    </contour>
    <contour>
      <point x="463" y="353" type="line"/>
      <point x="539" y="353" type="line"/>
      <point x="539" y="840" type="line"/>
      <point x="463" y="840" type="line"/>
    </contour>
  </outline>
</glyph>
<glyph name="uni5176" format="2">
  <advance width="1000" height="1000"/>
  <unicode hex="5176"/>
  <note>
cid10925
</note>
  <outline>
    <contour>
      <point x="72" y="502" type="line"/>
      <point x="934" y="502" type="line"/>
      <point x="934" y="578" type="line"/>
      <point x="72" y="578" type="line"/>
    </contour>
    <contour>
      <point x="142" y="722" type="line"/>
      <point x="864" y="722" type="line"/>
      <point x="864" y="798" type="line"/>
      <point x="142" y="798" type="line"/>
    </contour>
    <contour>
      <point x="296" y="357" type="curve"/>
      <point x="347" y="290" type="line"/>
      <point x="372" y="306" type="line"/>
      <point x="581" y="306" type="line"/>
      <point x="530" y="250"/>
      <point x="442" y="176"/>
      <point x="354" y="114" type="curve"/>
      <point x="416" y="82" type="line"/>
      <point x="513" y="150"/>
      <point x="645" y="257"/>
      <point x="715" y="322" type="curve"/>
      <point x="657" y="390" type="line"/>
      <point x="635" y="380" type="line"/>
      <point x="405" y="380" type="line"/>
      <point x="498" y="491"/>
      <point x="544" y="596"/>
      <point x="578" y="741" type="curve"/>
      <point x="493" y="755" type="line"/>
      <point x="462" y="613"/>
      <point x="421" y="500"/>
    </contour>
    <contour>
      <point x="875" y="-56" type="curve"/>
      <point x="905" y="24" type="line"/>
      <point x="645" y="88"/>
      <point x="387" y="136"/>
      <point x="141" y="171" type="curve"/>
      <point x="102" y="95" type="line"/>
      <point x="366" y="55"/>
      <point x="622" y="7"/>
    </contour>
  </outline>
</glyph>
<glyph name="uni5182" format="2">
  <advance width="1000"/>
  <unicode hex="5182"/>
  <outline>
    <contour>
      <point x="99" y="-82" type="line"/>
      <point x="178" y="-82" type="line"/>
      <point x="178" y="670" type="line"/>
      <point x="228" y="696"/>
      <point x="288" y="705"/>
      <point x="391" y="705" type="curve" smooth="yes"/>
      <point x="740" y="705" type="line" smooth="yes"/>
      <point x="803" y="705"/>
      <point x="824" y="677"/>
      <point x="824" y="623" type="curve" smooth="yes"/>
      <point x="824" y="23" type="line" smooth="yes"/>
      <point x="824" y="5"/>
      <point x="816" y="-5"/>
      <point x="796" y="-5" type="curve" smooth="yes"/>
      <point x="756" y="-5"/>
      <point x="713" y="0"/>
      <point x="652" y="17" type="curve"/>
      <point x="652" y="-60" type="line"/>
      <point x="707" y="-70"/>
      <point x="759" y="-73"/>
      <point x="815" y="-73" type="curve" smooth="yes"/>
      <point x="871" y="-73"/>
      <point x="903" y="-43"/>
      <point x="903" y="29" type="curve" smooth="yes"/>
      <point x="903" y="624" type="line" smooth="yes"/>
      <point x="903" y="741"/>
      <point x="849" y="784"/>
      <point x="740" y="784" type="curve" smooth="yes"/>
      <point x="398" y="784" type="line" smooth="yes"/>
      <point x="284" y="784"/>
      <point x="225" y="766"/>
      <point x="178" y="736" type="curve"/>
      <point x="178" y="776" type="line"/>
      <point x="99" y="776" type="line"/>
    </contour>
  </outline>
</glyph>
